<svg width="24" height="24" viewBox="0 0 24 24" fill="none" xmlns="http://www.w3.org/2000/svg">
<path d="M18.2378 6.11671C17.0905 5.5903 15.8602 5.20246 14.5739 4.98033C14.5505 4.97605 14.5271 4.98676 14.515 5.00819C14.3568 5.2896 14.1815 5.65672 14.0588 5.94528C12.6753 5.73815 11.2989 5.73815 9.94374 5.94528C9.82099 5.65031 9.63936 5.2896 9.48043 5.00819C9.46836 4.98747 9.44496 4.97676 9.42154 4.98033C8.13593 5.20175 6.90567 5.58959 5.7577 6.11671C5.74776 6.121 5.73924 6.12814 5.73359 6.13742C3.40004 9.62369 2.76079 13.0243 3.07439 16.3827C3.0758 16.3991 3.08503 16.4148 3.0978 16.4248C4.63741 17.5555 6.12878 18.2419 7.59246 18.6969C7.61588 18.704 7.6407 18.6954 7.65561 18.6761C8.00184 18.2033 8.31048 17.7048 8.57511 17.1805C8.59072 17.1498 8.57582 17.1134 8.5439 17.1012C8.05435 16.9155 7.5882 16.6891 7.1398 16.432C7.10433 16.4113 7.10149 16.3605 7.13412 16.3362C7.22848 16.2655 7.32286 16.192 7.41297 16.1177C7.42927 16.1041 7.45198 16.1013 7.47115 16.1098C10.417 17.4548 13.6062 17.4548 16.5172 16.1098C16.5364 16.1006 16.5591 16.1034 16.5761 16.117C16.6662 16.1913 16.7606 16.2655 16.8557 16.3362C16.8883 16.3605 16.8862 16.4113 16.8507 16.432C16.4023 16.6941 15.9361 16.9155 15.4459 17.1005C15.414 17.1127 15.3998 17.1498 15.4154 17.1805C15.6857 17.704 15.9943 18.2026 16.3342 18.6754C16.3484 18.6954 16.3739 18.704 16.3973 18.6969C17.8681 18.2419 19.3595 17.5555 20.8991 16.4248C20.9126 16.4148 20.9211 16.3998 20.9225 16.3834C21.2978 12.5007 20.2939 9.12801 18.2612 6.13813C18.2562 6.12814 18.2477 6.121 18.2378 6.11671ZM9.01502 14.3378C8.12812 14.3378 7.39735 13.5235 7.39735 12.5236C7.39735 11.5236 8.11395 10.7094 9.01502 10.7094C9.92315 10.7094 10.6469 11.5308 10.6327 12.5236C10.6327 13.5235 9.91606 14.3378 9.01502 14.3378ZM14.9961 14.3378C14.1092 14.3378 13.3784 13.5235 13.3784 12.5236C13.3784 11.5236 14.095 10.7094 14.9961 10.7094C15.9042 10.7094 16.6279 11.5308 16.6137 12.5236C16.6137 13.5235 15.9042 14.3378 14.9961 14.3378Z" fill="white"/>
</svg>
