<svg width="24" height="24" viewBox="0 0 24 24" fill="none" xmlns="http://www.w3.org/2000/svg">
<path d="M12 10.3636V13.8491H16.8436C16.6309 14.97 15.9927 15.9191 15.0354 16.5573L17.9563 18.8237C19.6581 17.2528 20.64 14.9455 20.64 12.2046C20.64 11.5664 20.5827 10.9528 20.4763 10.3637L12 10.3636Z" fill="white"/>
<path d="M6.95645 13.713L6.29768 14.2173L3.96582 16.0336C5.44673 18.9709 8.48196 21 12.0001 21C14.43 21 16.4673 20.1982 17.9564 18.8237L15.0355 16.5573C14.2337 17.0973 13.211 17.4246 12.0001 17.4246C9.66012 17.4246 7.672 15.8455 6.96013 13.7182L6.95645 13.713Z" fill="white"/>
<path d="M3.96538 7.96637C3.35178 9.17723 3 10.5436 3 11.9999C3 13.4563 3.35178 14.8227 3.96538 16.0335C3.96538 16.0417 6.95998 13.7099 6.95998 13.7099C6.77998 13.1699 6.67359 12.5972 6.67359 11.9999C6.67359 11.4025 6.77998 10.8298 6.95998 10.2898L3.96538 7.96637Z" fill="white"/>
<path d="M12.0003 6.58363C13.3258 6.58363 14.5039 7.0418 15.4448 7.92545L18.0221 5.34821C16.4594 3.89187 14.4303 3 12.0003 3C8.48214 3 5.44673 5.02091 3.96582 7.96637L6.96033 10.29C7.6721 8.16271 9.66031 6.58363 12.0003 6.58363Z" fill="white"/>
</svg>
