<svg width="154" height="48" viewBox="0 0 154 48" fill="none" xmlns="http://www.w3.org/2000/svg">
<path d="M4.944 33.072C4.832 33.072 4.712 33.048 4.584 33C4.456 32.936 4.392 32.848 4.392 32.736C4.392 32.592 4.448 32.48 4.56 32.4C4.672 32.32 4.808 32.264 4.968 32.232C5.576 32.104 6.016 31.936 6.288 31.728C6.576 31.52 6.72 31.16 6.72 30.648V20.736C6.72 20.112 6.704 19.656 6.672 19.368C6.64 19.064 6.592 18.864 6.528 18.768C6.48 18.656 6.416 18.584 6.336 18.552C6.192 18.472 6 18.432 5.76 18.432C5.536 18.416 5.352 18.408 5.208 18.408H4.68C4.168 18.408 3.68 18.536 3.216 18.792C2.768 19.032 2.408 19.336 2.136 19.704C2.056 19.816 1.936 19.976 1.776 20.184C1.632 20.376 1.472 20.552 1.296 20.712C1.136 20.856 0.976 20.928 0.816 20.928C0.688 20.928 0.6 20.888 0.552 20.808C0.504 20.712 0.48 20.608 0.48 20.496C0.48 20.304 0.528 20.104 0.624 19.896C0.928 19.288 1.152 18.768 1.296 18.336C1.44 17.904 1.536 17.408 1.584 16.848C1.616 16.608 1.688 16.448 1.8 16.368C1.912 16.272 2.04 16.224 2.184 16.224C2.296 16.224 2.416 16.328 2.544 16.536C2.672 16.744 2.808 16.912 2.952 17.04C3.112 17.168 3.376 17.264 3.744 17.328C4.128 17.392 4.44 17.424 4.68 17.424H13.704C14.104 17.424 14.44 17.384 14.712 17.304C15 17.224 15.216 17.144 15.36 17.064C15.616 16.92 15.816 16.76 15.96 16.584C16.12 16.408 16.304 16.32 16.512 16.32C16.608 16.32 16.672 16.36 16.704 16.44C16.752 16.504 16.776 16.6 16.776 16.728C16.776 16.792 16.768 16.872 16.752 16.968C16.752 17.064 16.744 17.152 16.728 17.232C16.648 17.536 16.568 17.832 16.488 18.12C16.408 18.392 16.344 18.656 16.296 18.912C16.248 19.168 16.224 19.432 16.224 19.704V20.184C16.224 20.44 16.192 20.648 16.128 20.808C16.08 20.968 15.976 21.048 15.816 21.048C15.672 21.048 15.552 20.976 15.456 20.832C15.36 20.672 15.256 20.424 15.144 20.088C14.968 19.512 14.704 19.088 14.352 18.816C14.016 18.544 13.496 18.408 12.792 18.408H11.544C11.272 18.408 11.048 18.472 10.872 18.6C10.712 18.712 10.592 18.952 10.512 19.32C10.432 19.672 10.392 20.216 10.392 20.952V30.624C10.392 31.104 10.52 31.456 10.776 31.68C11.048 31.888 11.496 32.072 12.12 32.232C12.28 32.28 12.416 32.336 12.528 32.4C12.64 32.464 12.696 32.568 12.696 32.712C12.696 32.824 12.648 32.912 12.552 32.976C12.456 33.04 12.336 33.072 12.192 33.072C11.84 33.072 11.44 33.056 10.992 33.024C10.56 33.008 10.12 32.992 9.672 32.976C9.24 32.96 8.864 32.952 8.544 32.952C8.208 32.952 7.824 32.96 7.392 32.976C6.976 32.992 6.552 33.008 6.12 33.024C5.704 33.056 5.312 33.072 4.944 33.072ZM17.2523 33.336C16.8203 33.336 16.4203 33.232 16.0523 33.024C15.6843 32.816 15.3883 32.544 15.1643 32.208C14.9563 31.872 14.8523 31.504 14.8523 31.104C14.8523 30.56 15.0203 30.104 15.3563 29.736C15.7083 29.368 16.2203 29.04 16.8923 28.752L19.0283 27.816C19.3483 27.672 19.5403 27.544 19.6043 27.432C19.6843 27.32 19.7243 27.112 19.7243 26.808L19.7483 25.44C19.7643 24.992 19.6843 24.64 19.5083 24.384C19.3323 24.112 19.0683 23.976 18.7163 23.976C18.5083 23.976 18.3003 24.024 18.0923 24.12C17.8843 24.2 17.7243 24.296 17.6123 24.408C17.5643 24.472 17.5243 24.552 17.4923 24.648C17.4763 24.728 17.4683 24.816 17.4683 24.912C17.4683 25.008 17.4763 25.128 17.4923 25.272C17.5083 25.4 17.5163 25.512 17.5163 25.608C17.5163 25.704 17.3883 25.832 17.1323 25.992C16.8763 26.136 16.5803 26.272 16.2443 26.4C15.9083 26.512 15.6203 26.568 15.3803 26.568C15.2683 26.568 15.1643 26.52 15.0683 26.424C14.9883 26.328 14.9482 26.208 14.9482 26.064C14.9482 25.808 15.0363 25.56 15.2123 25.32C15.3883 25.064 15.6763 24.776 16.0763 24.456C16.4923 24.104 16.9483 23.792 17.4443 23.52C17.9403 23.248 18.4283 23.032 18.9083 22.872C19.4043 22.712 19.8203 22.632 20.1562 22.632C21.0203 22.632 21.7083 22.912 22.2203 23.472C22.7323 24.016 22.9723 24.744 22.9403 25.656L22.8203 30.504C22.8043 30.872 22.8683 31.184 23.0123 31.44C23.1563 31.696 23.3323 31.824 23.5403 31.824C23.8443 31.824 24.1083 31.72 24.3323 31.512C24.3803 31.464 24.4283 31.44 24.4763 31.44C24.5563 31.44 24.6203 31.464 24.6683 31.512C24.7323 31.56 24.7643 31.624 24.7643 31.704C24.7643 31.896 24.6203 32.144 24.3323 32.448C24.0283 32.736 23.7083 32.952 23.3723 33.096C23.0363 33.256 22.6843 33.336 22.3163 33.336C21.4203 33.336 20.6763 32.88 20.0843 31.968H20.0363C19.5083 32.448 19.0283 32.792 18.5963 33C18.1803 33.224 17.7323 33.336 17.2523 33.336ZM18.6923 31.776C18.8683 31.776 19.0123 31.752 19.1243 31.704C19.2363 31.64 19.3483 31.544 19.4603 31.416C19.5083 31.352 19.5483 31.272 19.5803 31.176C19.6123 31.064 19.6283 30.936 19.6283 30.792L19.7003 29.064C19.7003 28.904 19.6763 28.8 19.6283 28.752C19.5803 28.704 19.5243 28.68 19.4603 28.68C19.4283 28.68 19.3883 28.688 19.3403 28.704C19.2923 28.72 19.2363 28.744 19.1723 28.776C18.7083 29 18.3643 29.232 18.1403 29.472C17.9163 29.696 17.8043 30.064 17.8043 30.576C17.8043 31.04 17.9003 31.36 18.0923 31.536C18.2843 31.696 18.4843 31.776 18.6923 31.776ZM31.2797 33.336C30.8157 33.336 30.3837 33.296 29.9837 33.216C29.5997 33.136 29.2477 33.056 28.9277 32.976C28.6877 32.896 28.4637 32.832 28.2557 32.784C28.0637 32.736 27.9037 32.712 27.7757 32.712C27.6157 32.712 27.4637 32.744 27.3197 32.808C27.1757 32.856 27.0397 32.928 26.9117 33.024C26.7677 33.136 26.6557 33.192 26.5757 33.192C26.4317 33.192 26.3197 33.16 26.2397 33.096C26.1757 33.032 26.1437 32.96 26.1437 32.88C26.1437 32.736 26.1837 32.456 26.2637 32.04C26.3597 31.624 26.3997 31.104 26.3837 30.48L26.2877 19.8C26.2877 19.384 26.2237 19.016 26.0957 18.696C25.9837 18.36 25.7357 18.152 25.3517 18.072C25.2717 18.056 25.1997 18.016 25.1357 17.952C25.0877 17.888 25.0637 17.8 25.0637 17.688C25.0637 17.608 25.0877 17.536 25.1357 17.472C25.1837 17.408 25.2477 17.368 25.3277 17.352C25.6797 17.288 26.0877 17.184 26.5517 17.04C27.0157 16.88 27.4637 16.72 27.8957 16.56C28.3437 16.384 28.6877 16.256 28.9277 16.176C29.0877 16.112 29.1997 16.08 29.2637 16.08C29.3597 16.08 29.4237 16.112 29.4557 16.176C29.5037 16.224 29.5277 16.288 29.5277 16.368C29.5277 16.464 29.5037 16.664 29.4557 16.968C29.4237 17.272 29.4077 17.576 29.4077 17.88V23.016C29.4077 23.224 29.4237 23.392 29.4557 23.52C29.4877 23.632 29.5437 23.688 29.6237 23.688C30.1197 23.352 30.6317 23.096 31.1597 22.92C31.7037 22.728 32.2157 22.632 32.6957 22.632C33.5277 22.632 34.2797 22.848 34.9517 23.28C35.6237 23.712 36.1517 24.304 36.5357 25.056C36.9357 25.808 37.1357 26.656 37.1357 27.6C37.1357 28.72 36.8877 29.72 36.3917 30.6C35.8957 31.464 35.2077 32.136 34.3277 32.616C33.4637 33.096 32.4477 33.336 31.2797 33.336ZM31.7117 32.328C32.1437 32.328 32.5117 32.144 32.8157 31.776C33.1197 31.392 33.3517 30.888 33.5117 30.264C33.6877 29.64 33.7757 28.96 33.7757 28.224C33.7757 27.584 33.6877 26.936 33.5117 26.28C33.3517 25.624 33.0877 25.08 32.7197 24.648C32.3677 24.2 31.9117 23.976 31.3517 23.976C31.0637 23.976 30.7277 24.024 30.3437 24.12C29.9597 24.2 29.6477 24.336 29.4077 24.528V29.64C29.4077 30.152 29.5117 30.616 29.7197 31.032C29.9437 31.448 30.2317 31.768 30.5837 31.992C30.9357 32.216 31.3117 32.328 31.7117 32.328ZM38.1999 33.072C38.0559 33.072 37.9359 33.048 37.8399 33C37.7599 32.936 37.7199 32.848 37.7199 32.736C37.7199 32.608 37.7679 32.512 37.8639 32.448C37.9599 32.368 38.0959 32.304 38.2719 32.256C38.5119 32.176 38.7199 32.088 38.8959 31.992C39.0879 31.896 39.1839 31.68 39.1839 31.344V19.8C39.1839 19.368 39.1199 18.992 38.9919 18.672C38.8799 18.352 38.6239 18.152 38.2239 18.072C38.0639 18.04 37.9839 17.92 37.9839 17.712C37.9839 17.504 38.0559 17.384 38.1999 17.352C38.6159 17.272 39.0639 17.16 39.5439 17.016C40.0239 16.856 40.4799 16.696 40.9119 16.536C41.3439 16.36 41.6799 16.232 41.9199 16.152C42.0479 16.104 42.1519 16.08 42.2319 16.08C42.3279 16.08 42.3919 16.112 42.4239 16.176C42.4559 16.224 42.4719 16.288 42.4719 16.368C42.4719 16.48 42.4479 16.688 42.3999 16.992C42.3679 17.296 42.3439 17.64 42.3279 18.024V31.296C42.3279 31.648 42.4159 31.872 42.5919 31.968C42.7839 32.048 42.9999 32.128 43.2399 32.208C43.4159 32.272 43.5519 32.336 43.6479 32.4C43.7439 32.464 43.7919 32.56 43.7919 32.688C43.7919 32.8 43.7439 32.888 43.6479 32.952C43.5679 33 43.4559 33.024 43.3119 33.024C43.0079 33.024 42.7039 33.016 42.3999 33C42.1119 32.984 41.8239 32.976 41.5359 32.976C41.2639 32.96 40.9839 32.952 40.6959 32.952C40.4239 32.952 40.1519 32.96 39.8799 32.976C39.6239 32.992 39.3599 33.008 39.0879 33.024C38.8159 33.056 38.5199 33.072 38.1999 33.072ZM48.8453 33.336C47.9813 33.336 47.2053 33.112 46.5173 32.664C45.8453 32.2 45.3093 31.576 44.9093 30.792C44.5253 29.992 44.3333 29.088 44.3333 28.08C44.3333 27.072 44.5653 26.16 45.0293 25.344C45.4933 24.512 46.1253 23.856 46.9253 23.376C47.7253 22.88 48.6053 22.632 49.5653 22.632C50.2533 22.632 50.8693 22.784 51.4133 23.088C51.9573 23.376 52.3893 23.768 52.7093 24.264C53.0453 24.76 53.2133 25.32 53.2133 25.944C53.2133 26.552 52.9653 26.856 52.4693 26.856H47.6693C47.4453 26.856 47.2773 26.92 47.1653 27.048C47.0693 27.176 47.0213 27.392 47.0213 27.696C47.0213 28.304 47.1573 28.864 47.4293 29.376C47.7013 29.872 48.0693 30.264 48.5333 30.552C48.9973 30.84 49.5333 30.984 50.1413 30.984C50.6053 30.984 51.0293 30.896 51.4133 30.72C51.8133 30.544 52.2053 30.304 52.5893 30C52.6533 29.952 52.7093 29.912 52.7573 29.88C52.8213 29.832 52.8773 29.808 52.9253 29.808C53.0853 29.808 53.1653 29.912 53.1653 30.12C53.1653 30.296 53.1013 30.536 52.9733 30.84C52.8133 31.24 52.5413 31.64 52.1573 32.04C51.7893 32.424 51.3253 32.736 50.7653 32.976C50.2053 33.216 49.5653 33.336 48.8453 33.336ZM47.6693 25.848H49.1093C49.5573 25.848 49.8693 25.84 50.0453 25.824C50.2213 25.808 50.3813 25.776 50.5253 25.728C50.6053 25.696 50.6693 25.616 50.7173 25.488C50.7653 25.36 50.7893 25.216 50.7893 25.056C50.7893 24.624 50.6373 24.272 50.3333 24C50.0453 23.728 49.6853 23.592 49.2533 23.592C48.9173 23.592 48.5973 23.688 48.2933 23.88C48.0053 24.056 47.7653 24.296 47.5733 24.6C47.3973 24.888 47.3173 25.192 47.3333 25.512C47.3333 25.736 47.4453 25.848 47.6693 25.848ZM69.2691 33.504C68.4531 33.504 67.7651 33.4 67.2051 33.192C66.6451 33 66.1651 32.744 65.7651 32.424C65.3811 32.088 65.0371 31.712 64.7331 31.296C64.3811 30.832 64.0371 30.368 63.7011 29.904C63.3811 29.44 63.0611 28.936 62.7411 28.392C62.4211 27.848 62.0851 27.224 61.7331 26.52C61.5731 26.168 61.3571 25.92 61.0851 25.776C60.9411 25.68 60.7971 25.616 60.6531 25.584C60.5091 25.552 60.3811 25.536 60.2691 25.536C60.1891 25.536 60.1251 25.584 60.0771 25.68C60.0291 25.76 60.0051 25.872 60.0051 26.016V30.6C60.0051 31.096 60.1411 31.456 60.4131 31.68C60.6851 31.904 61.1571 32.088 61.8291 32.232C62.0051 32.264 62.1331 32.32 62.2131 32.4C62.3091 32.464 62.3571 32.568 62.3571 32.712C62.3571 32.824 62.3171 32.912 62.2371 32.976C62.1571 33.04 62.0451 33.072 61.9011 33.072C61.5491 33.072 61.1411 33.056 60.6771 33.024C60.2291 33.008 59.7811 32.992 59.3331 32.976C58.8851 32.96 58.5011 32.952 58.1811 32.952C57.8451 32.952 57.4771 32.96 57.0771 32.976C56.6771 32.992 56.2611 33.008 55.8291 33.024C55.4131 33.056 55.0291 33.072 54.6771 33.072C54.5491 33.072 54.4371 33.048 54.3411 33C54.2451 32.936 54.1971 32.848 54.1971 32.736C54.1971 32.48 54.3651 32.312 54.7011 32.232C55.3091 32.104 55.7251 31.944 55.9491 31.752C56.1891 31.544 56.3091 31.176 56.3091 30.648V19.872C56.3091 19.488 56.2691 19.184 56.1891 18.96C56.1251 18.736 55.9891 18.568 55.7811 18.456C55.5731 18.328 55.2691 18.224 54.8691 18.144C54.6611 18.096 54.5171 18.032 54.4371 17.952C54.3571 17.856 54.3171 17.752 54.3171 17.64C54.3171 17.544 54.3651 17.464 54.4611 17.4C54.5571 17.32 54.6851 17.28 54.8451 17.28C55.3571 17.28 55.7731 17.296 56.0931 17.328C56.4291 17.36 56.7411 17.392 57.0291 17.424C57.3331 17.44 57.6851 17.448 58.0851 17.448C58.4531 17.448 58.7731 17.432 59.0451 17.4C59.3331 17.352 59.6531 17.312 60.0051 17.28C60.3731 17.248 60.8371 17.232 61.3971 17.232C63.2691 17.232 64.7091 17.552 65.7171 18.192C66.7251 18.832 67.2291 19.8 67.2291 21.096C67.2291 21.816 67.0691 22.424 66.7491 22.92C66.4451 23.4 66.0531 23.8 65.5731 24.12C65.1091 24.424 64.6371 24.656 64.1571 24.816C64.0931 24.832 64.0611 24.872 64.0611 24.936C64.0771 24.984 64.1011 25.04 64.1331 25.104C64.6131 25.808 65.0771 26.496 65.5251 27.168C65.9891 27.824 66.4611 28.44 66.9411 29.016C67.4211 29.576 67.9171 30.096 68.4291 30.576C68.9731 31.088 69.5251 31.392 70.0851 31.488C70.6611 31.568 71.2291 31.608 71.7891 31.608C72.0291 31.608 72.1491 31.752 72.1491 32.04C72.1491 32.392 72.0211 32.68 71.7651 32.904C71.5251 33.112 71.1891 33.264 70.7571 33.36C70.3251 33.456 69.8291 33.504 69.2691 33.504ZM60.9171 24.768C61.5251 24.768 62.0291 24.632 62.4291 24.36C62.8291 24.088 63.1331 23.72 63.3411 23.256C63.5491 22.776 63.6531 22.232 63.6531 21.624C63.6531 20.888 63.5571 20.272 63.3651 19.776C63.1731 19.28 62.8851 18.912 62.5011 18.672C62.1171 18.416 61.6211 18.288 61.0131 18.288C60.6611 18.288 60.4051 18.432 60.2451 18.72C60.1011 18.992 60.0291 19.584 60.0291 20.496C60.0131 20.864 60.0051 21.328 60.0051 21.888C60.0051 22.448 60.0051 23.112 60.0051 23.88C60.0051 24.2 60.0851 24.432 60.2451 24.576C60.4211 24.704 60.6451 24.768 60.9171 24.768ZM72.9114 33.072C72.8154 33.072 72.7274 33.048 72.6474 33C72.5674 32.936 72.5274 32.856 72.5274 32.76C72.5274 32.632 72.5674 32.528 72.6474 32.448C72.7274 32.368 72.8314 32.312 72.9594 32.28C73.3754 32.184 73.6634 32.08 73.8234 31.968C73.9994 31.84 74.0874 31.648 74.0874 31.392V26.208C74.0874 25.664 73.9994 25.28 73.8234 25.056C73.6634 24.816 73.4074 24.672 73.0554 24.624C72.9594 24.608 72.8874 24.56 72.8394 24.48C72.7914 24.4 72.7674 24.304 72.7674 24.192C72.7674 23.952 72.8554 23.816 73.0314 23.784C73.8634 23.624 74.5994 23.4 75.2394 23.112C75.8954 22.824 76.3994 22.6 76.7514 22.44C77.0074 22.312 77.1674 22.248 77.2314 22.248C77.4394 22.248 77.5434 22.344 77.5434 22.536C77.5274 22.808 77.4874 23.152 77.4234 23.568C77.3754 23.968 77.3274 24.384 77.2794 24.816C77.2474 25.248 77.2314 25.664 77.2314 26.064V31.368C77.2314 31.592 77.3114 31.768 77.4714 31.896C77.6474 32.024 77.9514 32.152 78.3834 32.28C78.5114 32.328 78.6154 32.384 78.6954 32.448C78.7754 32.512 78.8154 32.608 78.8154 32.736C78.8154 32.944 78.6954 33.048 78.4554 33.048C78.1514 33.048 77.8314 33.04 77.4954 33.024C77.1594 33.008 76.8314 32.992 76.5114 32.976C76.2074 32.96 75.9114 32.952 75.6234 32.952C75.3514 32.952 75.0634 32.96 74.7594 32.976C74.4714 32.992 74.1674 33.008 73.8474 33.024C73.5434 33.056 73.2314 33.072 72.9114 33.072ZM75.5514 21.168C75.0554 21.168 74.6154 20.984 74.2314 20.616C73.8634 20.248 73.6794 19.808 73.6794 19.296C73.6794 18.752 73.8634 18.296 74.2314 17.928C74.6154 17.56 75.0554 17.376 75.5514 17.376C76.1114 17.376 76.5754 17.56 76.9434 17.928C77.3114 18.296 77.4954 18.752 77.4954 19.296C77.4954 19.808 77.3114 20.248 76.9434 20.616C76.5754 20.984 76.1114 21.168 75.5514 21.168ZM83.0616 33.336C82.5336 33.336 82.0216 33.272 81.5256 33.144C81.0296 33.016 80.5816 32.808 80.1816 32.52C80.0376 32.28 79.9336 31.904 79.8696 31.392C79.8056 30.88 79.7816 30.344 79.7976 29.784C79.7976 29.592 79.9576 29.496 80.2776 29.496C80.4056 29.496 80.5176 29.536 80.6136 29.616C80.7096 29.696 80.7656 29.776 80.7816 29.856C81.0856 30.528 81.4376 31.104 81.8376 31.584C82.2376 32.048 82.7176 32.28 83.2776 32.28C83.7096 32.28 84.0376 32.152 84.2616 31.896C84.4856 31.624 84.5976 31.32 84.5976 30.984C84.5976 30.568 84.4296 30.224 84.0936 29.952C83.7736 29.664 83.3816 29.4 82.9176 29.16C82.4536 28.92 82.0136 28.648 81.5976 28.344C81.1816 28.04 80.8376 27.68 80.5656 27.264C80.3096 26.832 80.1816 26.32 80.1816 25.728C80.1816 25.104 80.3496 24.56 80.6856 24.096C81.0376 23.632 81.5016 23.272 82.0776 23.016C82.6696 22.744 83.3256 22.608 84.0456 22.608C84.5736 22.608 85.0616 22.672 85.5096 22.8C85.9576 22.912 86.2616 23.024 86.4216 23.136C86.5496 23.296 86.6536 23.6 86.7336 24.048C86.8136 24.48 86.8536 24.96 86.8536 25.488C86.8536 25.664 86.7096 25.752 86.4216 25.752C86.3096 25.752 86.1896 25.712 86.0616 25.632C85.9496 25.552 85.8776 25.472 85.8456 25.392C85.6376 24.768 85.3656 24.304 85.0296 24C84.7096 23.68 84.3496 23.52 83.9496 23.52C83.5976 23.52 83.2776 23.632 82.9896 23.856C82.7016 24.08 82.5576 24.384 82.5576 24.768C82.5576 25.104 82.7096 25.408 83.0136 25.68C83.3336 25.936 83.7256 26.192 84.1896 26.448C85.2296 26.992 85.9736 27.52 86.4216 28.032C86.8696 28.528 87.0936 29.192 87.0936 30.024C87.0936 31.064 86.7496 31.88 86.0616 32.472C85.3896 33.048 84.3896 33.336 83.0616 33.336ZM92.814 33.336C91.95 33.336 91.174 33.112 90.486 32.664C89.814 32.2 89.278 31.576 88.878 30.792C88.494 29.992 88.302 29.088 88.302 28.08C88.302 27.072 88.534 26.16 88.998 25.344C89.462 24.512 90.094 23.856 90.894 23.376C91.694 22.88 92.574 22.632 93.534 22.632C94.222 22.632 94.838 22.784 95.382 23.088C95.926 23.376 96.358 23.768 96.678 24.264C97.014 24.76 97.182 25.32 97.182 25.944C97.182 26.552 96.934 26.856 96.438 26.856H91.638C91.414 26.856 91.246 26.92 91.134 27.048C91.038 27.176 90.99 27.392 90.99 27.696C90.99 28.304 91.126 28.864 91.398 29.376C91.67 29.872 92.038 30.264 92.502 30.552C92.966 30.84 93.502 30.984 94.11 30.984C94.574 30.984 94.998 30.896 95.382 30.72C95.782 30.544 96.174 30.304 96.558 30C96.622 29.952 96.678 29.912 96.726 29.88C96.79 29.832 96.846 29.808 96.894 29.808C97.054 29.808 97.134 29.912 97.134 30.12C97.134 30.296 97.07 30.536 96.942 30.84C96.782 31.24 96.51 31.64 96.126 32.04C95.758 32.424 95.294 32.736 94.734 32.976C94.174 33.216 93.534 33.336 92.814 33.336ZM91.638 25.848H93.078C93.526 25.848 93.838 25.84 94.014 25.824C94.19 25.808 94.35 25.776 94.494 25.728C94.574 25.696 94.638 25.616 94.686 25.488C94.734 25.36 94.758 25.216 94.758 25.056C94.758 24.624 94.606 24.272 94.302 24C94.014 23.728 93.654 23.592 93.222 23.592C92.886 23.592 92.566 23.688 92.262 23.88C91.974 24.056 91.734 24.296 91.542 24.6C91.366 24.888 91.286 25.192 91.302 25.512C91.302 25.736 91.414 25.848 91.638 25.848Z" fill="white"/>
<g clip-path="url(#clip0_689_2748)">
<path d="M113.553 16.7443C114.437 14.3303 115.845 12.1645 117.642 10.3849C119.398 8.64161 121.528 7.26833 123.902 6.3892C123.902 6.68956 123.924 6.99031 123.972 7.29294C121.812 8.13069 119.871 9.40118 118.26 10.9999C116.668 12.5782 115.398 14.4745 114.553 16.5845C114.319 16.6279 114.088 16.6679 113.855 16.7027C113.76 16.7165 113.657 16.7304 113.553 16.7443ZM123.016 38.6058C120.997 37.7297 119.177 36.4887 117.642 34.9645C114.469 31.8202 112.507 27.4752 112.507 22.6745C112.507 21.5241 112.619 20.3994 112.835 19.3132C113.098 19.4679 113.385 19.6017 113.652 19.7043C113.474 20.6673 113.383 21.6613 113.383 22.6745C113.383 27.2335 115.247 31.3614 118.26 34.351C119.68 35.7587 121.358 36.9146 123.214 37.7418C123.216 37.9018 123.206 38.0861 123.165 38.2147L123.016 38.6058ZM147.426 20.4621C147.519 21.1869 147.567 21.9255 147.567 22.6745C147.567 27.4752 145.604 31.8202 142.433 34.9645C140.895 36.4887 139.076 37.7297 137.056 38.6058L136.907 38.2147C136.867 38.0861 136.856 37.9018 136.858 37.7418C138.716 36.9146 140.392 35.7587 141.812 34.351C144.826 31.3614 146.691 27.2335 146.691 22.6745C146.691 21.8752 146.633 21.0895 146.523 20.3213L147.426 20.4621ZM130.037 5.29395C134.877 5.29395 139.26 7.23902 142.433 10.3849C144.549 12.4843 146.128 15.1174 146.944 18.0653C146.565 17.8359 146.21 17.6482 145.853 17.4918C145.027 15.0165 143.628 12.8009 141.812 10.9999C138.799 8.01073 134.635 6.16328 130.037 6.16328C129.588 6.16328 129.145 6.18051 128.705 6.21538C128.682 6.1893 128.659 6.16327 128.635 6.1368C128.428 5.90572 128.288 5.65378 128.207 5.38789C128.808 5.32513 129.418 5.29395 130.037 5.29395Z" fill="white"/>
<path fill-rule="evenodd" clip-rule="evenodd" d="M115.923 28.1757C115.883 28.0783 115.844 27.9792 115.806 27.8802C115.948 27.9288 116.062 27.9862 115.985 28.08C115.955 28.1148 115.936 28.1478 115.923 28.1757ZM142.52 28.7474C142.454 28.7301 142.387 28.7196 142.326 28.7162C141.97 28.7005 141.649 28.6693 141.49 28.4172C141.328 28.1669 142.31 28.2765 142.173 28.127C142.049 27.9932 142.507 27.9722 142.715 27.8019C142.752 27.8436 142.989 27.7985 142.918 27.9532C142.832 28.1339 142.564 27.9357 142.638 28.0887C142.71 28.2416 142.657 28.1287 142.503 28.2468C142.35 28.3669 142.748 28.219 142.667 28.4051C142.655 28.4311 142.745 28.5476 142.831 28.5301C142.971 28.5023 142.999 28.6778 142.613 28.6953C142.52 28.7005 142.52 28.7179 142.52 28.7474ZM144.053 28.4103C144.021 28.4816 143.991 28.5528 143.958 28.6257C143.916 28.5997 143.881 28.5667 143.853 28.5215C143.805 28.445 143.93 28.4224 144.053 28.4103ZM136.066 11.212C136.031 11.0957 135.894 10.7671 135.477 10.6578C134.966 10.5258 134.725 10.8717 134.725 10.8717C134.725 10.8717 134.204 10.7378 133.838 10.9256C133.599 11.0451 133.522 11.151 133.497 11.212H136.066ZM120.55 12.8079C120.739 12.4964 121.321 12.3751 121.594 12.6912C121.603 12.3523 122.18 12.1505 122.508 12.3695C122.587 11.7684 124.156 11.5216 124.203 12.8079H120.55ZM116.232 16.1951C116.56 15.4963 116.938 14.8292 117.364 14.1928H123.4C123.311 14.0575 123.132 13.859 122.816 13.8037C122.322 13.7167 122.143 13.9097 122.143 13.9097C122.143 13.9097 122.055 13.64 121.707 13.5517C121.358 13.4629 121.186 13.6907 121.186 13.6907C121.172 12.9222 120.032 12.8544 119.778 13.1519C119.671 12.6392 119.414 12.2826 119.093 12.0636C120.485 10.635 122.159 9.47747 124.026 8.68161C124.213 9.26549 124.489 9.8322 124.85 10.3607C124.943 10.4979 125.037 10.6332 125.123 10.7726C125.253 10.9828 125.407 11.172 125.581 11.3458C125.558 11.4105 125.539 11.4746 125.523 11.5425C125.216 11.7633 124.939 12.0864 124.692 12.4602C124.199 13.0808 123.817 13.8887 123.538 14.5717C122.711 14.6656 121.863 14.9403 121.142 15.2569C120.444 15.561 119.98 15.6251 119.242 15.6721C118.264 15.7348 117.44 15.858 116.488 16.1239C116.404 16.1481 116.318 16.1727 116.232 16.1951ZM121.938 29.5001C121.934 29.4774 121.91 29.4531 121.847 29.4218C121.559 29.2792 121.761 29.1037 121.419 29.0482C121.179 29.0082 121.796 28.7388 121.617 28.7092C121.437 28.6814 121.724 28.5092 121.519 28.4989C120.816 28.4589 121.133 27.7707 121.005 27.6194C120.905 27.4995 120.955 26.7956 120.872 26.9224C120.779 27.0649 120.765 26.5836 120.725 26.3473C120.625 25.7562 120.655 27.0077 120.586 26.9138C120.497 26.7886 120.586 27.4908 120.494 27.6108C120.401 27.7307 120.492 27.8958 120.409 28.0383C120.327 28.1808 120.316 28.5162 120.111 28.5268C119.906 28.5389 120.048 28.7788 119.812 28.8951C119.577 29.0116 120.294 28.942 120.087 29.0551C119.88 29.1699 119.969 29.3523 119.706 29.4426C119.443 29.5348 119.91 29.6617 119.838 29.7764C119.766 29.8894 120.211 29.7764 120.103 29.9919C119.996 30.2092 119.643 29.9728 119.74 30.1571C119.819 30.303 119.787 30.2456 119.67 30.2909C119.473 30.1188 119.284 29.8667 119.459 29.8373C119.677 29.7989 118.986 29.4478 118.854 29.1645C118.723 28.8812 119.38 29.3436 119.328 29.142C119.275 28.9404 119.575 29.1715 119.812 29.1715C120.048 29.1715 119.691 28.9335 119.512 28.7683C119.333 28.6049 119.764 28.5979 119.373 28.4937C118.982 28.3876 118.595 27.941 119.07 28.0904C119.545 28.2399 119.007 27.6802 119.429 27.6264C119.852 27.5743 119.34 27.2979 118.986 27.284C118.632 27.2683 118.314 27.2389 118.155 27.0007C117.995 26.7608 118.972 26.8651 118.835 26.7244C118.698 26.5818 119.272 26.5749 119.429 26.3576C119.589 26.1421 118.765 26.3507 118.882 26.1125C118.998 25.8727 118.35 26.3733 118.197 26.09C118.043 25.8067 118.765 25.8815 118.663 25.732C118.562 25.5825 119.159 25.4034 118.812 25.2835C118.463 25.1636 118.674 25.0454 118.395 24.8959C118.118 24.7465 118.791 24.47 118.558 24.4318C118.323 24.3954 118.702 24.1711 118.432 24.1555C118.164 24.1416 117.964 23.999 117.848 23.8131C117.733 23.6271 117.908 23.163 117.778 23.0066C117.648 22.8502 117.725 21.9325 117.615 22.0959C117.489 22.2818 117.48 21.6544 117.433 21.3468C117.312 20.5733 117.327 22.2072 117.242 22.0855C117.126 21.9203 117.233 22.8398 117.108 22.9962C116.984 23.1527 117.136 23.429 117.026 23.6149C116.917 23.8026 116.863 24.1781 116.595 24.1937C116.326 24.2076 116.507 24.5239 116.197 24.6751C115.886 24.828 116.826 24.736 116.553 24.8837C116.281 25.0332 116.395 25.2713 116.05 25.3895C115.706 25.5095 116.312 25.6763 116.216 25.8258C116.12 25.9735 116.703 25.8258 116.56 26.1091C116.416 26.3924 115.958 26.083 116.083 26.3228C116.206 26.561 116.114 26.3855 115.853 26.5714C115.594 26.7574 116.27 26.5262 116.134 26.8182C116.114 26.86 116.265 27.0407 116.411 27.0146C116.649 26.9712 116.698 27.2458 116.043 27.2735C115.711 27.2874 116.064 27.3866 115.695 27.5761C115.131 26.0014 114.824 24.3068 114.824 22.539C114.824 21.8856 114.866 21.2424 114.947 20.6116C115.83 20.7263 116.731 20.648 117.603 20.4083C117.747 20.3701 117.892 20.3283 118.039 20.2953C118.735 20.9158 119.627 20.8428 120.511 20.6706C121.083 20.5595 121.596 20.5663 122.147 20.6168C122.122 20.6534 122.098 20.6897 122.073 20.7228C121.381 21.6353 121.056 22.5756 121.233 23.7157C121.409 24.849 122.001 25.8709 122.147 27.018C122.259 27.8888 122.127 28.6727 121.938 29.5001ZM121.666 30.6645C121.665 30.6593 121.661 30.6541 121.654 30.6454C121.472 30.4595 121.356 30.2561 121.658 30.2943C121.842 30.3187 121.593 30.0058 121.598 30.1015C121.601 30.1883 121.435 30.0041 121.356 29.978C121.172 29.9189 121.789 29.8181 121.71 29.7034C121.654 29.6217 121.896 29.587 121.933 29.5192C121.903 29.6478 121.873 29.7781 121.842 29.9084C121.782 30.1518 121.722 30.4039 121.666 30.6645ZM121.624 30.8557C121.503 30.8261 121.4 30.774 121.333 30.675C121.223 30.5134 121.64 30.6975 121.665 30.668C121.652 30.7306 121.638 30.7931 121.624 30.8557ZM145.138 20.7142C145.211 21.312 145.248 21.9221 145.248 22.539C145.248 24.4336 144.896 26.2447 144.254 27.9149C144.167 27.9357 143.944 28.073 143.877 27.9392C143.788 27.7585 144.21 27.8071 144.151 27.7116C144.093 27.616 144.442 27.5013 144.238 27.4248C144.035 27.3483 144.158 27.2735 143.995 27.178C143.831 27.0824 144.226 26.9069 144.089 26.8825C143.953 26.8582 144.174 26.7156 144.016 26.7053C143.858 26.6965 143.74 26.6061 143.674 26.4862C143.606 26.3679 143.709 26.0725 143.632 25.9717C143.557 25.8727 143.6 25.2852 143.537 25.3912C143.463 25.5095 143.458 25.1079 143.428 24.9115C143.358 24.4179 143.369 25.4626 143.318 25.3843C143.249 25.2783 143.313 25.8658 143.239 25.9648C143.165 26.0656 143.257 26.2411 143.192 26.3611C143.127 26.4792 143.096 26.7209 142.938 26.7295C142.782 26.7383 142.887 26.9399 142.705 27.0371C142.522 27.1345 143.074 27.0755 142.915 27.1711C142.753 27.2666 142.82 27.4178 142.619 27.4944C142.519 27.5308 142.555 27.5777 142.613 27.6246C142.421 27.616 142.151 27.6333 142.221 27.4838C142.336 27.2319 141.684 27.7585 141.532 27.4596C141.377 27.1606 142.103 27.2389 142.001 27.0824C141.898 26.926 142.499 26.7365 142.149 26.6113C141.8 26.4862 142.01 26.3594 141.731 26.2029C141.451 26.0465 142.13 25.7545 141.894 25.7163C141.66 25.6763 142.038 25.4399 141.768 25.4242C141.498 25.4087 141.297 25.2608 141.181 25.0646C141.064 24.8681 141.241 24.3797 141.111 24.2145C140.979 24.0495 141.057 23.0849 140.946 23.2569C140.82 23.4533 140.811 22.7911 140.762 22.4679C140.641 21.6544 140.657 23.3752 140.571 23.2448C140.454 23.0726 140.562 24.039 140.436 24.2041C140.312 24.3692 140.466 24.6594 140.355 24.8559C140.245 25.0523 140.189 25.4487 139.921 25.4642C139.651 25.4799 139.833 25.8119 139.519 25.9717C139.207 26.1316 140.154 26.0344 139.879 26.1908C139.603 26.3489 139.719 26.5975 139.372 26.7244C139.027 26.8494 139.637 27.0232 139.538 27.1814C139.442 27.3379 140.029 27.1814 139.886 27.4804C139.74 27.7776 139.281 27.4526 139.405 27.7047C139.53 27.9566 139.437 27.7707 139.176 27.9671C138.913 28.1617 139.593 27.9201 139.456 28.226C139.437 28.2695 139.589 28.4607 139.735 28.4329C139.975 28.386 140.024 28.6763 139.365 28.7057C139.009 28.7214 139.437 28.8396 138.93 29.0673C138.422 29.2949 139.509 29.3019 139.307 29.5539C139.105 29.8042 139.404 29.8685 139.014 29.978C138.627 30.0875 139.06 30.0962 138.885 30.2682C138.709 30.442 138.972 30.449 139.214 30.4889C139.458 30.5273 139.119 30.7167 139.072 30.9287C139.027 31.1408 139.509 30.6853 139.386 30.9826C139.263 31.2815 138.713 31.1094 138.974 31.3911C139.223 31.6622 138.89 31.8185 138.669 31.9628C138.564 31.1825 138.369 30.449 138.185 29.6651C138.145 29.4931 138.106 29.3227 138.071 29.1507C137.957 28.5893 137.861 27.8176 137.901 27.251C137.992 26.0047 138.651 24.929 138.839 23.7157C139.004 22.6591 138.736 21.7726 138.145 20.9209C138.935 20.9818 139.731 20.9715 140.517 20.8305C141.728 20.6116 142.996 20.5855 144.222 20.6498C144.527 20.6655 144.833 20.6864 145.138 20.7142ZM130.037 7.45801C133.343 7.45801 136.402 8.50399 138.897 10.2804C138.601 10.5202 138.367 10.8819 138.262 11.3788C137.987 11.0557 136.749 11.1306 136.735 11.9646C136.735 11.9646 136.55 11.7182 136.171 11.8135C135.792 11.9093 135.696 12.2012 135.696 12.2012C135.696 12.2012 135.501 11.9907 134.966 12.0864C134.623 12.1473 134.428 12.3626 134.332 12.5085H141.395C142.569 13.8158 143.518 15.3262 144.181 16.9807C143.776 16.899 143.334 16.8348 142.825 16.7791C142.522 16.7461 142.214 16.7113 141.91 16.661C141.875 16.6557 141.835 16.6488 141.793 16.6419C141.623 16.3968 141.388 16.2369 141.067 16.1221C140.683 15.9868 140.248 15.997 139.845 15.9989C138.853 16.0058 137.998 15.9519 137.105 15.4582C136.623 15.1891 136.236 14.7855 135.899 14.3457C135.817 14.2277 135.738 14.1096 135.663 13.9929C135.547 13.819 135.433 13.6456 135.307 13.4889C135.052 13.1082 134.772 12.7382 134.297 12.6219C134.157 12.5889 134.022 12.5764 133.894 12.5871C133.801 12.3835 133.717 12.1771 133.639 11.9716C133.391 11.3147 133.203 10.7931 132.779 10.2789C132.658 10.0879 132.514 9.90329 132.33 9.71552C132.169 9.5523 132.03 9.39243 131.89 9.20971C131.48 8.67277 131.029 8.31158 130.5 7.90293C130.307 7.75321 130.123 7.60586 129.946 7.45801C129.976 7.45801 130.005 7.45801 130.037 7.45801Z" fill="white"/>
<path fill-rule="evenodd" clip-rule="evenodd" d="M142.082 36.7147C142.082 38.1155 141.733 38.9498 140.997 39.2505C141.733 39.5512 142.082 40.3855 142.082 41.7864C142.082 40.3855 142.433 39.5512 143.169 39.2505C142.433 38.9498 142.082 38.1155 142.082 36.7147Z" fill="white"/>
<path fill-rule="evenodd" clip-rule="evenodd" d="M144.38 34.5717C144.38 35.3903 144.166 35.8788 143.716 36.0543C144.166 36.2315 144.38 36.7181 144.38 37.5385C144.38 36.7181 144.594 36.2315 145.043 36.0543C144.594 35.8788 144.38 35.3903 144.38 34.5717Z" fill="white"/>
<path fill-rule="evenodd" clip-rule="evenodd" d="M138.845 39.1941C138.845 39.7451 138.701 40.0736 138.399 40.1918C138.701 40.3099 138.845 40.6384 138.845 41.1894C138.845 40.6384 138.988 40.3099 139.29 40.1918C138.988 40.0736 138.845 39.7451 138.845 39.1941Z" fill="white"/>
<path d="M121.484 16.155C122.888 15.54 123.86 15.493 124.273 15.5121C124.512 14.8324 125.336 12.5834 126.219 12.2394C126.568 12.1022 126.715 12.2324 126.715 12.2324C126.715 12.2324 126.722 12.1124 126.703 12.0064C126.673 11.8103 126.607 11.6136 126.645 11.4346C126.687 11.2315 126.787 11.0818 126.987 11.0329C126.959 10.9828 126.943 10.927 126.943 10.8679C126.943 10.7657 126.98 10.6787 127.069 10.616C126.729 10.4338 126.354 10.1659 126.112 9.77311C126.025 9.63229 125.92 9.47746 125.809 9.31753C124.203 6.96806 124.659 3.78356 127.289 2.59675L128.016 2.26294L127.62 2.95097C127.616 2.95794 126.379 5.07502 127.9 6.78205C128.775 7.76391 129.438 8.27483 129.98 8.69368C130.458 9.06558 130.847 9.36634 131.215 9.84936C131.452 10.1571 131.605 10.3119 131.724 10.4338C132.011 10.7238 132.125 10.8401 132.555 11.9767C132.863 12.7954 133.224 13.4559 133.519 13.786C133.572 13.8455 133.621 13.8906 133.661 13.9199L133.666 13.8976C133.738 13.6126 133.88 13.515 134.096 13.5671C134.292 13.6159 134.457 13.8646 134.692 14.2225C135.086 14.8204 135.719 15.7818 136.694 16.3201C137.886 16.9825 139.057 16.9737 139.851 16.9686C140.247 16.9668 140.557 16.9652 140.782 17.0434C141.076 17.1477 141.122 17.271 141.171 17.4014C141.204 17.4882 141.241 17.5839 142.735 17.7437C144.864 17.9749 145.701 18.3659 147.298 19.4558L146.188 19.2855C146.179 19.2836 143.096 18.797 140.31 19.2993C139.074 19.5218 137.779 19.3671 136.496 19.1498C136.056 19.0769 135.628 19.0126 135.205 18.9552C134.308 18.8354 133.396 18.6998 132.492 18.7657C131.864 18.8109 131.214 18.917 130.171 18.9465C129.508 18.9639 128.83 18.8578 128.106 18.8109C126.629 18.7136 125.842 19.1516 124.507 19.2194C123.865 19.2524 123.313 19.1882 122.764 19.1256C122.008 19.0403 121.26 18.9534 120.287 19.1447C119.025 19.3914 118.83 19.1117 118.646 18.8493C118.55 18.7119 118.46 18.5833 117.295 18.9013C114.581 19.6452 112.944 18.2026 112.938 18.1974L112.432 17.7594L113.107 17.7525C113.11 17.7525 114.267 17.7491 116.718 17.0624C117.913 16.7288 118.653 16.6819 119.296 16.6402C119.984 16.5967 120.555 16.5602 121.484 16.155ZM124.407 16.0318C124.405 16.0318 123.451 15.8492 121.693 16.6193C120.68 17.0607 120.068 17.1008 119.332 17.1477C118.713 17.1859 117.999 17.231 116.858 17.5509C115.485 17.935 114.498 18.1122 113.883 18.1922C114.523 18.5016 115.647 18.8284 117.156 18.4129C118.676 17.9976 118.867 18.2704 119.07 18.5606C119.162 18.691 119.256 18.8266 120.187 18.6458C121.239 18.4389 122.028 18.5293 122.824 18.6198C123.774 18.7292 124.738 18.8387 126.189 18.4025C126.57 18.2878 126.952 18.194 127.336 18.1156C127.066 17.5335 127.434 15.6809 128.418 16.1346C129.122 16.4594 129.298 16.0091 128.256 15.5433C127.213 15.0756 128.281 15.1783 129.689 15.4442C131.098 15.7088 130.441 14.4294 129.075 13.5707C127.709 12.714 129.788 11.6796 129.066 10.6331C128.472 9.7713 128.56 8.63137 127.504 7.81596C126.661 7.16422 125.716 7.25441 125.406 5.94946C124.954 7.81596 126.668 10.4737 128.649 10.729C128.484 10.8698 128.12 11.0748 127.606 11.0906C127.722 11.1859 128.186 11.4207 128.186 11.4207C127.69 11.7424 127.28 11.3914 127.155 11.4834C127.085 11.5355 127.311 12.4634 126.985 12.9553C126.817 12.6652 126.479 12.5471 126.2 12.7572C125.548 13.2491 124.701 15.8511 124.698 15.8598L124.629 16.0719L124.407 16.0318Z" fill="white"/>
<path fill-rule="evenodd" clip-rule="evenodd" d="M129.833 24.2876H130.241C133.512 24.3552 132.12 27.4108 134.748 27.576C133.074 26.4566 133.924 24.929 132.992 23.8079C132.504 23.2205 131.766 22.9666 131.284 22.9666C130.523 22.9666 130.038 23.3994 130.038 23.3994C130.038 23.3994 129.551 22.9666 128.79 22.9666C128.304 22.9666 127.559 23.2239 127.072 23.8183C126.153 24.9393 126.996 26.4601 125.326 27.576C127.954 27.4108 126.562 24.3552 129.833 24.2876ZM130.038 26.1246C129.451 26.1073 128.791 26.2116 128.399 26.3888C128.399 26.3888 128.818 25.6693 130.038 25.6693C131.256 25.6693 131.675 26.3888 131.675 26.3888C131.283 26.2116 130.623 26.1073 130.038 26.1246ZM129.449 27.7377C129.449 27.7377 128.495 29.0812 129.333 30.9201C130.173 32.7572 129.486 34.8411 129.486 34.8411C129.486 34.8411 129.899 34.4534 130.124 33.5931C130.767 31.1216 128.742 30.1952 129.449 27.7377ZM136.755 19.2228C136.673 19.3862 136.382 20.1023 137.075 21.0148C137.863 22.0541 137.918 23.6531 137.075 25.1757C136.23 26.6983 137.061 28.9299 137.061 28.9299C137.061 28.9299 136.038 27.7132 135.849 26.2915C135.658 24.8716 135.904 24.4388 135.904 24.4388C135.904 24.4388 134.133 26.4689 135.904 28.5249C137.672 30.5793 135.467 32.3556 135.467 32.3556C135.467 32.3556 135.821 32.3556 136.258 32.0133C136.692 31.6708 136.929 31.1407 136.929 31.1407C136.929 31.1407 137.972 33.296 136.72 35.2495C135.469 37.203 135.986 38.5483 135.986 38.5483C135.986 38.5483 135.223 38.2424 135.087 37.1004C134.952 35.9587 135.686 34.8184 135.686 34.8184C135.686 34.8184 134.352 35.7396 134.482 37.3646C134.611 38.988 134.761 39.4868 133.889 40.1959C133.018 40.9069 133.399 41.9723 133.399 41.9723C133.399 41.9723 132.217 41.2631 132.922 40.05C133.626 38.8368 132.864 38.1104 132.746 37.0935C132.587 35.7118 133.7 34.8132 133.551 32.9604C133.49 32.2027 133.193 31.4292 132.825 31.0348C131.959 30.1084 132.283 28.6623 132.283 28.6623C132.283 28.6623 131.447 29.9831 132.283 31.1129C132.788 31.7942 133.051 32.4807 133 33.3045C132.904 34.8428 131.598 36.327 132.441 38.0286C133.178 39.5147 131.83 41.0997 131.83 41.0997C132.262 39.3982 131.452 37.5716 130.374 36.8728C130.374 36.8728 130.522 37.0066 130.75 37.502C132.596 41.51 130.285 41.4492 130.09 44.2839C130.029 45.1947 130.313 45.7369 130.313 45.7369C130.313 45.7369 128.478 43.6044 129.335 41.656C129.614 41.0216 129.67 40.3124 129.494 39.6642C129.379 39.2365 129.163 38.8368 128.842 38.4996C129.042 39.0628 129.175 39.5651 129.2 40.0655C129.249 41.0842 128.788 42.1253 128.118 42.8865C128.118 42.8865 128.444 41.2371 127.927 40.6531C127.41 40.0709 127.03 39.3843 128.118 37.9382C128.427 37.5263 128.513 36.9267 128.427 36.3653C128.129 34.4152 126.688 34.1076 127.51 30.9982C125.419 34.2987 128.919 35.5259 127.363 38.0217C126.942 38.6978 126.481 39.2244 127.002 39.9944C127.79 41.1606 126.675 41.9723 126.675 41.9723C126.675 41.9723 127.056 40.9069 126.185 40.1959C125.313 39.4868 125.641 38.9793 125.696 37.3543C125.75 35.7309 124.388 34.8184 124.388 34.8184C124.388 34.8184 125.124 35.9587 124.987 37.1004C124.851 38.2424 124.09 38.5483 124.09 38.5483C124.09 38.5483 124.607 37.203 123.354 35.2495C122.102 33.296 123.145 31.1407 123.145 31.1407C123.145 31.1407 123.382 31.6708 123.816 32.0133C124.253 32.3556 124.607 32.3556 124.607 32.3556C124.607 32.3556 122.402 30.5793 124.17 28.5249C125.941 26.4689 124.17 24.4388 124.17 24.4388C124.17 24.4388 124.416 24.8716 124.225 26.2915C124.036 27.7132 123.014 28.9299 123.014 28.9299C123.014 28.9299 123.844 26.6983 123.001 25.1757C122.156 23.6531 122.211 22.0541 123.001 21.0148C123.692 20.1023 123.401 19.3862 123.318 19.2228C123.832 19.6192 124.207 20.2414 123.734 21.173C122.754 23.1004 124.66 23.7991 124.66 23.7991C124.66 23.7991 123.517 22.5425 124.386 21.5658C125.257 20.589 124.66 19.8156 124.66 19.8156C124.66 19.8156 125.736 20.5021 125.448 21.2233C125.121 22.0472 126.013 23.2048 126.728 23.3455C126.728 23.3455 127.217 22.6225 128.36 22.5147C129.503 22.4069 130.038 23.3994 130.038 23.3994C130.038 23.3994 130.571 22.4069 131.714 22.5147C132.857 22.6225 133.346 23.3455 133.346 23.3455C134.061 23.2048 134.953 22.0472 134.626 21.2233C134.338 20.5021 135.414 19.8156 135.414 19.8156C135.414 19.8156 134.817 20.589 135.688 21.5658C136.559 22.5425 135.414 23.7991 135.414 23.7991C135.414 23.7991 137.32 23.1004 136.34 21.173C135.868 20.2414 136.242 19.6192 136.755 19.2228Z" fill="white"/>
</g>
<defs>
<clipPath id="clip0_689_2748">
<rect width="48" height="48" fill="white" transform="translate(106)"/>
</clipPath>
</defs>
</svg>
