<svg width="24" height="24" viewBox="0 0 24 24" fill="none" xmlns="http://www.w3.org/2000/svg">
<path d="M12 13C12.6922 13 13.3689 12.7947 13.9445 12.4101C14.5201 12.0256 14.9687 11.4789 15.2336 10.8394C15.4985 10.1999 15.5678 9.49612 15.4327 8.81718C15.2977 8.13825 14.9644 7.51461 14.4749 7.02513C13.9854 6.53564 13.3618 6.2023 12.6828 6.06725C12.0039 5.9322 11.3001 6.00152 10.6606 6.26642C10.0211 6.53133 9.47444 6.97993 9.08986 7.55551C8.70527 8.13108 8.5 8.80777 8.5 9.5C8.5 10.4283 8.86875 11.3185 9.52513 11.9749C10.1815 12.6313 11.0717 13 12 13ZM12 8C12.2967 8 12.5867 8.08797 12.8334 8.2528C13.08 8.41762 13.2723 8.65189 13.3858 8.92598C13.4994 9.20007 13.5291 9.50167 13.4712 9.79264C13.4133 10.0836 13.2704 10.3509 13.0607 10.5607C12.8509 10.7704 12.5836 10.9133 12.2926 10.9712C12.0017 11.0291 11.7001 10.9994 11.426 10.8858C11.1519 10.7723 10.9176 10.58 10.7528 10.3334C10.588 10.0867 10.5 9.79667 10.5 9.5C10.5 9.10218 10.658 8.72065 10.9393 8.43934C11.2206 8.15804 11.6022 8 12 8Z" fill="white"/>
<path d="M18 3H6C5.20435 3 4.44129 3.31607 3.87868 3.87868C3.31607 4.44129 3 5.20435 3 6V18C3 18.7956 3.31607 19.5587 3.87868 20.1213C4.44129 20.6839 5.20435 21 6 21H18C18.7956 21 19.5587 20.6839 20.1213 20.1213C20.6839 19.5587 21 18.7956 21 18V6C21 5.20435 20.6839 4.44129 20.1213 3.87868C19.5587 3.31607 18.7956 3 18 3ZM6 5H18C18.2652 5 18.5196 5.10536 18.7071 5.29289C18.8946 5.48043 19 5.73478 19 6V16.5L18.69 15.8C18.4565 15.2649 18.0719 14.8096 17.5834 14.4899C17.095 14.1702 16.5238 13.9999 15.94 14H8.06C7.47619 13.9999 6.90504 14.1702 6.41657 14.4899C5.92809 14.8096 5.54352 15.2649 5.31 15.8L5 16.51V6C5 5.73478 5.10536 5.48043 5.29289 5.29289C5.48043 5.10536 5.73478 5 6 5ZM17.91 19H6.09L7.09 16.6C7.16807 16.4211 7.29677 16.269 7.46025 16.1624C7.62373 16.0558 7.81483 15.9993 8.01 16H15.89C16.0852 15.9993 16.2763 16.0558 16.4398 16.1624C16.6032 16.269 16.7319 16.4211 16.81 16.6L17.91 19Z" fill="white"/>
</svg>
