<svg width="24" height="24" viewBox="0 0 24 24" fill="none" xmlns="http://www.w3.org/2000/svg">
<path d="M18.2205 3.08999H5.78047C5.40582 3.09511 5.03596 3.17484 4.69247 3.32452C4.34899 3.4742 4.03877 3.69083 3.77996 3.96175C3.52114 4.23267 3.3189 4.55245 3.18507 4.90242C3.05123 5.25238 2.98848 5.6255 3.00047 5.99999V16.22C2.98977 16.9689 3.27636 17.6915 3.79745 18.2294C4.31854 18.7674 5.03163 19.0768 5.78047 19.09H12.7805L18.4005 20.89C18.4756 20.9136 18.5553 20.9192 18.6329 20.9062C18.7106 20.8932 18.7841 20.862 18.8475 20.8152C18.9109 20.7685 18.9623 20.7074 18.9975 20.6369C19.0328 20.5665 19.0509 20.4887 19.0505 20.41V19C19.6334 18.8146 20.1418 18.4478 20.5016 17.9531C20.8614 17.4584 21.0537 16.8617 21.0505 16.25V5.99999C21.0626 5.62131 20.9982 5.24408 20.8613 4.89082C20.7244 4.53756 20.5177 4.21551 20.2535 3.94391C19.9894 3.6723 19.6732 3.4567 19.3239 3.30999C18.9746 3.16327 18.5993 3.08845 18.2205 3.08999ZM19.0005 16.22C19.0114 16.4385 18.9356 16.6526 18.7895 16.8155C18.6434 16.9784 18.4389 17.0771 18.2205 17.09H17.0005V18.36L13.1905 17.13H5.78047C5.66867 17.1238 5.55928 17.095 5.45888 17.0454C5.35849 16.9958 5.26917 16.9264 5.1963 16.8414C5.12342 16.7564 5.06851 16.6575 5.03485 16.5507C5.0012 16.4439 4.9895 16.3314 5.00047 16.22V5.99999C4.99224 5.78312 5.06928 5.57166 5.21507 5.41091C5.36087 5.25016 5.56383 5.15291 5.78047 5.13999H18.2205C18.4371 5.15291 18.6401 5.25016 18.7859 5.41091C18.9317 5.57166 19.0087 5.78312 19.0005 5.99999V16.22Z" fill="white"/>
<path d="M16.5 7.09H7.5C7.22386 7.09 7 7.31385 7 7.59V8.59C7 8.86614 7.22386 9.09 7.5 9.09H16.5C16.7761 9.09 17 8.86614 17 8.59V7.59C17 7.31385 16.7761 7.09 16.5 7.09Z" fill="white"/>
<path d="M16.5 10.09H7.5C7.22386 10.09 7 10.3139 7 10.59V11.59C7 11.8661 7.22386 12.09 7.5 12.09H16.5C16.7761 12.09 17 11.8661 17 11.59V10.59C17 10.3139 16.7761 10.09 16.5 10.09Z" fill="white"/>
<path d="M12.5 13.09H7.5C7.22386 13.09 7 13.3139 7 13.59V14.59C7 14.8661 7.22386 15.09 7.5 15.09H12.5C12.7761 15.09 13 14.8661 13 14.59V13.59C13 13.3139 12.7761 13.09 12.5 13.09Z" fill="white"/>
</svg>
