<svg width="24" height="24" viewBox="0 0 24 24" fill="none" xmlns="http://www.w3.org/2000/svg">
<path d="M18 3H6C5.20435 3 4.44129 3.31607 3.87868 3.87868C3.31607 4.44129 3 5.20435 3 6V18C3 18.7956 3.31607 19.5587 3.87868 20.1213C4.44129 20.6839 5.20435 21 6 21H18C18.7956 21 19.5587 20.6839 20.1213 20.1213C20.6839 19.5587 21 18.7956 21 18V6C21 5.20435 20.6839 4.44129 20.1213 3.87868C19.5587 3.31607 18.7956 3 18 3ZM19 18C19 18.2652 18.8946 18.5196 18.7071 18.7071C18.5196 18.8946 18.2652 19 18 19H6C5.73478 19 5.48043 18.8946 5.29289 18.7071C5.10536 18.5196 5 18.2652 5 18V6C5 5.73478 5.10536 5.48043 5.29289 5.29289C5.48043 5.10536 5.73478 5 6 5H18C18.2652 5 18.5196 5.10536 18.7071 5.29289C18.8946 5.48043 19 5.73478 19 6V18Z" fill="white"/>
<path d="M11.6501 7.94L9.73013 9.86L6.50013 8.78C6.41718 8.75212 6.32836 8.74649 6.24256 8.76369C6.15675 8.78089 6.07696 8.82031 6.01116 8.87801C5.94536 8.93571 5.89586 9.00967 5.8676 9.0925C5.83934 9.17533 5.83332 9.26412 5.85013 9.35L7.18013 16H16.8201L18.1501 9.35C18.1669 9.26412 18.1609 9.17533 18.1327 9.0925C18.1044 9.00967 18.0549 8.93571 17.9891 8.87801C17.9233 8.82031 17.8435 8.78089 17.7577 8.76369C17.6719 8.74649 17.5831 8.75212 17.5001 8.78L14.2701 9.86L12.3501 7.94C12.3052 7.89217 12.251 7.85405 12.1908 7.82799C12.1306 7.80193 12.0657 7.78848 12.0001 7.78848C11.9345 7.78848 11.8696 7.80193 11.8094 7.82799C11.7492 7.85405 11.695 7.89217 11.6501 7.94ZM15.1801 14H8.82013L8.32013 11.49L10.2701 12.14L12.0001 10.41L13.7301 12.14L15.6801 11.49L15.1801 14Z" fill="white"/>
</svg>
