<svg width="24" height="24" viewBox="0 0 24 24" fill="none" xmlns="http://www.w3.org/2000/svg">
<path d="M17.9996 9.64001H6.61957L10.3396 5.92001C10.3864 5.87353 10.4236 5.81823 10.449 5.7573C10.4744 5.69637 10.4875 5.63101 10.4875 5.56501C10.4875 5.499 10.4744 5.43365 10.449 5.37272C10.4236 5.31179 10.3864 5.25649 10.3396 5.21001L9.62957 4.51001C9.58468 4.46218 9.53046 4.42406 9.47026 4.398C9.41006 4.37194 9.34516 4.35849 9.27957 4.35849C9.21397 4.35849 9.14907 4.37194 9.08887 4.398C9.02867 4.42406 8.97446 4.46218 8.92957 4.51001L3.14957 10.29C3.10173 10.3349 3.06361 10.3891 3.03755 10.4493C3.01149 10.5095 2.99805 10.5744 2.99805 10.64C2.99805 10.7056 3.01149 10.7705 3.03755 10.8307C3.06361 10.8909 3.10173 10.9451 3.14957 10.99L8.92957 16.77C8.97446 16.8178 9.02867 16.856 9.08887 16.882C9.14907 16.9081 9.21397 16.9215 9.27957 16.9215C9.34516 16.9215 9.41006 16.9081 9.47026 16.882C9.53046 16.856 9.58468 16.8178 9.62957 16.77L10.3396 16.07C10.3864 16.0235 10.4236 15.9682 10.449 15.9073C10.4744 15.8464 10.4875 15.781 10.4875 15.715C10.4875 15.649 10.4744 15.5836 10.449 15.5227C10.4236 15.4618 10.3864 15.4065 10.3396 15.36L6.61957 11.64H17.9996C18.2648 11.64 18.5191 11.7454 18.7067 11.9329C18.8942 12.1204 18.9996 12.3748 18.9996 12.64V19.14C18.9996 19.2726 19.0522 19.3998 19.146 19.4936C19.2398 19.5873 19.367 19.64 19.4996 19.64H20.4996C20.6322 19.64 20.7594 19.5873 20.8531 19.4936C20.9469 19.3998 20.9996 19.2726 20.9996 19.14V12.64C20.9996 11.8444 20.6835 11.0813 20.1209 10.5187C19.5583 9.95608 18.7952 9.64001 17.9996 9.64001Z" fill="white"/>
</svg>
