<svg width="24" height="24" viewBox="0 0 24 24" fill="none" xmlns="http://www.w3.org/2000/svg">
<path d="M20.3302 11.55L4.07017 4.32001C3.99493 4.28431 3.91182 4.26837 3.8287 4.27371C3.74559 4.27905 3.66521 4.30549 3.59515 4.35053C3.52509 4.39557 3.46766 4.45772 3.4283 4.53112C3.38894 4.60451 3.36893 4.68673 3.37017 4.77001V19.23C3.36988 19.3132 3.39034 19.3951 3.4297 19.4684C3.46906 19.5416 3.52607 19.6039 3.59558 19.6496C3.66508 19.6953 3.74489 19.7229 3.82776 19.73C3.91063 19.737 3.99395 19.7233 4.07017 19.69L20.3302 12.46C20.4211 12.4237 20.4991 12.3609 20.554 12.2798C20.6089 12.1987 20.6383 12.103 20.6383 12.005C20.6383 11.9071 20.6089 11.8114 20.554 11.7303C20.4991 11.6491 20.4211 11.5864 20.3302 11.55ZM5.33017 16.93V13H9.83017C9.96278 13 10.09 12.9473 10.1837 12.8536C10.2775 12.7598 10.3302 12.6326 10.3302 12.5V11.5C10.3302 11.3674 10.2775 11.2402 10.1837 11.1465C10.09 11.0527 9.96278 11 9.83017 11H5.37017V7.08001L16.4502 12L5.33017 16.93Z" fill="white"/>
</svg>
