<svg width="24" height="24" viewBox="0 0 24 24" fill="none" xmlns="http://www.w3.org/2000/svg">
<path d="M18.0002 16C17.2921 16.0047 16.6084 16.2597 16.0702 16.72L8.94024 12.56C9.02034 12.191 9.02034 11.809 8.94024 11.44L16.0702 7.27999C16.5936 7.71979 17.2515 7.96763 17.935 7.98248C18.6185 7.99733 19.2866 7.77829 19.8286 7.36164C20.3706 6.94499 20.754 6.35571 20.9154 5.69139C21.0768 5.02706 21.0064 4.32755 20.716 3.70867C20.4256 3.08979 19.9325 2.58866 19.3183 2.28828C18.7042 1.98791 18.0059 1.90628 17.3391 2.05694C16.6722 2.20759 16.0769 2.58148 15.6515 3.1167C15.2262 3.65192 14.9964 4.31635 15.0002 4.99999C14.9999 5.18827 15.02 5.37604 15.0602 5.55999L7.93024 9.71999C7.49442 9.34729 6.9609 9.10731 6.3929 9.02847C5.82489 8.94964 5.24619 9.03525 4.72534 9.27516C4.20449 9.51508 3.76331 9.89926 3.45407 10.3822C3.14482 10.8651 2.98047 11.4265 2.98047 12C2.98047 12.5734 3.14482 13.1349 3.45407 13.6178C3.76331 14.1007 4.20449 14.4849 4.72534 14.7248C5.24619 14.9647 5.82489 15.0503 6.3929 14.9715C6.9609 14.8927 7.49442 14.6527 7.93024 14.28L15.0602 18.44C15.02 18.6239 14.9999 18.8117 15.0002 19C15.0002 19.5933 15.1762 20.1733 15.5058 20.6667C15.8355 21.16 16.304 21.5446 16.8522 21.7716C17.4004 21.9987 18.0036 22.0581 18.5855 21.9423C19.1675 21.8266 19.702 21.5409 20.1216 21.1213C20.5411 20.7017 20.8268 20.1672 20.9426 19.5853C21.0584 19.0033 20.9989 18.4001 20.7719 17.8519C20.5448 17.3038 20.1603 16.8352 19.6669 16.5056C19.1736 16.1759 18.5936 16 18.0002 16ZM18.0002 3.99999C18.198 3.99999 18.3914 4.05864 18.5558 4.16852C18.7203 4.2784 18.8484 4.43458 18.9241 4.6173C18.9998 4.80003 19.0196 5.0011 18.981 5.19508C18.9424 5.38906 18.8472 5.56724 18.7073 5.70709C18.5675 5.84695 18.3893 5.94219 18.1953 5.98077C18.0013 6.01936 17.8003 5.99955 17.6176 5.92387C17.4348 5.84818 17.2786 5.72001 17.1688 5.55556C17.0589 5.39111 17.0002 5.19777 17.0002 4.99999C17.0002 4.73477 17.1056 4.48042 17.2931 4.29288C17.4807 4.10534 17.735 3.99999 18.0002 3.99999ZM6.00024 13C5.80246 13 5.60912 12.9413 5.44467 12.8315C5.28022 12.7216 5.15205 12.5654 5.07636 12.3827C5.00067 12.1999 4.98087 11.9989 5.01945 11.8049C5.05804 11.6109 5.15328 11.4327 5.29313 11.2929C5.43298 11.153 5.61117 11.0578 5.80515 11.0192C5.99913 10.9806 6.2002 11.0004 6.38292 11.0761C6.56565 11.1518 6.72183 11.28 6.83171 11.4444C6.94159 11.6089 7.00024 11.8022 7.00024 12C7.00024 12.2652 6.89488 12.5196 6.70734 12.7071C6.51981 12.8946 6.26545 13 6.00024 13ZM18.0002 20C17.8025 20 17.6091 19.9413 17.4447 19.8315C17.2802 19.7216 17.152 19.5654 17.0764 19.3827C17.0007 19.1999 16.9809 18.9989 17.0195 18.8049C17.058 18.6109 17.1533 18.4327 17.2931 18.2929C17.433 18.153 17.6112 18.0578 17.8051 18.0192C17.9991 17.9806 18.2002 18.0004 18.3829 18.0761C18.5656 18.1518 18.7218 18.28 18.8317 18.4444C18.9416 18.6089 19.0002 18.8022 19.0002 19C19.0002 19.2652 18.8949 19.5196 18.7073 19.7071C18.5198 19.8946 18.2655 20 18.0002 20Z" fill="white"/>
</svg>
