<svg width="456" height="142" viewBox="0 0 456 142" fill="none" xmlns="http://www.w3.org/2000/svg">
<g clip-path="url(#clip0_1983_7554)">
<path d="M14.6395 97.838C14.3078 97.838 13.9525 97.767 13.5735 97.625C13.1945 97.4357 13.005 97.1753 13.005 96.844C13.005 96.418 13.1708 96.0867 13.5024 95.85C13.8341 95.6133 14.2368 95.4477 14.7105 95.353C16.5108 94.9743 17.8137 94.4773 18.6191 93.862C19.4719 93.2467 19.8983 92.1817 19.8983 90.667V61.344C19.8983 59.498 19.8509 58.149 19.7561 57.297C19.6614 56.3977 19.5193 55.806 19.3298 55.522C19.1876 55.1907 18.9981 54.9777 18.7612 54.883C18.3348 54.6463 17.7663 54.528 17.0557 54.528C16.3924 54.4807 15.8476 54.457 15.4212 54.457H13.8577C12.3417 54.457 10.8967 54.8357 9.52279 55.593C8.19624 56.303 7.13027 57.2023 6.32487 58.291C6.08798 58.6223 5.73266 59.0957 5.25889 59.711C4.8325 60.279 4.35874 60.7997 3.83759 61.273C3.36383 61.699 2.89006 61.912 2.4163 61.912C2.03728 61.912 1.77671 61.7937 1.63458 61.557C1.49245 61.273 1.42139 60.9653 1.42139 60.634C1.42139 60.066 1.56352 59.4743 1.84778 58.859C2.74793 57.0603 3.4112 55.522 3.83759 54.244C4.26398 52.966 4.54824 51.4987 4.69037 49.842C4.78513 49.132 4.99832 48.6587 5.32996 48.422C5.66159 48.138 6.04061 47.996 6.467 47.996C6.79863 47.996 7.15396 48.3037 7.53297 48.919C7.91198 49.5343 8.31469 50.0313 8.74108 50.41C9.21484 50.7887 9.99656 51.0727 11.0862 51.262C12.2233 51.4513 13.1471 51.546 13.8577 51.546H40.5782C41.7626 51.546 42.7575 51.4277 43.5629 51.191C44.4157 50.9543 45.0553 50.7177 45.4816 50.481C46.2397 50.055 46.8319 49.5817 47.2583 49.061C47.732 48.5403 48.2769 48.28 48.8928 48.28C49.177 48.28 49.3665 48.3983 49.4613 48.635C49.6034 48.8243 49.6745 49.1083 49.6745 49.487C49.6745 49.6763 49.6508 49.913 49.6034 50.197C49.6034 50.481 49.5797 50.7413 49.5324 50.978C49.2955 51.8773 49.0586 52.753 48.8217 53.605C48.5848 54.4097 48.3953 55.1907 48.2532 55.948C48.111 56.7053 48.04 57.4863 48.04 58.291V59.711C48.04 60.4683 47.9452 61.0837 47.7557 61.557C47.6136 62.0303 47.3056 62.267 46.8319 62.267C46.4055 62.267 46.0502 62.054 45.7659 61.628C45.4817 61.1547 45.1737 60.421 44.8421 59.427C44.3209 57.723 43.5392 56.4687 42.4969 55.664C41.502 54.8593 39.9623 54.457 37.8777 54.457H34.1823C33.3769 54.457 32.7136 54.6463 32.1925 55.025C31.7187 55.3563 31.3634 56.0663 31.1265 57.155C30.8896 58.1963 30.7712 59.8057 30.7712 61.983V90.596C30.7712 92.016 31.1502 93.0573 31.9082 93.72C32.7136 94.3353 34.0402 94.8797 35.8879 95.353C36.3616 95.495 36.7644 95.6607 37.096 95.85C37.4276 96.0393 37.5934 96.347 37.5934 96.773C37.5934 97.1043 37.4513 97.3647 37.1671 97.554C36.8828 97.7433 36.5275 97.838 36.1011 97.838C35.0588 97.838 33.8744 97.7907 32.5478 97.696C31.2687 97.6487 29.9658 97.6013 28.6393 97.554C27.3601 97.5067 26.2467 97.483 25.2992 97.483C24.3043 97.483 23.1673 97.5067 21.8881 97.554C20.6563 97.6013 19.4008 97.6487 18.1216 97.696C16.8899 97.7907 15.7291 97.838 14.6395 97.838ZM51.0848 98.619C49.8057 98.619 48.6212 98.3113 47.5316 97.696C46.4419 97.0807 45.5654 96.276 44.9022 95.282C44.2863 94.288 43.9783 93.1993 43.9783 92.016C43.9783 90.4067 44.4758 89.0577 45.4707 87.969C46.513 86.8803 48.029 85.91 50.0188 85.058L56.3436 82.289C57.2912 81.863 57.8597 81.4843 58.0492 81.153C58.2861 80.8217 58.4045 80.2063 58.4045 79.307L58.4756 75.26C58.523 73.9347 58.2861 72.8933 57.7649 72.136C57.2438 71.3313 56.4621 70.929 55.4198 70.929C54.8039 70.929 54.188 71.071 53.5721 71.355C52.9562 71.5917 52.4824 71.8757 52.1508 72.207C52.0087 72.3963 51.8902 72.633 51.7955 72.917C51.7481 73.1537 51.7244 73.414 51.7244 73.698C51.7244 73.982 51.7481 74.337 51.7955 74.763C51.8428 75.1417 51.8665 75.473 51.8665 75.757C51.8665 76.041 51.4875 76.4197 50.7295 76.893C49.9715 77.319 49.095 77.7213 48.1001 78.1C47.1052 78.4313 46.2524 78.597 45.5418 78.597C45.2101 78.597 44.9022 78.455 44.6179 78.171C44.381 77.887 44.2623 77.532 44.2623 77.106C44.2623 76.3487 44.5232 75.615 45.0443 74.905C45.5654 74.1477 46.4182 73.2957 47.6026 72.349C48.8344 71.3077 50.1847 70.3847 51.6533 69.58C53.122 68.7753 54.567 68.1363 55.9883 67.663C57.457 67.1897 58.6888 66.953 59.6834 66.953C62.242 66.953 64.2792 67.7813 65.7953 69.438C67.3113 71.0473 68.022 73.201 67.9272 75.899L67.5719 90.241C67.5245 91.3297 67.714 92.2527 68.1404 93.01C68.5668 93.7673 69.0879 94.146 69.7038 94.146C70.604 94.146 71.3857 93.8383 72.049 93.223C72.1911 93.081 72.3332 93.01 72.4754 93.01C72.7122 93.01 72.9018 93.081 73.0439 93.223C73.2334 93.365 73.3281 93.5543 73.3281 93.791C73.3281 94.359 72.9018 95.0927 72.049 95.992C71.1488 96.844 70.2013 97.483 69.2064 97.909C68.2115 98.3823 67.1692 98.619 66.0795 98.619C63.4264 98.619 61.2234 97.27 59.4705 94.572H59.3284C57.7649 95.992 56.3436 97.0097 55.0645 97.625C53.8327 98.2877 52.5061 98.619 51.0848 98.619ZM55.3487 94.004C55.8699 94.004 56.2963 93.933 56.6279 93.791C56.9595 93.6017 57.2912 93.3177 57.6228 92.939C57.7649 92.7497 57.8834 92.513 57.9781 92.229C58.0729 91.8977 58.1203 91.519 58.1203 91.093L58.3334 85.981C58.3334 85.5077 58.2624 85.2 58.1203 85.058C57.9781 84.916 57.8123 84.845 57.6228 84.845C57.528 84.845 57.4096 84.8687 57.2675 84.916C57.1253 84.9633 56.9595 85.0343 56.77 85.129C55.3961 85.7917 54.3775 86.478 53.7142 87.188C53.051 87.8507 52.7193 88.9393 52.7193 90.454C52.7193 91.8267 53.0036 92.7733 53.5721 93.294C54.1406 93.7673 54.7328 94.004 55.3487 94.004ZM92.6205 98.619C91.2466 98.619 89.9674 98.5007 88.783 98.264C87.646 98.0273 86.6037 97.7907 85.6561 97.554C84.9455 97.3173 84.2822 97.128 83.6663 96.986C83.0978 96.844 82.624 96.773 82.245 96.773C81.7713 96.773 81.3212 96.8677 80.8948 97.057C80.4684 97.199 80.0657 97.412 79.6867 97.696C79.2603 98.0273 78.9287 98.193 78.6918 98.193C78.2654 98.193 77.9338 98.0983 77.6969 97.909C77.5074 97.7197 77.4126 97.5067 77.4126 97.27C77.4126 96.844 77.5311 96.0157 77.7679 94.785C78.0522 93.5543 78.1706 92.016 78.1233 90.17L77.839 58.575C77.839 57.3443 77.6495 56.2557 77.2705 55.309C76.9388 54.315 76.2045 53.6997 75.0675 53.463C74.8306 53.4157 74.6174 53.2973 74.4279 53.108C74.2858 52.9187 74.2147 52.6583 74.2147 52.327C74.2147 52.0903 74.2858 51.8773 74.4279 51.688C74.57 51.4987 74.7595 51.3803 74.9964 51.333C76.0387 51.1437 77.2468 50.836 78.6207 50.41C79.9946 49.9367 81.3212 49.4633 82.6003 48.99C83.9269 48.4693 84.9455 48.0907 85.6561 47.854C86.1299 47.6647 86.4615 47.57 86.651 47.57C86.9353 47.57 87.1248 47.6647 87.2196 47.854C87.3617 47.996 87.4328 48.1853 87.4328 48.422C87.4328 48.706 87.3617 49.2977 87.2196 50.197C87.1248 51.0963 87.0774 51.9957 87.0774 52.895V68.089C87.0774 68.7043 87.1248 69.2013 87.2196 69.58C87.3143 69.9113 87.4801 70.077 87.717 70.077C89.1857 69.083 90.7018 68.3257 92.2652 67.805C93.876 67.237 95.392 66.953 96.8133 66.953C99.2769 66.953 101.504 67.592 103.493 68.87C105.483 70.148 107.047 71.8993 108.184 74.124C109.368 76.3487 109.96 78.8573 109.96 81.65C109.96 84.9633 109.226 87.9217 107.757 90.525C106.289 93.081 104.251 95.069 101.646 96.489C99.0874 97.909 96.079 98.619 92.6205 98.619ZM93.8997 95.637C95.1788 95.637 96.2685 95.0927 97.1687 94.004C98.0688 92.868 98.7558 91.377 99.2295 89.531C99.7507 87.685 100.011 85.6733 100.011 83.496C100.011 81.6027 99.7507 79.6857 99.2295 77.745C98.7558 75.8043 97.9741 74.195 96.8844 72.917C95.8421 71.5917 94.4919 70.929 92.8337 70.929C91.9809 70.929 90.986 71.071 89.849 71.355C88.7119 71.5917 87.7881 71.994 87.0774 72.562V87.685C87.0774 89.1997 87.3854 90.5723 88.0013 91.803C88.6646 93.0337 89.5173 93.9803 90.5596 94.643C91.6019 95.3057 92.7153 95.637 93.8997 95.637ZM113.111 97.838C112.685 97.838 112.33 97.767 112.046 97.625C111.809 97.4357 111.69 97.1753 111.69 96.844C111.69 96.4653 111.832 96.1814 112.117 95.992C112.401 95.7553 112.804 95.566 113.325 95.424C114.035 95.1873 114.651 94.927 115.172 94.643C115.741 94.359 116.025 93.72 116.025 92.726V58.575C116.025 57.297 115.836 56.1847 115.457 55.238C115.125 54.2913 114.367 53.6997 113.183 53.463C112.709 53.3683 112.472 53.0133 112.472 52.398C112.472 51.7827 112.685 51.4277 113.111 51.333C114.343 51.0963 115.67 50.765 117.091 50.339C118.512 49.8657 119.863 49.3923 121.142 48.919C122.421 48.3983 123.416 48.0197 124.127 47.783C124.506 47.641 124.814 47.57 125.05 47.57C125.335 47.57 125.524 47.6647 125.619 47.854C125.714 47.996 125.761 48.1853 125.761 48.422C125.761 48.7533 125.69 49.3687 125.548 50.268C125.453 51.1673 125.382 52.185 125.335 53.321V92.584C125.335 93.6253 125.595 94.288 126.116 94.572C126.685 94.8087 127.324 95.0453 128.035 95.282C128.556 95.4713 128.959 95.6607 129.243 95.85C129.527 96.0393 129.67 96.3233 129.67 96.702C129.67 97.0333 129.527 97.2937 129.243 97.483C129.006 97.625 128.675 97.696 128.248 97.696C127.348 97.696 126.448 97.6723 125.548 97.625C124.695 97.5777 123.842 97.554 122.99 97.554C122.184 97.5067 121.355 97.483 120.502 97.483C119.697 97.483 118.891 97.5067 118.086 97.554C117.328 97.6013 116.546 97.6487 115.741 97.696C114.935 97.7907 114.059 97.838 113.111 97.838ZM144.633 98.619C142.075 98.619 139.777 97.9563 137.74 96.631C135.75 95.2583 134.163 93.4123 132.978 91.093C131.841 88.7263 131.273 86.052 131.273 83.07C131.273 80.088 131.96 77.39 133.334 74.976C134.708 72.5147 136.579 70.574 138.948 69.154C141.317 67.6867 143.922 66.953 146.765 66.953C148.802 66.953 150.626 67.4027 152.237 68.302C153.848 69.154 155.127 70.3137 156.074 71.781C157.069 73.2483 157.567 74.905 157.567 76.751C157.567 78.5497 156.832 79.449 155.364 79.449H141.151C140.487 79.449 139.99 79.6383 139.658 80.017C139.374 80.3957 139.232 81.0347 139.232 81.934C139.232 83.7327 139.635 85.3893 140.44 86.904C141.245 88.3713 142.335 89.531 143.709 90.383C145.083 91.235 146.67 91.661 148.47 91.661C149.844 91.661 151.1 91.4007 152.237 90.88C153.421 90.3593 154.582 89.6493 155.719 88.75C155.909 88.608 156.074 88.4897 156.217 88.395C156.406 88.253 156.572 88.182 156.714 88.182C157.188 88.182 157.425 88.4897 157.425 89.105C157.425 89.6257 157.235 90.3357 156.856 91.235C156.382 92.4183 155.577 93.6017 154.44 94.785C153.35 95.921 151.976 96.844 150.318 97.554C148.66 98.264 146.765 98.619 144.633 98.619ZM141.151 76.467H145.415C146.741 76.467 147.665 76.4433 148.186 76.396C148.707 76.3487 149.181 76.254 149.607 76.112C149.844 76.0173 150.034 75.7807 150.176 75.402C150.318 75.0233 150.389 74.5973 150.389 74.124C150.389 72.846 149.939 71.8047 149.039 71C148.186 70.1953 147.12 69.793 145.841 69.793C144.846 69.793 143.899 70.077 142.998 70.645C142.146 71.1657 141.435 71.8757 140.866 72.775C140.345 73.627 140.108 74.5263 140.156 75.473C140.156 76.1357 140.487 76.467 141.151 76.467ZM205.109 99.116C202.692 99.116 200.655 98.8083 198.997 98.193C197.339 97.625 195.918 96.8677 194.733 95.921C193.596 94.927 192.577 93.8147 191.677 92.584C190.635 91.2113 189.616 89.8387 188.622 88.466C187.674 87.0933 186.726 85.6023 185.779 83.993C184.831 82.3837 183.837 80.5377 182.794 78.455C182.32 77.4137 181.681 76.68 180.875 76.254C180.449 75.97 180.023 75.7807 179.596 75.686C179.17 75.5913 178.791 75.544 178.459 75.544C178.222 75.544 178.033 75.686 177.891 75.97C177.749 76.2067 177.678 76.538 177.678 76.964V90.525C177.678 91.9923 178.08 93.0573 178.886 93.72C179.691 94.3827 181.089 94.927 183.078 95.353C183.6 95.4477 183.979 95.6133 184.216 95.85C184.5 96.0393 184.642 96.347 184.642 96.773C184.642 97.1043 184.523 97.3647 184.287 97.554C184.05 97.7433 183.718 97.838 183.292 97.838C182.249 97.838 181.041 97.7907 179.667 97.696C178.341 97.6487 177.014 97.6013 175.688 97.554C174.361 97.5067 173.224 97.483 172.277 97.483C171.282 97.483 170.192 97.5067 169.008 97.554C167.823 97.6013 166.591 97.6487 165.312 97.696C164.08 97.7907 162.943 97.838 161.901 97.838C161.522 97.838 161.19 97.767 160.906 97.625C160.622 97.4357 160.48 97.1753 160.48 96.844C160.48 96.0867 160.977 95.5897 161.972 95.353C163.772 94.9743 165.004 94.501 165.668 93.933C166.378 93.3177 166.734 92.229 166.734 90.667V58.788C166.734 57.652 166.615 56.7527 166.378 56.09C166.189 55.4273 165.786 54.9303 165.17 54.599C164.554 54.2203 163.654 53.9127 162.47 53.676C161.854 53.534 161.427 53.3447 161.19 53.108C160.954 52.824 160.835 52.5163 160.835 52.185C160.835 51.901 160.977 51.6643 161.262 51.475C161.546 51.2383 161.925 51.12 162.399 51.12C163.915 51.12 165.146 51.1673 166.094 51.262C167.089 51.3567 168.013 51.4513 168.865 51.546C169.766 51.5933 170.808 51.617 171.992 51.617C173.082 51.617 174.03 51.5697 174.835 51.475C175.688 51.333 176.635 51.2147 177.678 51.12C178.767 51.0253 180.141 50.978 181.799 50.978C187.342 50.978 191.606 51.9247 194.591 53.818C197.576 55.7113 199.068 58.575 199.068 62.409C199.068 64.539 198.594 66.3377 197.647 67.805C196.747 69.225 195.586 70.4083 194.165 71.355C192.791 72.2543 191.393 72.9407 189.972 73.414C189.782 73.4613 189.688 73.5797 189.688 73.769C189.735 73.911 189.806 74.0767 189.901 74.266C191.322 76.3487 192.696 78.384 194.022 80.372C195.396 82.3127 196.794 84.135 198.215 85.839C199.637 87.4957 201.105 89.034 202.621 90.454C204.232 91.9687 205.867 92.868 207.525 93.152C209.23 93.3887 210.912 93.507 212.57 93.507C213.281 93.507 213.636 93.933 213.636 94.785C213.636 95.8263 213.257 96.6783 212.499 97.341C211.789 97.9563 210.794 98.406 209.515 98.69C208.235 98.974 206.767 99.116 205.109 99.116ZM180.378 73.272C182.178 73.272 183.671 72.8697 184.855 72.065C186.04 71.2603 186.94 70.1717 187.556 68.799C188.171 67.379 188.479 65.7697 188.479 63.971C188.479 61.7937 188.195 59.9713 187.627 58.504C187.058 57.0367 186.205 55.948 185.068 55.238C183.931 54.4807 182.463 54.102 180.662 54.102C179.62 54.102 178.862 54.528 178.388 55.38C177.962 56.1847 177.749 57.936 177.749 60.634C177.701 61.7227 177.678 63.0953 177.678 64.752C177.678 66.4087 177.678 68.373 177.678 70.645C177.678 71.5917 177.914 72.278 178.388 72.704C178.909 73.0827 179.573 73.272 180.378 73.272ZM215.894 97.838C215.609 97.838 215.349 97.767 215.112 97.625C214.875 97.4357 214.757 97.199 214.757 96.915C214.757 96.5363 214.875 96.2287 215.112 95.992C215.349 95.7553 215.657 95.5897 216.036 95.495C217.267 95.211 218.12 94.9033 218.594 94.572C219.115 94.1933 219.376 93.6253 219.376 92.868V77.532C219.376 75.9227 219.115 74.7867 218.594 74.124C218.12 73.414 217.362 72.988 216.32 72.846C216.036 72.7987 215.823 72.6567 215.68 72.42C215.538 72.1833 215.467 71.8993 215.467 71.568C215.467 70.858 215.728 70.4557 216.249 70.361C218.712 69.8877 220.892 69.225 222.787 68.373C224.729 67.521 226.222 66.8583 227.264 66.385C228.022 66.0063 228.496 65.817 228.685 65.817C229.301 65.817 229.609 66.101 229.609 66.669C229.562 67.4737 229.443 68.4913 229.254 69.722C229.112 70.9053 228.97 72.136 228.827 73.414C228.733 74.692 228.685 75.9227 228.685 77.106V92.797C228.685 93.4597 228.922 93.9803 229.396 94.359C229.917 94.7377 230.817 95.1163 232.096 95.495C232.475 95.637 232.783 95.8027 233.02 95.992C233.257 96.1814 233.376 96.4653 233.376 96.844C233.376 97.4593 233.02 97.767 232.31 97.767C231.409 97.767 230.462 97.7433 229.467 97.696C228.472 97.6487 227.501 97.6013 226.553 97.554C225.653 97.5067 224.777 97.483 223.924 97.483C223.119 97.483 222.266 97.5067 221.366 97.554C220.513 97.6013 219.613 97.6487 218.665 97.696C217.765 97.7907 216.841 97.838 215.894 97.838ZM223.711 62.622C222.242 62.622 220.939 62.0777 219.802 60.989C218.712 59.9003 218.168 58.5987 218.168 57.084C218.168 55.4747 218.712 54.1257 219.802 53.037C220.939 51.9483 222.242 51.404 223.711 51.404C225.369 51.404 226.743 51.9483 227.832 53.037C228.922 54.1257 229.467 55.4747 229.467 57.084C229.467 58.5987 228.922 59.9003 227.832 60.989C226.743 62.0777 225.369 62.622 223.711 62.622ZM245.949 98.619C244.385 98.619 242.869 98.4297 241.401 98.051C239.932 97.6723 238.605 97.057 237.421 96.205C236.995 95.495 236.687 94.3827 236.497 92.868C236.308 91.3533 236.237 89.7677 236.284 88.111C236.284 87.543 236.758 87.259 237.705 87.259C238.084 87.259 238.416 87.3773 238.7 87.614C238.984 87.8507 239.15 88.0873 239.198 88.324C240.098 90.312 241.14 92.016 242.324 93.436C243.509 94.8087 244.93 95.495 246.588 95.495C247.867 95.495 248.839 95.1163 249.502 94.359C250.165 93.5543 250.497 92.655 250.497 91.661C250.497 90.4303 249.999 89.4127 249.005 88.608C248.057 87.756 246.896 86.975 245.522 86.265C244.148 85.555 242.846 84.7503 241.614 83.851C240.382 82.9517 239.363 81.8867 238.558 80.656C237.8 79.378 237.421 77.8633 237.421 76.112C237.421 74.266 237.918 72.6567 238.913 71.284C239.956 69.9113 241.329 68.8463 243.035 68.089C244.788 67.2843 246.73 66.882 248.862 66.882C250.426 66.882 251.871 67.0713 253.197 67.45C254.524 67.7813 255.424 68.1127 255.898 68.444C256.277 68.9173 256.585 69.8167 256.822 71.142C257.059 72.42 257.177 73.84 257.177 75.402C257.177 75.9227 256.751 76.183 255.898 76.183C255.566 76.183 255.211 76.0647 254.832 75.828C254.5 75.5913 254.287 75.3547 254.192 75.118C253.576 73.272 252.771 71.8993 251.776 71C250.829 70.0533 249.763 69.58 248.578 69.58C247.536 69.58 246.588 69.9113 245.736 70.574C244.883 71.2367 244.456 72.136 244.456 73.272C244.456 74.266 244.906 75.1653 245.807 75.97C246.754 76.7273 247.915 77.4847 249.289 78.242C252.368 79.8513 254.571 81.4133 255.898 82.928C257.224 84.3953 257.888 86.3597 257.888 88.821C257.888 91.8977 256.869 94.3117 254.832 96.063C252.842 97.767 249.881 98.619 245.949 98.619ZM274.826 98.619C272.268 98.619 269.97 97.9563 267.933 96.631C265.943 95.2583 264.356 93.4123 263.171 91.093C262.034 88.7263 261.466 86.052 261.466 83.07C261.466 80.088 262.153 77.39 263.527 74.976C264.901 72.5147 266.772 70.574 269.141 69.154C271.51 67.6867 274.115 66.953 276.958 66.953C278.995 66.953 280.819 67.4027 282.43 68.302C284.041 69.154 285.32 70.3137 286.267 71.781C287.262 73.2483 287.76 74.905 287.76 76.751C287.76 78.5497 287.025 79.449 285.557 79.449H271.344C270.681 79.449 270.183 79.6383 269.851 80.017C269.567 80.3957 269.425 81.0347 269.425 81.934C269.425 83.7327 269.828 85.3893 270.633 86.904C271.439 88.3713 272.528 89.531 273.902 90.383C275.276 91.235 276.863 91.661 278.663 91.661C280.037 91.661 281.293 91.4007 282.43 90.88C283.614 90.3593 284.775 89.6493 285.912 88.75C286.102 88.608 286.267 88.4897 286.41 88.395C286.599 88.253 286.765 88.182 286.907 88.182C287.381 88.182 287.618 88.4897 287.618 89.105C287.618 89.6257 287.428 90.3357 287.049 91.235C286.575 92.4183 285.77 93.6017 284.633 94.785C283.543 95.921 282.169 96.844 280.511 97.554C278.853 98.264 276.958 98.619 274.826 98.619ZM271.344 76.467H275.608C276.934 76.467 277.858 76.4433 278.379 76.396C278.9 76.3487 279.374 76.254 279.801 76.112C280.037 76.0173 280.227 75.7807 280.369 75.402C280.511 75.0233 280.582 74.5973 280.582 74.124C280.582 72.846 280.132 71.8047 279.232 71C278.379 70.1953 277.313 69.793 276.034 69.793C275.039 69.793 274.092 70.077 273.191 70.645C272.339 71.1657 271.628 71.8757 271.06 72.775C270.538 73.627 270.301 74.5263 270.349 75.473C270.349 76.1357 270.681 76.467 271.344 76.467Z" fill="#EFF3FB"/>
<mask id="mask0_1983_7554" style="mask-type:luminance" maskUnits="userSpaceOnUse" x="313" y="0" width="143" height="142">
<path d="M456 0H313.87V142H456V0Z" fill="white"/>
</mask>
<g mask="url(#mask0_1983_7554)">
<path d="M336.238 49.5355C338.852 42.3941 343.022 35.9866 348.343 30.7223C353.545 25.5649 359.849 21.5023 366.879 18.9016C366.879 19.7901 366.947 20.6798 367.086 21.5751C360.693 24.0535 354.946 27.812 350.176 32.5417C345.462 37.2108 341.698 42.8204 339.196 49.0625C338.506 49.1912 337.822 49.3095 337.129 49.4124C336.851 49.4533 336.543 49.4944 336.238 49.5355ZM364.258 114.209C358.277 111.617 352.891 107.946 348.343 103.437C338.947 94.135 333.138 81.2811 333.138 67.079C333.138 63.6755 333.472 60.3485 334.109 57.1352C334.888 57.5925 335.74 57.9884 336.528 58.2919C336.004 61.1408 335.735 64.0816 335.735 67.079C335.735 80.5661 341.251 92.7778 350.176 101.622C354.38 105.786 359.349 109.206 364.844 111.653C364.85 112.126 364.818 112.671 364.699 113.052L364.258 114.209ZM436.534 60.5337C436.81 62.6782 436.955 64.8632 436.955 67.079C436.955 81.2811 431.142 94.135 421.75 103.437C417.199 107.946 411.81 111.617 405.831 114.209L405.39 113.052C405.272 112.671 405.239 112.126 405.245 111.653C410.746 109.206 415.709 105.786 419.914 101.622C428.838 92.7778 434.361 80.5661 434.361 67.079C434.361 64.7141 434.189 62.3901 433.86 60.1175L436.534 60.5337ZM385.048 15.6614C399.379 15.6614 412.354 21.4156 421.75 30.7223C428.018 36.933 432.694 44.7226 435.107 53.4435C433.985 52.7648 432.937 52.2095 431.879 51.7466C429.434 44.4241 425.291 37.8693 419.914 32.5417C410.989 23.6986 398.662 18.2332 385.048 18.2332C383.718 18.2332 382.403 18.2842 381.101 18.3873C381.035 18.3102 380.967 18.2332 380.893 18.1549C380.283 17.4713 379.866 16.7259 379.629 15.9393C381.409 15.7537 383.215 15.6614 385.048 15.6614Z" fill="#EFF3FB"/>
<path fill-rule="evenodd" clip-rule="evenodd" d="M343.256 83.3531C343.137 83.065 343.022 82.7721 342.909 82.4792C343.33 82.6227 343.667 82.7925 343.436 83.0703C343.35 83.1732 343.291 83.2709 343.256 83.3531ZM422.01 85.0447C421.812 84.9935 421.617 84.9621 421.436 84.9521C420.382 84.9059 419.431 84.8133 418.958 84.0678C418.481 83.3274 421.389 83.6513 420.983 83.209C420.616 82.8132 421.969 82.7514 422.588 82.2476C422.694 82.3709 423.396 82.2372 423.189 82.6952C422.934 83.2297 422.141 82.6434 422.357 83.096C422.57 83.5483 422.416 83.2144 421.96 83.5637C421.507 83.9187 422.686 83.4815 422.446 84.032C422.41 84.1089 422.674 84.4536 422.928 84.4018C423.346 84.3196 423.429 84.8388 422.286 84.8905C422.01 84.9059 422.01 84.9574 422.01 85.0447ZM426.547 84.0471C426.455 84.258 426.366 84.4687 426.268 84.6846C426.141 84.6077 426.037 84.5098 425.957 84.3764C425.815 84.1501 426.185 84.0829 426.547 84.0471ZM402.897 33.1688C402.793 32.8251 402.391 31.8527 401.156 31.5296C399.643 31.1388 398.926 32.1621 398.926 32.1621C398.926 32.1621 397.386 31.766 396.3 32.3216C395.595 32.6751 395.367 32.9887 395.293 33.1688H402.897ZM356.953 37.8903C357.516 36.9688 359.239 36.61 360.048 37.5451C360.074 36.5425 361.783 35.9455 362.751 36.5934C362.985 34.8151 367.631 34.0847 367.773 37.8903H356.953ZM344.171 47.9105C345.139 45.8435 346.261 43.87 347.523 41.9873H365.395C365.129 41.5871 364.599 40.9995 363.666 40.8362C362.203 40.5789 361.673 41.1495 361.673 41.1495C361.673 41.1495 361.413 40.352 360.379 40.0907C359.349 39.828 358.84 40.5019 358.84 40.5019C358.798 38.2285 355.423 38.0276 354.67 38.908C354.354 37.391 353.59 36.336 352.639 35.6884C356.761 31.4622 361.721 28.0377 367.249 25.6833C367.803 27.4106 368.617 29.0871 369.689 30.6507C369.961 31.0563 370.243 31.4565 370.497 31.8692C370.882 32.4908 371.338 33.0505 371.85 33.5649C371.785 33.7561 371.726 33.946 371.682 34.1468C370.773 34.8 369.952 35.7559 369.221 36.8617C367.761 38.6977 366.63 41.0877 365.804 43.1079C363.355 43.3857 360.841 44.1987 358.709 45.1353C356.643 46.0346 355.269 46.2242 353.083 46.3633C350.184 46.5491 347.745 46.9135 344.929 47.7002C344.677 47.7715 344.422 47.8445 344.171 47.9105ZM361.066 87.2711C361.054 87.2043 360.983 87.1324 360.797 87.0395C359.944 86.6179 360.542 86.0987 359.53 85.9342C358.819 85.8162 360.646 85.0189 360.116 84.9317C359.58 84.8494 360.433 84.34 359.826 84.3092C357.744 84.1912 358.683 82.1553 358.304 81.7077C358.008 81.353 358.153 79.2703 357.91 79.6457C357.634 80.0673 357.593 78.6434 357.475 77.9441C357.178 76.1957 357.267 79.8978 357.063 79.6203C356.799 79.2499 357.063 81.3272 356.788 81.6822C356.512 82.0369 356.785 82.5251 356.539 82.9469C356.296 83.3685 356.263 84.3607 355.656 84.3918C355.049 84.4276 355.47 85.1376 354.768 85.4816C354.072 85.8263 356.195 85.6204 355.585 85.955C354.972 86.2943 355.236 86.8342 354.457 87.1013C353.679 87.3741 355.058 87.7495 354.848 88.0885C354.635 88.4228 355.953 88.0885 355.63 88.7263C355.313 89.3689 354.271 88.6698 354.555 89.2147C354.789 89.6467 354.697 89.4765 354.348 89.6106C353.767 89.1014 353.208 88.3559 353.726 88.2687C354.368 88.1551 352.325 87.1167 351.934 86.2786C351.547 85.4405 353.492 86.8084 353.338 86.2117C353.181 85.6156 354.069 86.299 354.768 86.299C355.47 86.299 354.41 85.5949 353.88 85.1062C353.353 84.6228 354.629 84.6024 353.471 84.2941C352.313 83.98 351.168 82.6591 352.574 83.1011C353.981 83.5433 352.388 81.8875 353.637 81.7281C354.89 81.574 353.374 80.7566 352.325 80.7152C351.277 80.669 350.335 80.5817 349.865 79.8773C349.391 79.1674 352.284 79.4762 351.878 79.0597C351.473 78.6381 353.169 78.6177 353.637 77.9745C354.111 77.3373 351.671 77.9541 352.017 77.2495C352.361 76.5404 350.439 78.021 349.989 77.1829C349.53 76.3448 351.671 76.5661 351.369 76.1238C351.067 75.6815 352.838 75.1517 351.81 74.797C350.777 74.4423 351.401 74.0926 350.575 73.6504C349.755 73.2084 351.748 72.3907 351.058 72.2777C350.362 72.17 351.484 71.5065 350.685 71.4603C349.891 71.4189 349.299 70.9973 348.956 70.4474C348.612 69.8968 349.13 68.5242 348.748 68.0615C348.363 67.5988 348.591 64.8839 348.266 65.3673C347.89 65.9173 347.866 64.0609 347.724 63.1512C347.366 60.863 347.413 65.6966 347.158 65.3366C346.818 64.8478 347.135 67.568 346.764 68.0307C346.397 68.4934 346.847 69.3111 346.522 69.861C346.199 70.4163 346.039 71.5272 345.245 71.5733C344.449 71.6144 344.985 72.5502 344.067 72.9975C343.146 73.4498 345.929 73.1773 345.118 73.6146C344.316 74.0565 344.653 74.7612 343.629 75.1106C342.613 75.4659 344.408 75.9593 344.123 76.4013C343.836 76.8383 345.565 76.4016 345.139 77.2394C344.715 78.0775 343.359 77.1625 343.729 77.8719C344.091 78.5763 343.821 78.0571 343.048 78.607C342.281 79.1573 344.283 78.4733 343.877 79.3375C343.821 79.4608 344.268 79.9954 344.698 79.9182C345.405 79.7898 345.55 80.6024 343.608 80.6844C342.628 80.7255 343.67 81.019 342.581 81.5793C340.911 76.9208 340.001 71.9076 340.001 66.6782C340.001 64.7449 340.126 62.8424 340.366 60.9763C342.98 61.3156 345.648 61.084 348.23 60.3745C348.654 60.2615 349.086 60.1382 349.521 60.0406C351.582 61.8759 354.223 61.6602 356.841 61.1508C358.532 60.8221 360.054 60.8423 361.682 60.9914C361.611 61.0996 361.537 61.2073 361.466 61.3052C359.414 64.0044 358.455 66.7861 358.979 70.1592C359.497 73.5116 361.253 76.535 361.682 79.9285C362.017 82.5047 361.626 84.8234 361.066 87.2711ZM360.261 90.7158C360.255 90.7007 360.246 90.6853 360.225 90.6593C359.683 90.1093 359.343 89.5079 360.234 89.6209C360.779 89.6931 360.042 88.7674 360.06 89.0503C360.068 89.3073 359.577 88.7621 359.343 88.6849C358.798 88.5104 360.625 88.2122 360.391 87.8728C360.225 87.6311 360.942 87.5282 361.049 87.3276C360.963 87.7084 360.874 88.0938 360.779 88.4793C360.604 89.1994 360.427 89.9449 360.261 90.7158ZM360.137 91.2817C359.778 91.1942 359.47 91.04 359.275 90.7469C358.946 90.2691 360.184 90.8137 360.255 90.7264C360.219 90.9113 360.178 91.0965 360.137 91.2817ZM429.762 61.2795C429.979 63.0483 430.088 64.8532 430.088 66.6782C430.088 72.283 429.043 77.6409 427.145 82.5816C426.884 82.6434 426.227 83.0496 426.029 82.6538C425.762 82.1192 427.015 82.263 426.84 81.9804C426.665 81.6973 427.702 81.3583 427.097 81.1317C426.496 80.9054 426.861 80.6844 426.375 80.4019C425.892 80.1191 427.062 79.5996 426.656 79.5277C426.254 79.4555 426.905 79.0339 426.437 79.0032C425.972 78.9774 425.623 78.71 425.427 78.3553C425.223 78.0053 425.531 77.1314 425.3 76.8332C425.078 76.5404 425.208 74.8023 425.022 75.1159C424.803 75.4659 424.788 74.2778 424.699 73.6968C424.492 72.2366 424.524 75.3271 424.373 75.0955C424.169 74.7819 424.356 76.5199 424.139 76.8128C423.92 77.111 424.193 77.6302 424 77.9852C423.808 78.3346 423.713 79.0493 423.245 79.0751C422.783 79.1008 423.097 79.6975 422.555 79.985C422.016 80.2732 423.651 80.0983 423.177 80.3815C422.7 80.6637 422.899 81.1113 422.301 81.3376C422.005 81.4453 422.114 81.584 422.286 81.7231C421.714 81.6973 420.915 81.7488 421.122 81.3065C421.466 80.561 419.535 82.1192 419.082 81.2346C418.626 80.3501 420.776 80.5817 420.474 80.1191C420.169 79.6561 421.948 79.0958 420.909 78.7254C419.878 78.3553 420.5 77.9799 419.674 77.5172C418.845 77.0545 420.853 76.1904 420.157 76.0774C419.461 75.9593 420.583 75.2597 419.784 75.2135C418.984 75.1677 418.389 74.7301 418.046 74.1494C417.696 73.5684 418.22 72.1236 417.838 71.6348C417.447 71.1464 417.675 68.2931 417.35 68.8019C416.977 69.383 416.95 67.4237 416.805 66.4675C416.447 64.0609 416.494 69.1516 416.239 68.7659C415.89 68.2567 416.213 71.1157 415.84 71.6041C415.469 72.0922 415.928 72.951 415.6 73.532C415.274 74.113 415.108 75.2857 414.312 75.3319C413.512 75.3783 414.054 76.3605 413.124 76.8332C412.201 77.3063 415.005 77.0184 414.187 77.4811C413.373 77.9491 413.717 78.6846 412.689 79.0597C411.665 79.4298 413.471 79.9439 413.181 80.4119C412.896 80.8749 414.634 80.4119 414.208 81.2965C413.779 82.1757 412.417 81.2142 412.787 81.9597C413.154 82.7052 412.879 82.1553 412.106 82.736C411.327 83.312 413.343 82.5973 412.938 83.5022C412.879 83.6306 413.332 84.1965 413.761 84.114C414.475 83.9752 414.62 84.834 412.668 84.921C411.614 84.9675 412.879 85.3174 411.38 85.9907C409.876 86.6641 413.092 86.6848 412.497 87.4306C411.898 88.1711 412.781 88.3613 411.629 88.6849C410.483 89.0091 411.765 89.0349 411.244 89.5437C410.726 90.0579 411.505 90.0783 412.221 90.1966C412.941 90.3099 411.94 90.8705 411.801 91.4974C411.665 92.1249 413.092 90.7776 412.73 91.6568C412.366 92.5414 410.735 92.0323 411.511 92.8653C412.248 93.6676 411.262 94.13 410.607 94.5569C410.297 92.2485 409.719 90.0783 409.174 87.7595C409.056 87.2504 408.94 86.7466 408.837 86.2378C408.499 84.577 408.215 82.2937 408.333 80.6178C408.603 76.9309 410.554 73.7486 411.111 70.1592C411.599 67.0335 410.803 64.4109 409.056 61.8913C411.395 62.0714 413.752 62.0407 416.076 61.6238C419.665 60.9763 423.417 60.8991 427.05 61.089C427.953 61.1354 428.859 61.1975 429.762 61.2795ZM385.048 22.0634C394.837 22.0634 403.895 25.1578 411.283 30.4128C410.403 31.1225 409.713 32.1923 409.402 33.6626C408.588 32.7067 404.922 32.928 404.881 35.3953C404.881 35.3953 404.33 34.6666 403.211 34.9486C402.089 35.232 401.804 36.0955 401.804 36.0955C401.804 36.0955 401.227 35.4725 399.643 35.7559C398.627 35.936 398.05 36.5727 397.765 37.0046H418.679C422.155 40.8717 424.963 45.3403 426.926 50.2349C425.727 49.9932 424.418 49.8032 422.914 49.6385C422.016 49.5408 421.101 49.4379 420.204 49.2888C420.101 49.2734 419.982 49.253 419.858 49.2326C419.354 48.5072 418.658 48.0345 417.708 47.6945C416.571 47.2943 415.283 47.3244 414.09 47.3301C411.152 47.3508 408.618 47.1913 405.976 45.7305C404.549 44.9344 403.403 43.7407 402.405 42.4396C402.163 42.0903 401.929 41.7409 401.704 41.3959C401.363 40.8815 401.026 40.3685 400.649 39.9049C399.897 38.7787 399.068 37.6838 397.662 37.3401C397.244 37.2424 396.845 37.2055 396.466 37.2368C396.193 36.6348 395.941 36.0239 395.713 35.416C394.976 33.4729 394.422 31.9296 393.167 30.4087C392.809 29.8434 392.382 29.2974 391.837 28.7419C391.358 28.2591 390.949 27.7861 390.535 27.2456C389.318 25.6571 387.985 24.5886 386.416 23.3797C385.847 22.9367 385.302 22.5008 384.778 22.0634C384.864 22.0634 384.953 22.0634 385.048 22.0634Z" fill="#EFF3FB"/>
<path fill-rule="evenodd" clip-rule="evenodd" d="M420.713 108.615C420.713 112.759 419.68 115.227 417.5 116.116C419.68 117.006 420.713 119.474 420.713 123.618C420.713 119.474 421.75 117.006 423.932 116.116C421.75 115.227 420.713 112.759 420.713 108.615Z" fill="#EFF3FB"/>
<path fill-rule="evenodd" clip-rule="evenodd" d="M427.518 102.275C427.518 104.697 426.884 106.142 425.549 106.661C426.884 107.185 427.518 108.625 427.518 111.052C427.518 108.625 428.152 107.185 429.478 106.661C428.152 106.142 427.518 104.697 427.518 102.275Z" fill="#EFF3FB"/>
<path fill-rule="evenodd" clip-rule="evenodd" d="M411.128 115.949C411.128 117.58 410.702 118.551 409.808 118.901C410.702 119.25 411.128 120.222 411.128 121.852C411.128 120.222 411.552 119.25 412.446 118.901C411.552 118.551 411.128 117.58 411.128 115.949Z" fill="#EFF3FB"/>
<path d="M359.722 47.7922C363.879 45.9728 366.754 45.8337 367.98 45.8903C368.685 43.8795 371.125 37.2259 373.742 36.2082C374.773 35.8026 375.211 36.1878 375.211 36.1878C375.211 36.1878 375.232 35.8328 375.173 35.5192C375.087 34.9388 374.888 34.3572 375.004 33.8276C375.128 33.2265 375.424 32.7837 376.013 32.6393C375.931 32.4908 375.886 32.3257 375.886 32.1512C375.886 31.8488 375.993 31.5914 376.259 31.4057C375.252 30.8667 374.142 30.0744 373.425 28.9123C373.165 28.4957 372.854 28.0377 372.525 27.5645C367.773 20.614 369.12 11.1932 376.908 7.68222L379.06 6.6947L377.888 8.73012C377.879 8.75074 374.213 15.0138 378.72 20.0637C381.311 22.9684 383.271 24.4799 384.876 25.719C386.291 26.8192 387.446 27.7089 388.536 29.1379C389.234 30.0484 389.688 30.5063 390.04 30.8666C390.893 31.7249 391.23 32.0686 392.5 35.4314C393.415 37.8531 394.484 39.8073 395.355 40.7839C395.512 40.9599 395.657 41.0933 395.775 41.18L395.793 41.1137C396.003 40.2706 396.424 39.9819 397.063 40.136C397.644 40.2804 398.132 41.0161 398.828 42.0752C399.995 43.8437 401.869 46.6878 404.756 48.2803C408.286 50.2402 411.753 50.2141 414.104 50.1988C415.277 50.1937 416.198 50.1887 416.861 50.42C417.734 50.7286 417.868 51.0934 418.013 51.4791C418.114 51.7362 418.22 52.019 422.644 52.4921C428.951 53.176 431.426 54.3327 436.155 57.5567L432.871 57.0529C432.845 57.0476 423.713 55.6078 415.466 57.0941C411.807 57.7523 407.969 57.2946 404.17 56.6518C402.867 56.4358 401.6 56.2459 400.35 56.0758C397.691 55.7214 394.994 55.3202 392.314 55.5155C390.454 55.6489 388.53 55.9631 385.441 56.0501C383.478 56.1018 381.471 55.7879 379.327 55.6489C374.956 55.3614 372.626 56.6571 368.67 56.8577C366.769 56.9553 365.135 56.7651 363.509 56.5799C361.273 56.3278 359.056 56.0708 356.174 56.6364C352.438 57.3665 351.863 56.5391 351.318 55.7625C351.031 55.3563 350.768 54.9756 347.315 55.9166C339.279 58.1173 334.432 53.8493 334.417 53.8343L332.916 52.5385L334.914 52.5178C334.923 52.5178 338.349 52.5077 345.607 50.4766C349.148 49.4897 351.336 49.3506 353.243 49.2272C355.277 49.0986 356.971 48.9909 359.722 47.7922ZM368.374 47.4277C368.368 47.4277 365.546 46.8872 360.338 49.1657C357.338 50.4712 355.526 50.5902 353.347 50.7286C351.514 50.8416 349.403 50.9753 346.021 51.9214C341.959 53.0577 339.036 53.5822 337.215 53.8189C339.107 54.7339 342.435 55.701 346.903 54.4718C351.404 53.2429 351.97 54.0499 352.574 54.9084C352.843 55.2942 353.125 55.6954 355.878 55.1608C358.993 54.5487 361.33 54.8161 363.687 55.0839C366.5 55.4075 369.354 55.7314 373.654 54.441C374.779 54.1017 375.91 53.8242 377.047 53.5923C376.247 51.8702 377.337 46.3893 380.251 47.7318C382.338 48.6927 382.856 47.3602 379.774 45.9823C376.686 44.5989 379.845 44.9028 384.014 45.6894C388.186 46.4719 386.241 42.6873 382.196 40.1469C378.154 37.6125 384.31 34.5524 382.172 31.4565C380.411 28.9069 380.671 25.5346 377.547 23.1224C375.048 21.1943 372.253 21.4611 371.332 17.6007C369.994 23.1224 375.069 30.985 380.935 31.74C380.449 32.1565 379.368 32.7632 377.846 32.81C378.19 33.0919 379.567 33.7862 379.567 33.7862C378.095 34.7382 376.881 33.6998 376.514 33.972C376.307 34.1261 376.976 36.8712 376.01 38.3261C375.51 37.4679 374.509 37.1188 373.683 37.7403C371.753 39.1953 369.245 46.8928 369.236 46.9189L369.034 47.546L368.374 47.4277Z" fill="#EFF3FB"/>
<path fill-rule="evenodd" clip-rule="evenodd" d="M384.44 71.8511H385.649C395.334 72.0511 391.212 81.0906 398.994 81.5793C394.037 78.2674 396.554 73.7483 393.794 70.4317C392.349 68.694 390.164 67.9432 388.737 67.9432C386.484 67.9432 385.047 69.2235 385.047 69.2235C385.047 69.2235 383.602 67.9432 381.352 67.9432C379.913 67.9432 377.707 68.704 376.265 70.4625C373.544 73.7791 376.04 78.2781 371.095 81.5793C378.874 81.0906 374.752 72.0511 384.44 71.8511ZM385.047 77.2853C383.306 77.2341 381.355 77.5429 380.194 78.0672C380.194 78.0672 381.435 75.9386 385.047 75.9386C388.654 75.9386 389.895 78.0672 389.895 78.0672C388.731 77.5429 386.78 77.2341 385.047 77.2853ZM383.303 82.0574C383.303 82.0574 380.479 86.0319 382.96 91.472C385.447 96.907 383.413 103.072 383.413 103.072C383.413 103.072 384.636 101.925 385.302 99.3799C387.206 92.0684 381.21 89.3278 383.303 82.0574ZM404.937 56.8674C404.694 57.3511 403.832 59.4693 405.881 62.1688C408.218 65.2437 408.38 69.974 405.881 74.4781C403.379 78.9828 405.84 85.5843 405.84 85.5843C405.84 85.5843 402.814 81.9852 402.254 77.7793C401.689 73.5785 402.414 72.2981 402.414 72.2981C402.414 72.2981 397.173 78.3038 402.414 84.3865C407.652 90.4641 401.123 95.7186 401.123 95.7186C401.123 95.7186 402.171 95.7189 403.462 94.706C404.75 93.6931 405.452 92.1249 405.452 92.1249C405.452 92.1249 408.54 98.5007 404.833 104.28C401.129 110.059 402.66 114.039 402.66 114.039C402.66 114.039 400.4 113.134 399.995 109.756C399.598 106.378 401.771 103.005 401.771 103.005C401.771 103.005 397.821 105.73 398.206 110.537C398.588 115.34 399.03 116.815 396.45 118.913C393.871 121.016 394.997 124.168 394.997 124.168C394.997 124.168 391.5 122.07 393.587 118.482C395.672 114.892 393.415 112.743 393.066 109.735C392.595 105.648 395.891 102.989 395.45 97.5081C395.269 95.2663 394.39 92.9783 393.3 91.8113C390.736 89.071 391.695 84.7926 391.695 84.7926C391.695 84.7926 389.22 88.7003 391.695 92.0423C393.19 94.0581 393.969 96.089 393.818 98.5261C393.534 103.077 389.667 107.468 392.163 112.502C394.342 116.898 390.351 121.587 390.351 121.587C391.633 116.553 389.234 111.149 386.042 109.082C386.042 109.082 386.481 109.478 387.153 110.944C392.619 122.801 385.779 122.621 385.201 131.007C385.021 133.701 385.862 135.305 385.862 135.305C385.862 135.305 380.428 128.996 382.966 123.232C383.789 121.356 383.958 119.258 383.437 117.34C383.096 116.075 382.457 114.892 381.506 113.895C382.098 115.561 382.492 117.047 382.566 118.527C382.711 121.541 381.346 124.621 379.362 126.873C379.362 126.873 380.328 121.993 378.797 120.265C377.266 118.543 376.141 116.512 379.362 112.234C380.277 111.015 380.532 109.241 380.277 107.581C379.395 101.812 375.128 100.902 377.562 91.7033C371.367 101.467 381.734 105.097 377.127 112.481C375.88 114.481 374.515 116.039 376.058 118.317C378.391 121.767 375.09 124.168 375.09 124.168C375.09 124.168 376.218 121.016 373.639 118.913C371.057 116.815 372.028 115.314 372.188 110.506C372.351 105.704 368.318 103.005 368.318 103.005C368.318 103.005 370.497 106.378 370.091 109.756C369.689 113.134 367.435 114.039 367.435 114.039C367.435 114.039 368.966 110.059 365.253 104.28C361.549 98.5007 364.637 92.1249 364.637 92.1249C364.637 92.1249 365.339 93.6931 366.624 94.706C367.918 95.7189 368.966 95.7186 368.966 95.7186C368.966 95.7186 362.437 90.4641 367.672 84.3865C372.916 78.3038 367.672 72.2981 367.672 72.2981C367.672 72.2981 368.401 73.5785 367.835 77.7793C367.272 81.9852 364.246 85.5843 364.246 85.5843C364.246 85.5843 366.707 78.9828 364.211 74.4781C361.709 69.974 361.868 65.2437 364.211 62.1688C366.257 59.4693 365.395 57.3511 365.149 56.8674C366.671 58.0401 367.782 59.8808 366.381 62.6368C363.479 68.339 369.12 70.406 369.12 70.406C369.12 70.406 365.736 66.6885 368.312 63.7988C370.891 60.9091 369.12 58.6211 369.12 58.6211C369.12 58.6211 372.309 60.652 371.456 62.7859C370.485 65.223 373.129 68.6475 375.246 69.0641C375.246 69.0641 376.694 66.9249 380.079 66.6063C383.463 66.2874 385.047 69.2235 385.047 69.2235C385.047 69.2235 386.626 66.2874 390.01 66.6063C393.395 66.9249 394.843 69.0641 394.843 69.0641C396.96 68.6475 399.601 65.223 398.63 62.7859C397.78 60.652 400.966 58.6211 400.966 58.6211C400.966 58.6211 399.195 60.9091 401.777 63.7988C404.356 66.6885 400.966 70.406 400.966 70.406C400.966 70.406 406.61 68.339 403.708 62.6368C402.31 59.8808 403.418 58.0401 404.937 56.8674Z" fill="#EFF3FB"/>
</g>
</g>
<defs>
<clipPath id="clip0_1983_7554">
<rect width="456" height="142" fill="white"/>
</clipPath>
</defs>
</svg>
