<svg width="24" height="24" viewBox="0 0 24 24" fill="none" xmlns="http://www.w3.org/2000/svg">
<path d="M16.9399 7.29L9.99985 14.23L7.05985 11.29C6.9647 11.1978 6.83738 11.1462 6.70485 11.1462C6.57232 11.1462 6.445 11.1978 6.34985 11.29L5.64985 12C5.60299 12.0465 5.56579 12.1018 5.54041 12.1627C5.51502 12.2236 5.50195 12.289 5.50195 12.355C5.50195 12.421 5.51502 12.4864 5.54041 12.5473C5.56579 12.6082 5.60299 12.6635 5.64985 12.71L9.64985 16.71C9.74332 16.8016 9.86898 16.8529 9.99985 16.8529C10.1307 16.8529 10.2564 16.8016 10.3499 16.71L18.3499 8.71C18.3967 8.66352 18.4339 8.60822 18.4593 8.54729C18.4847 8.48636 18.4978 8.42101 18.4978 8.355C18.4978 8.289 18.4847 8.22364 18.4593 8.16271C18.4339 8.10178 18.3967 8.04648 18.3499 8L17.6499 7.29C17.5547 7.19775 17.4274 7.14616 17.2949 7.14616C17.1623 7.14616 17.035 7.19775 16.9399 7.29Z" fill="white"/>
</svg>
