<svg width="18" height="19" viewBox="0 0 18 19" fill="none" xmlns="http://www.w3.org/2000/svg">
<path d="M17.1702 14.45H17.0802C16.355 14.8404 15.5437 15.0432 14.7202 15.04C14.527 15.05 14.3334 15.05 14.1402 15.04C12.8508 14.8992 11.6648 14.2687 10.8269 13.2786C9.98907 12.2885 9.56341 11.0145 9.63785 9.71957C9.71228 8.42468 10.2811 7.20782 11.2269 6.32025C12.1727 5.43268 13.4232 4.94218 14.7202 4.95004C15.5468 4.94778 16.3611 5.15049 17.0902 5.54005C17.1162 5.54845 17.1442 5.54845 17.1702 5.54005C17.201 5.5411 17.2315 5.53376 17.2585 5.5188C17.2855 5.50383 17.3079 5.48181 17.3233 5.4551C17.3387 5.42838 17.3465 5.39798 17.346 5.36714C17.3454 5.33631 17.3365 5.3062 17.3202 5.28005C16.5236 3.98205 15.4107 2.90741 14.0857 2.15674C12.7606 1.40606 11.2667 1.00391 9.74389 0.987923C8.22105 0.971936 6.71906 1.34264 5.37854 2.06533C4.03801 2.78802 2.9028 3.83906 2.07917 5.12005C1.25554 6.40104 0.770446 7.87007 0.669291 9.38963C0.568136 10.9092 0.854234 12.4296 1.5008 13.8084C2.14736 15.1873 3.13325 16.3795 4.36615 17.2735C5.59906 18.1675 7.03866 18.734 8.55018 18.92C8.9149 18.9676 9.28237 18.991 9.65018 18.99C11.1887 18.9902 12.7016 18.5959 14.0444 17.8449C15.3872 17.0938 16.515 16.0111 17.3202 14.7C17.334 14.6741 17.3409 14.6451 17.3401 14.6158C17.3394 14.5864 17.3311 14.5578 17.3159 14.5326C17.3008 14.5074 17.2795 14.4866 17.2539 14.4721C17.2284 14.4576 17.1995 14.45 17.1702 14.45ZM9.65018 17C9.36284 16.998 9.0758 16.9814 8.79018 16.95C7.23403 16.7566 5.7879 16.0463 4.68361 14.933C3.57933 13.8196 2.88086 12.3677 2.70018 10.81C2.56033 9.61798 2.72934 8.40998 3.19097 7.30207C3.65261 6.19416 4.39137 5.22356 5.33629 4.48349C6.2812 3.74342 7.40054 3.25875 8.58679 3.07602C9.77304 2.89329 10.9863 3.01864 12.1102 3.44005C11.1036 3.83335 10.2029 4.45661 9.48018 5.26005C8.71498 6.1054 8.16593 7.12351 7.87997 8.2273C7.59401 9.33109 7.57965 10.4877 7.83812 11.5983C8.0966 12.7088 8.62021 13.7403 9.36418 14.6043C10.1082 15.4684 11.0503 16.1395 12.1102 16.56C11.3232 16.8531 10.4899 17.0021 9.65018 17Z" fill="white"/>
</svg>
