<svg width="24" height="24" viewBox="0 0 24 24" fill="none" xmlns="http://www.w3.org/2000/svg">
<path d="M12 7C11.0111 7 10.0444 7.29324 9.22215 7.84265C8.39991 8.39206 7.75904 9.17295 7.3806 10.0866C7.00217 11.0002 6.90315 12.0055 7.09608 12.9755C7.289 13.9454 7.76521 14.8363 8.46447 15.5355C9.16373 16.2348 10.0546 16.711 11.0246 16.9039C11.9945 17.0969 12.9998 16.9978 13.9134 16.6194C14.827 16.241 15.6079 15.6001 16.1574 14.7779C16.7068 13.9556 17 12.9889 17 12C17 10.6739 16.4732 9.40215 15.5355 8.46447C14.5979 7.52678 13.3261 7 12 7ZM12 15C11.4067 15 10.8266 14.8241 10.3333 14.4944C9.83994 14.1648 9.45543 13.6962 9.22836 13.1481C9.0013 12.5999 8.94189 11.9967 9.05765 11.4147C9.1734 10.8328 9.45912 10.2982 9.87868 9.87868C10.2982 9.45912 10.8328 9.1734 11.4147 9.05764C11.9967 8.94189 12.5999 9.0013 13.1481 9.22836C13.6962 9.45542 14.1648 9.83994 14.4944 10.3333C14.8241 10.8266 15 11.4067 15 12C15 12.7956 14.6839 13.5587 14.1213 14.1213C13.5587 14.6839 12.7957 15 12 15Z" fill="#0A358A"/>
<path d="M12.5 18H11.5C11.2239 18 11 18.2239 11 18.5V20.5C11 20.7761 11.2239 21 11.5 21H12.5C12.7761 21 13 20.7761 13 20.5V18.5C13 18.2239 12.7761 18 12.5 18Z" fill="#0A358A"/>
<path d="M16.5978 15.8897L15.8907 16.5968C15.6954 16.792 15.6954 17.1086 15.8907 17.3039L16.9443 18.3575C17.1395 18.5527 17.4561 18.5527 17.6514 18.3575L18.3585 17.6504C18.5537 17.4551 18.5537 17.1385 18.3585 16.9432L17.3049 15.8897C17.1096 15.6944 16.793 15.6944 16.5978 15.8897Z" fill="#0A358A"/>
<path d="M20.5 11H18.5C18.2239 11 18 11.2239 18 11.5V12.5C18 12.7761 18.2239 13 18.5 13H20.5C20.7761 13 21 12.7761 21 12.5V11.5C21 11.2239 20.7761 11 20.5 11Z" fill="#0A358A"/>
<path d="M16.9443 5.64181L15.8907 6.6954C15.6954 6.89066 15.6954 7.20724 15.8907 7.4025L16.5978 8.10961C16.793 8.30487 17.1096 8.30487 17.3049 8.10961L18.3585 7.05602C18.5537 6.86076 18.5537 6.54418 18.3585 6.34891L17.6514 5.64181C17.4561 5.44655 17.1395 5.44655 16.9443 5.64181Z" fill="#0A358A"/>
<path d="M12.5 3H11.5C11.2239 3 11 3.22386 11 3.5V5.5C11 5.77614 11.2239 6 11.5 6H12.5C12.7761 6 13 5.77614 13 5.5V3.5C13 3.22386 12.7761 3 12.5 3Z" fill="#0A358A"/>
<path d="M6.35637 5.64802L5.64939 6.35525C5.45416 6.55054 5.45422 6.86713 5.64951 7.06235L6.70329 8.11576C6.89858 8.31099 7.21517 8.31093 7.41039 8.11564L8.11738 7.40841C8.3126 7.21311 8.31255 6.89653 8.11725 6.7013L7.06348 5.64789C6.86818 5.45267 6.5516 5.45272 6.35637 5.64802Z" fill="#0A358A"/>
<path d="M5.5 11H3.5C3.22386 11 3 11.2239 3 11.5V12.5C3 12.7761 3.22386 13 3.5 13H5.5C5.77614 13 6 12.7761 6 12.5V11.5C6 11.2239 5.77614 11 5.5 11Z" fill="#0A358A"/>
<path d="M6.70402 15.8833L5.65043 16.9369C5.45517 17.1322 5.45517 17.4488 5.65043 17.644L6.35754 18.3511C6.5528 18.5464 6.86938 18.5464 7.06464 18.3511L8.11823 17.2975C8.31349 17.1023 8.31349 16.7857 8.11823 16.5904L7.41112 15.8833C7.21586 15.6881 6.89928 15.6881 6.70402 15.8833Z" fill="#0A358A"/>
</svg>
