<svg width="24" height="24" viewBox="0 0 24 24" fill="none" xmlns="http://www.w3.org/2000/svg">
<mask id="mask0_736_3605" style="mask-type:alpha" maskUnits="userSpaceOnUse" x="0" y="0" width="24" height="24">
<rect width="24" height="24" fill="#D9D9D9"/>
</mask>
<g mask="url(#mask0_736_3605)">
<path d="M5.69297 19.7071L4.29297 18.3071L10.6001 12L4.29297 5.69291L5.69297 4.29291L12.0001 10.6L18.3072 4.29291L19.7072 5.69291L13.4001 12L19.7072 18.3071L18.3072 19.7071L12.0001 13.4L5.69297 19.7071Z" fill="white"/>
<path d="M5 21C4.45 21 3.97917 20.8042 3.5875 20.4125C3.19583 20.0208 3 19.55 3 19V5C3 4.45 3.19583 3.97917 3.5875 3.5875C3.97917 3.19583 4.45 3 5 3H19C19.55 3 20.0208 3.19583 20.4125 3.5875C20.8042 3.97917 21 4.45 21 5V19C21 19.55 20.8042 20.0208 20.4125 20.4125C20.0208 20.8042 19.55 21 19 21H5ZM5 19H19V5H5V19Z" fill="white"/>
</g>
</svg>
