<svg width="24" height="24" viewBox="0 0 24 24" fill="none" xmlns="http://www.w3.org/2000/svg">
<path d="M7.1702 19.8899L7.8802 20.5999C7.97535 20.6922 8.10268 20.7438 8.2352 20.7438C8.36773 20.7438 8.49505 20.6922 8.5902 20.5999L16.8302 12.3499C16.9218 12.2565 16.9731 12.1308 16.9731 11.9999C16.9731 11.8691 16.9218 11.7434 16.8302 11.6499L8.5902 3.39994C8.49505 3.30769 8.36773 3.2561 8.2352 3.2561C8.10268 3.2561 7.97535 3.30769 7.8802 3.39994L7.1702 4.10994C7.07796 4.20509 7.02637 4.33241 7.02637 4.46494C7.02637 4.59747 7.07796 4.72479 7.1702 4.81994L14.3502 11.9999L7.1702 19.1799C7.07796 19.2751 7.02637 19.4024 7.02637 19.5349C7.02637 19.6675 7.07796 19.7948 7.1702 19.8899Z" fill="#0A358A"/>
</svg>
