<svg width="16" height="16" viewBox="0 0 16 16" fill="none" xmlns="http://www.w3.org/2000/svg">
    <path d="M11.5907 12.7108L6.88067 8.00077L11.5907 3.29077C11.6385 3.24588 11.6766 3.19166 11.7027 3.13146C11.7287 3.07126 11.7422 3.00636 11.7422 2.94077C11.7422 2.87517 11.7287 2.81027 11.7027 2.75007C11.6766 2.68987 11.6385 2.63566 11.5907 2.59077L10.8807 1.88077C10.8358 1.83294 10.7816 1.79481 10.7214 1.76875C10.6612 1.74269 10.5963 1.72925 10.5307 1.72925C10.4651 1.72925 10.4002 1.74269 10.34 1.76875C10.2798 1.79481 10.2256 1.83294 10.1807 1.88077L4.41067 7.65077C4.36284 7.69566 4.32472 7.74988 4.29866 7.81007C4.2726 7.87027 4.25915 7.93517 4.25915 8.00077C4.25915 8.06636 4.2726 8.13126 4.29866 8.19146C4.32472 8.25166 4.36284 8.30588 4.41067 8.35077L10.1807 14.1208C10.2256 14.1686 10.2798 14.2067 10.34 14.2328C10.4002 14.2588 10.4651 14.2723 10.5307 14.2723C10.5963 14.2723 10.6612 14.2588 10.7214 14.2328C10.7816 14.2067 10.8358 14.1686 10.8807 14.1208L11.5907 13.4108C11.6385 13.3659 11.6766 13.3117 11.7027 13.2515C11.7287 13.1913 11.7422 13.1264 11.7422 13.0608C11.7422 12.9952 11.7287 12.9303 11.7027 12.8701C11.6766 12.8099 11.6385 12.7557 11.5907 12.7108Z" fill="white"/>
</svg>
