<svg width="24" height="24" viewBox="0 0 24 24" fill="none" xmlns="http://www.w3.org/2000/svg">
    <path d="M16.8303 4.11L16.1203 3.4C16.0251 3.30775 15.8978 3.25616 15.7653 3.25616C15.6327 3.25616 15.5054 3.30775 15.4103 3.4L7.17027 11.65C7.07866 11.7435 7.02734 11.8691 7.02734 12C7.02734 12.1309 7.07866 12.2565 7.17027 12.35L15.4103 20.6C15.5054 20.6923 15.6327 20.7438 15.7653 20.7438C15.8978 20.7438 16.0251 20.6923 16.1203 20.6L16.8303 19.89C16.9225 19.7949 16.9741 19.6675 16.9741 19.535C16.9741 19.4025 16.9225 19.2752 16.8303 19.18L9.65027 12L16.8303 4.82C16.9225 4.72485 16.9741 4.59753 16.9741 4.465C16.9741 4.33247 16.9225 4.20515 16.8303 4.11Z" fill="white"/>
</svg>
