<svg width="24" height="24" viewBox="0 0 24 24" fill="none" xmlns="http://www.w3.org/2000/svg">
<path d="M19.3499 5.35L18.6499 4.65C18.6034 4.60314 18.5481 4.56594 18.4871 4.54056C18.4262 4.51517 18.3609 4.50211 18.2949 4.50211C18.2288 4.50211 18.1635 4.51517 18.1026 4.54056C18.0416 4.56594 17.9863 4.60314 17.9399 4.65L11.9999 10.59L6.05985 4.65C6.01337 4.60314 5.95807 4.56594 5.89714 4.54056C5.83621 4.51517 5.77086 4.50211 5.70485 4.50211C5.63885 4.50211 5.57349 4.51517 5.51256 4.54056C5.45163 4.56594 5.39633 4.60314 5.34985 4.65L4.64985 5.35C4.60299 5.39649 4.56579 5.45179 4.54041 5.51272C4.51502 5.57365 4.50195 5.639 4.50195 5.705C4.50195 5.77101 4.51502 5.83636 4.54041 5.89729C4.56579 5.95822 4.60299 6.01352 4.64985 6.06L10.5899 12L4.64985 17.94C4.60299 17.9865 4.56579 18.0418 4.54041 18.1027C4.51502 18.1636 4.50195 18.229 4.50195 18.295C4.50195 18.361 4.51502 18.4264 4.54041 18.4873C4.56579 18.5482 4.60299 18.6035 4.64985 18.65L5.34985 19.35C5.39633 19.3969 5.45163 19.4341 5.51256 19.4595C5.57349 19.4848 5.63885 19.4979 5.70485 19.4979C5.77086 19.4979 5.83621 19.4848 5.89714 19.4595C5.95807 19.4341 6.01337 19.3969 6.05985 19.35L11.9999 13.41L17.9399 19.35C17.9863 19.3969 18.0416 19.4341 18.1026 19.4595C18.1635 19.4848 18.2288 19.4979 18.2949 19.4979C18.3609 19.4979 18.4262 19.4848 18.4871 19.4595C18.5481 19.4341 18.6034 19.3969 18.6499 19.35L19.3499 18.65C19.3967 18.6035 19.4339 18.5482 19.4593 18.4873C19.4847 18.4264 19.4978 18.361 19.4978 18.295C19.4978 18.229 19.4847 18.1636 19.4593 18.1027C19.4339 18.0418 19.3967 17.9865 19.3499 17.94L13.4099 12L19.3499 6.06C19.3967 6.01352 19.4339 5.95822 19.4593 5.89729C19.4847 5.83636 19.4978 5.77101 19.4978 5.705C19.4978 5.639 19.4847 5.57365 19.4593 5.51272C19.4339 5.45179 19.3967 5.39649 19.3499 5.35Z" fill="white"/>
</svg>
