<svg width="24" height="24" viewBox="0 0 24 24" fill="none" xmlns="http://www.w3.org/2000/svg">
<path d="M7.28997 15.59L12 10.88L16.71 15.59C16.7549 15.6378 16.8091 15.6759 16.8693 15.702C16.9295 15.7281 16.9944 15.7415 17.06 15.7415C17.1256 15.7415 17.1905 15.7281 17.2507 15.702C17.3109 15.6759 17.3651 15.6378 17.41 15.59L18.12 14.88C18.1678 14.8351 18.2059 14.7809 18.232 14.7207C18.258 14.6605 18.2715 14.5956 18.2715 14.53C18.2715 14.4644 18.258 14.3995 18.232 14.3393C18.2059 14.2791 18.1678 14.2249 18.12 14.18L12.35 8.41C12.3051 8.36217 12.2509 8.32404 12.1907 8.29798C12.1305 8.27192 12.0656 8.25848 12 8.25848C11.9344 8.25848 11.8695 8.27192 11.8093 8.29798C11.7491 8.32404 11.6949 8.36217 11.65 8.41L5.87996 14.18C5.83213 14.2249 5.79401 14.2791 5.76795 14.3393C5.74189 14.3995 5.72845 14.4644 5.72845 14.53C5.72845 14.5956 5.74189 14.6605 5.76795 14.7207C5.79401 14.7809 5.83213 14.8351 5.87996 14.88L6.58997 15.59C6.63486 15.6378 6.68907 15.6759 6.74927 15.702C6.80947 15.7281 6.87437 15.7415 6.93997 15.7415C7.00556 15.7415 7.07046 15.7281 7.13066 15.702C7.19086 15.6759 7.24508 15.6378 7.28997 15.59Z" fill="white"/>
</svg>
