<svg width="24" height="24" viewBox="0 0 24 24" fill="none" xmlns="http://www.w3.org/2000/svg">
<path d="M16.71 8.41L12 13.12L7.29003 8.41C7.24514 8.36217 7.19093 8.32405 7.13073 8.29799C7.07053 8.27193 7.00563 8.25848 6.94003 8.25848C6.87444 8.25848 6.80954 8.27193 6.74934 8.29799C6.68914 8.32405 6.63492 8.36217 6.59003 8.41L5.88003 9.12C5.8322 9.16489 5.79408 9.21911 5.76802 9.27931C5.74196 9.33951 5.72852 9.40441 5.72852 9.47C5.72852 9.5356 5.74196 9.6005 5.76802 9.6607C5.79408 9.7209 5.8322 9.77511 5.88003 9.82L11.65 15.59C11.6949 15.6378 11.7491 15.676 11.8093 15.702C11.8695 15.7281 11.9344 15.7415 12 15.7415C12.0656 15.7415 12.1305 15.7281 12.1907 15.702C12.2509 15.676 12.3051 15.6378 12.35 15.59L18.12 9.82C18.1679 9.77511 18.206 9.7209 18.232 9.6607C18.2581 9.6005 18.2716 9.5356 18.2716 9.47C18.2716 9.40441 18.2581 9.33951 18.232 9.27931C18.206 9.21911 18.1679 9.16489 18.12 9.12L17.41 8.41C17.3651 8.36217 17.3109 8.32405 17.2507 8.29799C17.1905 8.27193 17.1256 8.25848 17.06 8.25848C16.9944 8.25848 16.9295 8.27193 16.8693 8.29799C16.8091 8.32405 16.7549 8.36217 16.71 8.41Z" fill="white"/>
</svg>
