<svg width="24" height="24" viewBox="0 0 24 24" fill="none" xmlns="http://www.w3.org/2000/svg">
<path d="M20.5 6H3.5C3.22386 6 3 6.22386 3 6.5V7.5C3 7.77614 3.22386 8 3.5 8H20.5C20.7761 8 21 7.77614 21 7.5V6.5C21 6.22386 20.7761 6 20.5 6Z" fill="white"/>
<path d="M20.5 11H3.5C3.22386 11 3 11.2239 3 11.5V12.5C3 12.7761 3.22386 13 3.5 13H20.5C20.7761 13 21 12.7761 21 12.5V11.5C21 11.2239 20.7761 11 20.5 11Z" fill="white"/>
<path d="M20.5 16H3.5C3.22386 16 3 16.2239 3 16.5V17.5C3 17.7761 3.22386 18 3.5 18H20.5C20.7761 18 21 17.7761 21 17.5V16.5C21 16.2239 20.7761 16 20.5 16Z" fill="white"/>
</svg>
