<svg width="24" height="24" viewBox="0 0 24 24" fill="none" xmlns="http://www.w3.org/2000/svg">
<path d="M20.5998 19.19L15.8498 14.43C16.9085 13.0123 17.3911 11.2463 17.2005 9.48722C17.0098 7.72814 16.1601 6.10651 14.8222 4.94857C13.4844 3.79063 11.7576 3.1823 9.98938 3.24596C8.22114 3.30962 6.54261 4.04054 5.29147 5.29168C4.04032 6.54282 3.3094 8.22135 3.24575 9.98959C3.18209 11.7578 3.79042 13.4846 4.94836 14.8224C6.1063 16.1603 7.72792 17.01 9.48701 17.2007C11.2461 17.3913 13.0121 16.9087 14.4298 15.85L19.1898 20.6C19.2363 20.6469 19.2916 20.6841 19.3525 20.7094C19.4134 20.7348 19.4788 20.7479 19.5448 20.7479C19.6108 20.7479 19.6761 20.7348 19.7371 20.7094C19.798 20.6841 19.8533 20.6469 19.8998 20.6L20.5998 19.9C20.6466 19.8535 20.6838 19.7982 20.7092 19.7373C20.7346 19.6763 20.7477 19.611 20.7477 19.545C20.7477 19.479 20.7346 19.4136 20.7092 19.3527C20.6838 19.2918 20.6466 19.2365 20.5998 19.19ZM10.2498 15.25C9.26087 15.25 8.29417 14.9567 7.47193 14.4073C6.64968 13.8579 6.00882 13.077 5.63038 12.1634C5.25194 11.2498 5.15292 10.2444 5.34585 9.27454C5.53878 8.30463 6.01498 7.41372 6.71424 6.71446C7.4135 6.01519 8.30442 5.53899 9.27432 5.34606C10.2442 5.15314 11.2496 5.25215 12.1632 5.63059C13.0768 6.00903 13.8577 6.64989 14.4071 7.47214C14.9565 8.29438 15.2498 9.26108 15.2498 10.25C15.2498 11.5761 14.723 12.8478 13.7853 13.7855C12.8476 14.7232 11.5759 15.25 10.2498 15.25Z" fill="white"/>
</svg>
