<svg width="16" height="16" viewBox="0 0 16 16" fill="none" xmlns="http://www.w3.org/2000/svg">
<path d="M6.20969 11.59L3.31969 8.70001C3.22807 8.60655 3.17676 8.48089 3.17676 8.35001C3.17676 8.21914 3.22807 8.09348 3.31969 8.00001L3.99969 7.29001C4.04617 7.24315 4.10147 7.20595 4.1624 7.18057C4.22333 7.15518 4.28868 7.14211 4.35469 7.14211C4.42069 7.14211 4.48605 7.15518 4.54697 7.18057C4.6079 7.20595 4.66321 7.24315 4.70969 7.29001L6.55969 9.11001L11.2597 4.41001C11.3548 4.31776 11.4822 4.26617 11.6147 4.26617C11.7472 4.26617 11.8745 4.31776 11.9697 4.41001L12.6797 5.12001C12.7719 5.21516 12.8235 5.34248 12.8235 5.47501C12.8235 5.60754 12.7719 5.73486 12.6797 5.83001L6.91969 11.59C6.82454 11.6823 6.69721 11.7338 6.56469 11.7338C6.43216 11.7338 6.30484 11.6823 6.20969 11.59Z" fill="white"/>
</svg>
