<svg width="24" height="24" viewBox="0 0 24 24" fill="none" xmlns="http://www.w3.org/2000/svg">
<path d="M20.1702 16.45H20.0802C19.355 16.8403 18.5437 17.0431 17.7202 17.04C17.527 17.05 17.3334 17.05 17.1402 17.04C15.8508 16.8992 14.6648 16.2686 13.8269 15.2785C12.9891 14.2884 12.5634 13.0144 12.6378 11.7195C12.7123 10.4246 13.2811 9.20777 14.2269 8.3202C15.1727 7.43263 16.4232 6.94214 17.7202 6.95C18.5468 6.94773 19.3611 7.15045 20.0902 7.54C20.1162 7.54841 20.1442 7.54841 20.1702 7.54C20.201 7.54106 20.2315 7.53371 20.2585 7.51875C20.2855 7.50379 20.3079 7.48177 20.3233 7.45505C20.3387 7.42834 20.3465 7.39793 20.346 7.3671C20.3454 7.33626 20.3365 7.30615 20.3202 7.28C19.5236 5.982 18.4107 4.90736 17.0857 4.15669C15.7606 3.40602 14.2667 3.00386 12.7439 2.98788C11.2211 2.97189 9.71906 3.34259 8.37854 4.06529C7.03801 4.78798 5.9028 5.83901 5.07917 7.12C4.25554 8.40099 3.77045 9.87003 3.66929 11.3896C3.56814 12.9091 3.85423 14.4295 4.5008 15.8084C5.14736 17.1872 6.13325 18.3795 7.36615 19.2735C8.59906 20.1675 10.0387 20.734 11.5502 20.92C11.9149 20.9676 12.2824 20.991 12.6502 20.99C14.1887 20.9901 15.7016 20.5959 17.0444 19.8448C18.3872 19.0938 19.515 18.011 20.3202 16.7C20.334 16.6741 20.3409 16.6451 20.3401 16.6157C20.3394 16.5864 20.3311 16.5577 20.3159 16.5325C20.3008 16.5074 20.2795 16.4865 20.2539 16.4721C20.2284 16.4576 20.1995 16.45 20.1702 16.45ZM12.6502 19C12.3628 18.998 12.0758 18.9813 11.7902 18.95C10.234 18.7566 8.7879 18.0463 7.68361 16.9329C6.57933 15.8196 5.88086 14.3677 5.70018 12.81C5.56033 11.6179 5.72934 10.4099 6.19097 9.30203C6.65261 8.19412 7.39137 7.22351 8.33629 6.48344C9.2812 5.74338 10.4005 5.2587 11.5868 5.07597C12.773 4.89324 13.9863 5.0186 15.1102 5.44C14.1036 5.8333 13.2029 6.45657 12.4802 7.26C11.715 8.10535 11.1659 9.12346 10.88 10.2273C10.594 11.331 10.5797 12.4877 10.8381 13.5982C11.0966 14.7088 11.6202 15.7402 12.3642 16.6043C13.1082 17.4684 14.0503 18.1394 15.1102 18.56C14.3232 18.853 13.4899 19.0021 12.6502 19Z" fill="white"/>
</svg>
