<svg width="24" height="24" viewBox="0 0 24 24" fill="none" xmlns="http://www.w3.org/2000/svg">
<path d="M17.23 11.18L16.53 10.48C16.4835 10.4331 16.4282 10.3959 16.3673 10.3706C16.3063 10.3452 16.241 10.3321 16.175 10.3321C16.109 10.3321 16.0436 10.3452 15.9827 10.3706C15.9218 10.3959 15.8665 10.4331 15.82 10.48L13 13.29V4.59C13 4.45739 12.9473 4.33021 12.8535 4.23644C12.7598 4.14267 12.6326 4.09 12.5 4.09H11.5C11.3674 4.09 11.2402 4.14267 11.1464 4.23644C11.0526 4.33021 11 4.45739 11 4.59V13.29L8.17997 10.48C8.13349 10.4331 8.07819 10.3959 8.01726 10.3706C7.95633 10.3452 7.89098 10.3321 7.82497 10.3321C7.75896 10.3321 7.69361 10.3452 7.63268 10.3706C7.57175 10.3959 7.51645 10.4331 7.46997 10.48L6.76997 11.18C6.72311 11.2265 6.68591 11.2818 6.66052 11.3427C6.63514 11.4036 6.62207 11.469 6.62207 11.535C6.62207 11.601 6.63514 11.6664 6.66052 11.7273C6.68591 11.7882 6.72311 11.8435 6.76997 11.89L11.65 16.77C11.7434 16.8616 11.8691 16.9129 12 16.9129C12.1308 16.9129 12.2565 16.8616 12.35 16.77L17.23 11.89C17.2768 11.8435 17.314 11.7882 17.3394 11.7273C17.3648 11.6664 17.3779 11.601 17.3779 11.535C17.3779 11.469 17.3648 11.4036 17.3394 11.3427C17.314 11.2818 17.2768 11.2265 17.23 11.18Z" fill="white"/>
<path d="M17.2398 15.41V16.41C17.2398 16.8078 17.0817 17.1894 16.8004 17.4707C16.5191 17.752 16.1376 17.91 15.7398 17.91H8.25978C7.86196 17.91 7.48042 17.752 7.19912 17.4707C6.91781 17.1894 6.75978 16.8078 6.75978 16.41V15.41C6.75722 15.2782 6.70372 15.1525 6.6105 15.0593C6.51728 14.9661 6.39159 14.9126 6.25978 14.91H5.25978C5.12717 14.91 4.99999 14.9627 4.90623 15.0565C4.81246 15.1502 4.75978 15.2774 4.75978 15.41V16.41C4.75846 16.87 4.84809 17.3257 5.02351 17.751C5.19894 18.1762 5.45669 18.5626 5.78196 18.8878C6.10723 19.2131 6.49359 19.4708 6.91883 19.6463C7.34406 19.8217 7.79978 19.9113 8.25978 19.91H15.7398C16.1998 19.9113 16.6555 19.8217 17.0807 19.6463C17.506 19.4708 17.8923 19.2131 18.2176 18.8878C18.5429 18.5626 18.8006 18.1762 18.976 17.751C19.1515 17.3257 19.2411 16.87 19.2398 16.41V15.41C19.2398 15.2774 19.1871 15.1502 19.0933 15.0565C18.9996 14.9627 18.8724 14.91 18.7398 14.91H17.7398C17.608 14.9126 17.4823 14.9661 17.3891 15.0593C17.2958 15.1525 17.2423 15.2782 17.2398 15.41Z" fill="white"/>
</svg>
