<svg width="24" height="24" viewBox="0 0 24 24" fill="none" xmlns="http://www.w3.org/2000/svg">
<path d="M20.21 5.38L18.62 3.79C18.4342 3.60405 18.2137 3.45653 17.9709 3.35588C17.7281 3.25524 17.4678 3.20343 17.205 3.20343C16.9422 3.20343 16.6819 3.25524 16.4391 3.35588C16.1963 3.45653 15.9757 3.60405 15.79 3.79L3.78999 15.79C3.60463 15.9769 3.45798 16.1985 3.35845 16.4422C3.25892 16.6859 3.20847 16.9468 3.20999 17.21V20.29C3.20999 20.4226 3.26267 20.5498 3.35644 20.6436C3.45021 20.7373 3.57739 20.79 3.70999 20.79H6.78999C7.05321 20.7915 7.31413 20.7411 7.55781 20.6415C7.80148 20.542 8.02311 20.3954 8.20999 20.21L20.21 8.21C20.3959 8.02426 20.5435 7.80368 20.6441 7.56088C20.7448 7.31809 20.7966 7.05783 20.7966 6.795C20.7966 6.53217 20.7448 6.27192 20.6441 6.02912C20.5435 5.78633 20.3959 5.56575 20.21 5.38ZM14.71 7.71L16.29 9.29L15.71 9.88L14.12 8.29L14.71 7.71ZM6.78999 18.79H5.20999V17.21L12.71 9.71L14.29 11.29L6.78999 18.79ZM17.71 7.88L16.12 6.29L17.21 5.21L18.79 6.79L17.71 7.88Z" fill="white"/>
</svg>
