<svg width="24" height="24" viewBox="0 0 24 24" fill="none" xmlns="http://www.w3.org/2000/svg">
<path d="M12.94 15.65L13.65 16.35C13.6949 16.3978 13.7491 16.436 13.8093 16.462C13.8695 16.4881 13.9344 16.5015 14 16.5015C14.0656 16.5015 14.1305 16.4881 14.1907 16.462C14.2509 16.436 14.3051 16.3978 14.35 16.35L18.35 12.35C18.3978 12.3051 18.436 12.2509 18.462 12.1907C18.4881 12.1305 18.5015 12.0656 18.5015 12C18.5015 11.9344 18.4881 11.8695 18.462 11.8093C18.436 11.7491 18.3978 11.6949 18.35 11.65L14.35 7.65C14.3051 7.60217 14.2509 7.56405 14.1907 7.53799C14.1305 7.51193 14.0656 7.49848 14 7.49848C13.9344 7.49848 13.8695 7.51193 13.8093 7.53799C13.7491 7.56405 13.6949 7.60217 13.65 7.65L12.94 8.35C12.8931 8.39648 12.8559 8.45178 12.8306 8.51271C12.8052 8.57364 12.7921 8.63899 12.7921 8.705C12.7921 8.77101 12.8052 8.83636 12.8306 8.89729C12.8559 8.95822 12.8931 9.01352 12.94 9.06L14.88 11H10C9.86739 11 9.74021 11.0527 9.64645 11.1464C9.55268 11.2402 9.5 11.3674 9.5 11.5V12.5C9.5 12.6326 9.55268 12.7598 9.64645 12.8536C9.74021 12.9473 9.86739 13 10 13H14.88L12.94 14.94C12.8931 14.9865 12.8559 15.0418 12.8306 15.1027C12.8052 15.1636 12.7921 15.229 12.7921 15.295C12.7921 15.361 12.8052 15.4264 12.8306 15.4873C12.8559 15.5482 12.8931 15.6035 12.94 15.65Z" fill="#F42C04"/>
<path d="M18.5 6C18.5 5.20435 18.1839 4.44129 17.6213 3.87868C17.0587 3.31607 16.2956 3 15.5 3H8.5C7.70435 3 6.94129 3.31607 6.37868 3.87868C5.81607 4.44129 5.5 5.20435 5.5 6V18C5.5 18.7956 5.81607 19.5587 6.37868 20.1213C6.94129 20.6839 7.70435 21 8.5 21H15.5C16.2956 21 17.0587 20.6839 17.6213 20.1213C18.1839 19.5587 18.5 18.7956 18.5 18V17.5C18.5 17.3674 18.4473 17.2402 18.3536 17.1464C18.2598 17.0527 18.1326 17 18 17H17C16.8674 17 16.7402 17.0527 16.6464 17.1464C16.5527 17.2402 16.5 17.3674 16.5 17.5V18C16.5 18.2652 16.3946 18.5196 16.2071 18.7071C16.0196 18.8946 15.7652 19 15.5 19H8.5C8.23478 19 7.98043 18.8946 7.79289 18.7071C7.60536 18.5196 7.5 18.2652 7.5 18V6C7.5 5.73478 7.60536 5.48043 7.79289 5.29289C7.98043 5.10536 8.23478 5 8.5 5H15.5C15.7652 5 16.0196 5.10536 16.2071 5.29289C16.3946 5.48043 16.5 5.73478 16.5 6V6.5C16.5 6.63261 16.5527 6.75979 16.6464 6.85355C16.7402 6.94732 16.8674 7 17 7H18C18.1326 7 18.2598 6.94732 18.3536 6.85355C18.4473 6.75979 18.5 6.63261 18.5 6.5V6Z" fill="#F42C04"/>
</svg>
