<svg width="24" height="24" viewBox="0 0 24 24" fill="none" xmlns="http://www.w3.org/2000/svg">
<path d="M18 3H6C5.20435 3 4.44129 3.31607 3.87868 3.87868C3.31607 4.44129 3 5.20435 3 6V18C3 18.7956 3.31607 19.5587 3.87868 20.1213C4.44129 20.6839 5.20435 21 6 21H18C18.7956 21 19.5587 20.6839 20.1213 20.1213C20.6839 19.5587 21 18.7956 21 18V6C21 5.20435 20.6839 4.44129 20.1213 3.87868C19.5587 3.31607 18.7956 3 18 3ZM19 18C19 18.2652 18.8946 18.5196 18.7071 18.7071C18.5196 18.8946 18.2652 19 18 19H6C5.73478 19 5.48043 18.8946 5.29289 18.7071C5.10536 18.5196 5 18.2652 5 18V6C5 5.73478 5.10536 5.48043 5.29289 5.29289C5.48043 5.10536 5.73478 5 6 5H18C18.2652 5 18.5196 5.10536 18.7071 5.29289C18.8946 5.48043 19 5.73478 19 6V18Z" fill="white"/>
<path d="M11.3699 14.64C11.0304 14.6278 10.6998 14.75 10.4499 14.98C10.3362 15.09 10.2465 15.2222 10.1862 15.3685C10.126 15.5148 10.0966 15.6719 10.0999 15.83C10.0988 15.9849 10.1292 16.1383 10.1894 16.281C10.2496 16.4237 10.3382 16.5527 10.4499 16.66C10.5724 16.7758 10.717 16.8656 10.8751 16.924C11.0332 16.9824 11.2015 17.0083 11.3699 17C11.5365 17.0069 11.7029 16.9804 11.8592 16.922C12.0155 16.8636 12.1585 16.7745 12.2799 16.66C12.3915 16.5527 12.4801 16.4237 12.5403 16.281C12.6005 16.1383 12.631 15.9849 12.6299 15.83C12.6331 15.6719 12.6037 15.5148 12.5435 15.3685C12.4833 15.2222 12.3935 15.09 12.2799 14.98C12.0319 14.7533 11.7057 14.6315 11.3699 14.64Z" fill="white"/>
<path d="M13.9996 7.34C13.4529 7.09595 12.8579 6.97967 12.2596 7C11.6368 6.98165 11.0189 7.11552 10.4596 7.39C9.98536 7.62236 9.59174 7.9916 9.32957 8.45C9.07524 8.92508 8.96082 9.46252 8.99957 10H10.9996C10.9918 9.77271 11.0472 9.54771 11.1596 9.35C11.26 9.16245 11.4176 9.01181 11.6096 8.92C11.8222 8.80882 12.0597 8.75375 12.2996 8.76C12.5351 8.75402 12.7684 8.80551 12.9796 8.91C13.1625 9.0063 13.3149 9.15176 13.4196 9.33C13.5228 9.53085 13.5743 9.75424 13.5696 9.98C13.5807 10.2387 13.5183 10.4953 13.3896 10.72C13.2715 10.9165 13.0974 11.0732 12.8896 11.17C12.6522 11.2792 12.3991 11.3501 12.1396 11.38C11.8288 11.4297 11.5143 11.4531 11.1996 11.45H10.4596V13.71H12.3196L12.3696 12.81C12.9311 12.7971 13.4848 12.6748 13.9996 12.45C14.4603 12.2537 14.8507 11.9225 15.1196 11.5C15.3972 11.0496 15.5395 10.529 15.5296 10C15.5442 9.43447 15.3986 8.87633 15.1096 8.39C14.8516 7.93786 14.4653 7.57244 13.9996 7.34Z" fill="white"/>
</svg>
