<svg width="24" height="24" viewBox="0 0 24 24" fill="none" xmlns="http://www.w3.org/2000/svg">
<path d="M11 3.45L4 7.67C3.69918 7.84365 3.44876 8.09266 3.27342 8.3925C3.09807 8.69234 3.00384 9.03268 3 9.38V18C3 18.7957 3.31607 19.5587 3.87868 20.1213C4.44129 20.6839 5.20435 21 6 21H10.5C10.6326 21 10.7598 20.9473 10.8536 20.8536C10.9473 20.7598 11 20.6326 11 20.5V14C11 13.7348 11.1054 13.4804 11.2929 13.2929C11.4804 13.1054 11.7348 13 12 13C12.2652 13 12.5196 13.1054 12.7071 13.2929C12.8946 13.4804 13 13.7348 13 14V20.5C13 20.6326 13.0527 20.7598 13.1464 20.8536C13.2402 20.9473 13.3674 21 13.5 21H18C18.7956 21 19.5587 20.6839 20.1213 20.1213C20.6839 19.5587 21 18.7957 21 18V9.38C20.9962 9.03268 20.9019 8.69234 20.7266 8.3925C20.5512 8.09266 20.3008 7.84365 20 7.67L13 3.45C12.696 3.27447 12.3511 3.18205 12 3.18205C11.6489 3.18205 11.304 3.27447 11 3.45ZM19 18C19 18.2652 18.8946 18.5196 18.7071 18.7071C18.5196 18.8946 18.2652 19 18 19H15V14.12C15.0129 13.4117 14.7812 12.7207 14.344 12.1633C13.9069 11.6059 13.2909 11.2163 12.6 11.06C12.1641 10.971 11.7138 10.9801 11.2818 11.0866C10.8499 11.1931 10.447 11.3944 10.1024 11.6758C9.7578 11.9572 9.48011 12.3118 9.28944 12.7137C9.09878 13.1157 8.99991 13.5551 9 14V19H6C5.73478 19 5.48043 18.8946 5.29289 18.7071C5.10536 18.5196 5 18.2652 5 18V9.94C5.00071 9.76911 5.04521 9.60126 5.12924 9.45245C5.21327 9.30365 5.33403 9.17886 5.48 9.09L11.48 5.48C11.632 5.39223 11.8045 5.34603 11.98 5.34603C12.1555 5.34603 12.328 5.39223 12.48 5.48L18.48 9.09C18.626 9.17886 18.7467 9.30365 18.8308 9.45245C18.9148 9.60126 18.9593 9.76911 18.96 9.94L19 18Z" fill="white"/>
</svg>
