<svg width="24" height="24" viewBox="0 0 24 24" fill="none" xmlns="http://www.w3.org/2000/svg">
<path d="M9.5 10H5C4.46957 10 3.96086 9.78929 3.58579 9.41421C3.21071 9.03914 3 8.53043 3 8V5C3 4.46957 3.21071 3.96086 3.58579 3.58579C3.96086 3.21071 4.46957 3 5 3H9.5C10.0304 3 10.5391 3.21071 10.9142 3.58579C11.2893 3.96086 11.5 4.46957 11.5 5V8C11.5 8.53043 11.2893 9.03914 10.9142 9.41421C10.5391 9.78929 10.0304 10 9.5 10ZM5 5.5V7.5C5 7.63261 5.05268 7.75979 5.14645 7.85355C5.24021 7.94732 5.36739 8 5.5 8H9C9.13261 8 9.25979 7.94732 9.35355 7.85355C9.44732 7.75979 9.5 7.63261 9.5 7.5V5.5C9.5 5.36739 9.44732 5.24021 9.35355 5.14645C9.25979 5.05268 9.13261 5 9 5H5.5C5.36739 5 5.24021 5.05268 5.14645 5.14645C5.05268 5.24021 5 5.36739 5 5.5Z" fill="white"/>
<path d="M9.5 18H5C4.46957 18 3.96086 17.7893 3.58579 17.4142C3.21071 17.0391 3 16.5304 3 16V13C3 12.4696 3.21071 11.9609 3.58579 11.5858C3.96086 11.2107 4.46957 11 5 11H9.5C10.0304 11 10.5391 11.2107 10.9142 11.5858C11.2893 11.9609 11.5 12.4696 11.5 13V16C11.5 16.5304 11.2893 17.0391 10.9142 17.4142C10.5391 17.7893 10.0304 18 9.5 18ZM5 13.5V15.5C5 15.6326 5.05268 15.7598 5.14645 15.8536C5.24021 15.9473 5.36739 16 5.5 16H9C9.13261 16 9.25979 15.9473 9.35355 15.8536C9.44732 15.7598 9.5 15.6326 9.5 15.5V13.5C9.5 13.3674 9.44732 13.2402 9.35355 13.1464C9.25979 13.0527 9.13261 13 9 13H5.5C5.36739 13 5.24021 13.0527 5.14645 13.1464C5.05268 13.2402 5 13.3674 5 13.5Z" fill="white"/>
<path d="M19 10H14.5C13.9696 10 13.4609 9.78929 13.0858 9.41421C12.7107 9.03914 12.5 8.53043 12.5 8V5C12.5 4.46957 12.7107 3.96086 13.0858 3.58579C13.4609 3.21071 13.9696 3 14.5 3H19C19.5304 3 20.0391 3.21071 20.4142 3.58579C20.7893 3.96086 21 4.46957 21 5V8C21 8.53043 20.7893 9.03914 20.4142 9.41421C20.0391 9.78929 19.5304 10 19 10ZM14.5 5.5V7.5C14.5 7.63261 14.5527 7.75979 14.6464 7.85355C14.7402 7.94732 14.8674 8 15 8H18.5C18.6326 8 18.7598 7.94732 18.8536 7.85355C18.9473 7.75979 19 7.63261 19 7.5V5.5C19 5.36739 18.9473 5.24021 18.8536 5.14645C18.7598 5.05268 18.6326 5 18.5 5H15C14.8674 5 14.7402 5.05268 14.6464 5.14645C14.5527 5.24021 14.5 5.36739 14.5 5.5Z" fill="white"/>
<path d="M19 18H14.5C13.9696 18 13.4609 17.7893 13.0858 17.4142C12.7107 17.0391 12.5 16.5304 12.5 16V13C12.5 12.4696 12.7107 11.9609 13.0858 11.5858C13.4609 11.2107 13.9696 11 14.5 11H19C19.5304 11 20.0391 11.2107 20.4142 11.5858C20.7893 11.9609 21 12.4696 21 13V16C21 16.5304 20.7893 17.0391 20.4142 17.4142C20.0391 17.7893 19.5304 18 19 18ZM14.5 13.5V15.5C14.5 15.6326 14.5527 15.7598 14.6464 15.8536C14.7402 15.9473 14.8674 16 15 16H18.5C18.6326 16 18.7598 15.9473 18.8536 15.8536C18.9473 15.7598 19 15.6326 19 15.5V13.5C19 13.3674 18.9473 13.2402 18.8536 13.1464C18.7598 13.0527 18.6326 13 18.5 13H15C14.8674 13 14.7402 13.0527 14.6464 13.1464C14.5527 13.2402 14.5 13.3674 14.5 13.5Z" fill="white"/>
<path d="M11 19H3.5C3.22386 19 3 19.2239 3 19.5V20.5C3 20.7761 3.22386 21 3.5 21H11C11.2761 21 11.5 20.7761 11.5 20.5V19.5C11.5 19.2239 11.2761 19 11 19Z" fill="white"/>
<path d="M20.5 19H13C12.7239 19 12.5 19.2239 12.5 19.5V20.5C12.5 20.7761 12.7239 21 13 21H20.5C20.7761 21 21 20.7761 21 20.5V19.5C21 19.2239 20.7761 19 20.5 19Z" fill="white"/>
</svg>
