<svg width="24" height="24" viewBox="0 0 24 24" fill="none" xmlns="http://www.w3.org/2000/svg">
<path d="M12 8C11.2089 8 10.4355 8.2346 9.77772 8.67412C9.11993 9.11365 8.60723 9.73836 8.30448 10.4693C8.00173 11.2002 7.92252 12.0044 8.07686 12.7804C8.2312 13.5563 8.61216 14.269 9.17157 14.8284C9.73098 15.3878 10.4437 15.7688 11.2196 15.9231C11.9956 16.0775 12.7998 15.9983 13.5307 15.6955C14.2616 15.3928 14.8864 14.8801 15.3259 14.2223C15.7654 13.5645 16 12.7911 16 12C16 10.9391 15.5786 9.92172 14.8284 9.17157C14.0783 8.42143 13.0609 8 12 8ZM12 14C11.6044 14 11.2178 13.8827 10.8889 13.6629C10.56 13.4432 10.3036 13.1308 10.1522 12.7654C10.0009 12.3999 9.96126 11.9978 10.0384 11.6098C10.1156 11.2219 10.3061 10.8655 10.5858 10.5858C10.8655 10.3061 11.2219 10.1156 11.6098 10.0384C11.9978 9.96126 12.3999 10.0009 12.7654 10.1522C13.1308 10.3036 13.4432 10.56 13.6629 10.8889C13.8827 11.2178 14 11.6044 14 12C14 12.5304 13.7893 13.0391 13.4142 13.4142C13.0391 13.7893 12.5304 14 12 14Z" fill="white"/>
<path d="M21 13.39V10.61C20.9993 10.4979 20.9617 10.3892 20.893 10.3006C20.8243 10.212 20.7284 10.1486 20.62 10.12L19 9.72C18.8785 9.36 18.7314 9.00911 18.56 8.67L19.42 7.23C19.4778 7.13502 19.5023 7.02347 19.4897 6.91299C19.477 6.80251 19.4278 6.69942 19.35 6.62L17.35 4.62C17.2706 4.54216 17.1675 4.49302 17.057 4.48034C16.9465 4.46766 16.835 4.49217 16.74 4.55L15.3 5.41C14.9698 5.25011 14.629 5.11312 14.28 5L13.88 3.38C13.8514 3.27162 13.788 3.17567 13.6994 3.10698C13.6108 3.03829 13.5021 3.00069 13.39 3H10.61C10.4979 3.00069 10.3892 3.03829 10.3006 3.10698C10.212 3.17567 10.1486 3.27162 10.12 3.38L9.72 5C9.36 5.12155 9.00911 5.26858 8.67 5.44L7.23 4.58C7.13502 4.52217 7.02347 4.49766 6.91299 4.51034C6.80251 4.52302 6.69942 4.57216 6.62 4.65L4.62 6.65C4.54216 6.72942 4.49302 6.83251 4.48034 6.94299C4.46766 7.05347 4.49217 7.16502 4.55 7.26L5.41 8.7C5.25011 9.0302 5.11312 9.371 5 9.72L3.38 10.12C3.27162 10.1486 3.17567 10.212 3.10698 10.3006C3.03829 10.3892 3.00069 10.4979 3 10.61V13.39C3.00069 13.5021 3.03829 13.6108 3.10698 13.6994C3.17567 13.788 3.27162 13.8514 3.38 13.88L5 14.28C5.12155 14.64 5.26858 14.9909 5.44 15.33L4.58 16.77C4.52217 16.865 4.49766 16.9765 4.51034 17.087C4.52302 17.1975 4.57216 17.3006 4.65 17.38L6.65 19.38C6.72942 19.4578 6.83251 19.507 6.94299 19.5197C7.05347 19.5323 7.16502 19.5078 7.26 19.45L8.7 18.59C9.0302 18.7499 9.371 18.8869 9.72 19L10.12 20.62C10.1486 20.7284 10.212 20.8243 10.3006 20.893C10.3892 20.9617 10.4979 20.9993 10.61 21H13.39C13.5021 20.9993 13.6108 20.9617 13.6994 20.893C13.788 20.8243 13.8514 20.7284 13.88 20.62L14.28 19C14.64 18.8785 14.9909 18.7314 15.33 18.56L16.77 19.42C16.865 19.4778 16.9765 19.5023 17.087 19.4897C17.1975 19.477 17.3006 19.4278 17.38 19.35L19.38 17.35C19.4578 17.2706 19.507 17.1675 19.5197 17.057C19.5323 16.9465 19.5078 16.835 19.45 16.74L18.59 15.3C18.7499 14.9698 18.8869 14.629 19 14.28L20.62 13.88C20.7284 13.8514 20.8243 13.788 20.893 13.6994C20.9617 13.6108 20.9993 13.5021 21 13.39ZM17.36 12.63L17.22 13.22C17.0847 13.7861 16.8584 14.3264 16.55 14.82L16.23 15.34L17.11 16.79L16.79 17.11L15.34 16.23L14.82 16.55C14.3264 16.8584 13.7861 17.0847 13.22 17.22L12.63 17.36L12.22 19H11.78L11.37 17.36L10.78 17.22C10.2139 17.0847 9.67358 16.8584 9.18 16.55L8.66 16.23L7.21 17.11L6.89 16.79L7.77 15.34L7.45 14.82C7.14159 14.3264 6.91532 13.7861 6.78 13.22L6.64 12.63L5 12.22V11.78L6.64 11.37L6.78 10.78C6.91532 10.2139 7.14159 9.67358 7.45 9.18L7.77 8.66L6.89 7.21L7.21 6.9L8.66 7.77L9.18 7.45C9.67144 7.13746 10.2125 6.91089 10.78 6.78L11.37 6.64L11.78 5H12.22L12.63 6.64L13.22 6.78C13.7875 6.91089 14.3286 7.13746 14.82 7.45L15.34 7.77L16.79 6.9L17.11 7.21L16.23 8.66L16.55 9.18C16.8584 9.67358 17.0847 10.2139 17.22 10.78L17.36 11.37L19 11.78V12.22L17.36 12.63Z" fill="white"/>
</svg>
