<svg width="24" height="24" viewBox="0 0 24 24" fill="none" xmlns="http://www.w3.org/2000/svg">
<path d="M12 21.5C10.4178 21.5 8.87103 21.0308 7.55544 20.1518C6.23985 19.2727 5.21447 18.0233 4.60897 16.5615C4.00347 15.0997 3.84504 13.4911 4.15372 11.9393C4.4624 10.3874 5.22433 8.96197 6.34315 7.84315C7.46197 6.72433 8.88743 5.9624 10.4393 5.65372C11.9911 5.34504 13.5997 5.50347 15.0615 6.10897C16.5233 6.71447 17.7727 7.73985 18.6518 9.05544C19.5308 10.371 20 11.9178 20 13.5C20 15.6217 19.1571 17.6566 17.6569 19.1569C16.1566 20.6571 14.1217 21.5 12 21.5ZM12 7.5C10.8133 7.5 9.65328 7.8519 8.66658 8.51119C7.67989 9.17047 6.91085 10.1075 6.45673 11.2039C6.0026 12.3003 5.88378 13.5067 6.11529 14.6705C6.3468 15.8344 6.91825 16.9035 7.75736 17.7426C8.59648 18.5818 9.66558 19.1532 10.8295 19.3847C11.9933 19.6162 13.1997 19.4974 14.2961 19.0433C15.3925 18.5892 16.3295 17.8201 16.9888 16.8334C17.6481 15.8467 18 14.6867 18 13.5C18 11.9087 17.3679 10.3826 16.2426 9.25736C15.1174 8.13214 13.5913 7.5 12 7.5Z" fill="white"/>
<path d="M14.6896 2.5H9.30957C9.03343 2.5 8.80957 2.72386 8.80957 3V4C8.80957 4.27614 9.03343 4.5 9.30957 4.5H14.6896C14.9657 4.5 15.1896 4.27614 15.1896 4V3C15.1896 2.72386 14.9657 2.5 14.6896 2.5Z" fill="white"/>
<path d="M12.5 8.5H11.5C11.2239 8.5 11 8.72386 11 9V14C11 14.2761 11.2239 14.5 11.5 14.5H12.5C12.7761 14.5 13 14.2761 13 14V9C13 8.72386 12.7761 8.5 12.5 8.5Z" fill="white"/>
</svg>
