<svg width="24" height="24" viewBox="0 0 24 24" fill="none" xmlns="http://www.w3.org/2000/svg">
<path d="M17.9397 6.77L17.2297 6.06C17.1848 6.01217 17.1306 5.97404 17.0704 5.94798C17.0102 5.92192 16.9453 5.90848 16.8797 5.90848C16.8141 5.90848 16.7492 5.92192 16.689 5.94798C16.6288 5.97404 16.5746 6.01217 16.5297 6.06L11.9997 10.59L7.46972 6.06C7.42483 6.01217 7.37061 5.97404 7.31042 5.94798C7.25022 5.92192 7.18532 5.90848 7.11972 5.90848C7.05413 5.90848 6.98922 5.92192 6.92903 5.94798C6.86883 5.97404 6.81461 6.01217 6.76972 6.06L6.05972 6.77C6.01189 6.81489 5.97377 6.8691 5.94771 6.9293C5.92165 6.9895 5.9082 7.0544 5.9082 7.12C5.9082 7.18559 5.92165 7.25049 5.94771 7.31069C5.97377 7.37089 6.01189 7.42511 6.05972 7.47L10.5897 12L6.05972 16.53C6.01189 16.5749 5.97377 16.6291 5.94771 16.6893C5.92165 16.7495 5.9082 16.8144 5.9082 16.88C5.9082 16.9456 5.92165 17.0105 5.94771 17.0707C5.97377 17.1309 6.01189 17.1851 6.05972 17.23L6.76972 17.94C6.81461 17.9878 6.86883 18.0259 6.92903 18.052C6.98922 18.0781 7.05413 18.0915 7.11972 18.0915C7.18532 18.0915 7.25022 18.0781 7.31042 18.052C7.37061 18.0259 7.42483 17.9878 7.46972 17.94L11.9997 13.41L16.5297 17.94C16.5746 17.9878 16.6288 18.0259 16.689 18.052C16.7492 18.0781 16.8141 18.0915 16.8797 18.0915C16.9453 18.0915 17.0102 18.0781 17.0704 18.052C17.1306 18.0259 17.1848 17.9878 17.2297 17.94L17.9397 17.23C17.9876 17.1851 18.0257 17.1309 18.0517 17.0707C18.0778 17.0105 18.0912 16.9456 18.0912 16.88C18.0912 16.8144 18.0778 16.7495 18.0517 16.6893C18.0257 16.6291 17.9876 16.5749 17.9397 16.53L13.4097 12L17.9397 7.47C17.9876 7.42511 18.0257 7.37089 18.0517 7.31069C18.0778 7.25049 18.0912 7.18559 18.0912 7.12C18.0912 7.0544 18.0778 6.9895 18.0517 6.9293C18.0257 6.8691 17.9876 6.81489 17.9397 6.77Z" fill="white"/>
</svg>
