<svg width="24" height="24" viewBox="0 0 24 24" fill="none" xmlns="http://www.w3.org/2000/svg">
<path d="M11 7.71V16.41C11 16.5426 11.0526 16.6698 11.1464 16.7635C11.2402 16.8573 11.3674 16.91 11.5 16.91H12.5C12.6326 16.91 12.7598 16.8573 12.8535 16.7635C12.9473 16.6698 13 16.5426 13 16.41V7.71L15.82 10.52C15.8665 10.5669 15.9218 10.6041 15.9827 10.6294C16.0436 10.6548 16.109 10.6679 16.175 10.6679C16.241 10.6679 16.3063 10.6548 16.3673 10.6294C16.4282 10.6041 16.4835 10.5669 16.53 10.52L17.23 9.81999C17.2768 9.77351 17.314 9.71821 17.3394 9.65728C17.3648 9.59635 17.3779 9.531 17.3779 9.465C17.3779 9.39899 17.3648 9.33364 17.3394 9.27271C17.314 9.21178 17.2768 9.15648 17.23 9.10999L12.35 4.23C12.2565 4.13838 12.1308 4.08707 12 4.08707C11.8691 4.08707 11.7434 4.13838 11.65 4.23L6.76997 9.10999C6.72311 9.15648 6.68591 9.21178 6.66052 9.27271C6.63514 9.33364 6.62207 9.39899 6.62207 9.465C6.62207 9.531 6.63514 9.59635 6.66052 9.65728C6.68591 9.71821 6.72311 9.77351 6.76997 9.81999L7.46997 10.52C7.51645 10.5669 7.57175 10.6041 7.63268 10.6294C7.69361 10.6548 7.75896 10.6679 7.82497 10.6679C7.89098 10.6679 7.95633 10.6548 8.01726 10.6294C8.07819 10.6041 8.13349 10.5669 8.17997 10.52L11 7.71Z" fill="white"/>
<path d="M17.2398 15.41V16.41C17.2398 16.8078 17.0817 17.1893 16.8004 17.4706C16.5191 17.752 16.1376 17.91 15.7398 17.91H8.25978C7.86196 17.91 7.48042 17.752 7.19912 17.4706C6.91781 17.1893 6.75978 16.8078 6.75978 16.41V15.41C6.75722 15.2782 6.70372 15.1525 6.6105 15.0593C6.51728 14.966 6.39159 14.9125 6.25978 14.91H5.25978C5.12717 14.91 4.99999 14.9627 4.90623 15.0564C4.81246 15.1502 4.75978 15.2774 4.75978 15.41V16.41C4.75846 16.87 4.84809 17.3257 5.02351 17.7509C5.19894 18.1762 5.45669 18.5625 5.78196 18.8878C6.10723 19.2131 6.49359 19.4708 6.91883 19.6463C7.34406 19.8217 7.79978 19.9113 8.25978 19.91H15.7398C16.1998 19.9113 16.6555 19.8217 17.0807 19.6463C17.506 19.4708 17.8923 19.2131 18.2176 18.8878C18.5429 18.5625 18.8006 18.1762 18.976 17.7509C19.1515 17.3257 19.2411 16.87 19.2398 16.41V15.41C19.2398 15.2774 19.1871 15.1502 19.0933 15.0564C18.9996 14.9627 18.8724 14.91 18.7398 14.91H17.7398C17.608 14.9125 17.4823 14.966 17.3891 15.0593C17.2958 15.1525 17.2423 15.2782 17.2398 15.41Z" fill="white"/>
</svg>
