<svg width="24" height="24" viewBox="0 0 24 24" fill="none" xmlns="http://www.w3.org/2000/svg">
<path d="M12 8C11.2089 8 10.4355 8.2346 9.77772 8.67412C9.11993 9.11365 8.60723 9.73836 8.30448 10.4693C8.00173 11.2002 7.92252 12.0044 8.07686 12.7804C8.2312 13.5563 8.61216 14.269 9.17157 14.8284C9.73098 15.3878 10.4437 15.7688 11.2196 15.9231C11.9956 16.0775 12.7998 15.9983 13.5307 15.6955C14.2616 15.3928 14.8864 14.8801 15.3259 14.2223C15.7654 13.5645 16 12.7911 16 12C16 10.9391 15.5786 9.92172 14.8284 9.17157C14.0783 8.42143 13.0609 8 12 8ZM12 14C11.6044 14 11.2178 13.8827 10.8889 13.6629C10.56 13.4432 10.3036 13.1308 10.1522 12.7654C10.0009 12.3999 9.96126 11.9978 10.0384 11.6098C10.1156 11.2219 10.3061 10.8655 10.5858 10.5858C10.8655 10.3061 11.2219 10.1156 11.6098 10.0384C11.9978 9.96126 12.3999 10.0009 12.7654 10.1522C13.1308 10.3036 13.4432 10.56 13.6629 10.8889C13.8827 11.2178 14 11.6044 14 12C14 12.5304 13.7893 13.0391 13.4142 13.4142C13.0391 13.7893 12.5304 14 12 14Z" fill="white"/>
<path d="M20.2398 9.54C19.8297 8.95066 19.3569 8.40749 18.8298 7.92C16.9633 6.21595 14.5272 5.27118 11.9998 5.27118C9.47243 5.27118 7.03633 6.21595 5.16981 7.92C4.64268 8.40749 4.16993 8.95066 3.75981 9.54L2.20981 11.71C2.14655 11.7934 2.1123 11.8953 2.1123 12C2.1123 12.1047 2.14655 12.2066 2.20981 12.29L3.76981 14.48C4.18263 15.0642 4.65518 15.6038 5.17981 16.09C7.04515 17.7884 9.4771 18.7297 11.9998 18.7297C14.5225 18.7297 16.9545 17.7884 18.8198 16.09C19.3444 15.6038 19.817 15.0642 20.2298 14.48L21.7898 12.29C21.8531 12.2066 21.8873 12.1047 21.8873 12C21.8873 11.8953 21.8531 11.7934 21.7898 11.71L20.2398 9.54ZM18.5798 13.34C17.8325 14.3886 16.8455 15.2434 15.7009 15.8331C14.5564 16.4229 13.2874 16.7307 11.9998 16.7307C10.7122 16.7307 9.44327 16.4229 8.2987 15.8331C7.15413 15.2434 6.16709 14.3886 5.41981 13.34L4.45981 12L5.45981 10.66C6.20709 9.61144 7.19413 8.75665 8.3387 8.16686C9.48327 7.57707 10.7522 7.26935 12.0398 7.26935C13.3274 7.26935 14.5964 7.57707 15.7409 8.16686C16.8855 8.75665 17.8725 9.61144 18.6198 10.66L19.6198 12L18.5798 13.34Z" fill="white"/>
</svg>
