<svg width="24" height="24" viewBox="0 0 24 24" fill="none" xmlns="http://www.w3.org/2000/svg">
<mask id="mask0_432_1557" style="mask-type:alpha" maskUnits="userSpaceOnUse" x="0" y="0" width="24" height="24">
<rect width="24" height="24" fill="#D9D9D9"/>
</mask>
<g mask="url(#mask0_432_1557)">
<path d="M3.5 21C3.22386 21 3 20.7761 3 20.5V16.5C3 16.2239 3.22386 16 3.5 16H4.5C4.77614 16 5 16.2239 5 16.5V19H7.5C7.77614 19 8 19.2239 8 19.5V20.5C8 20.7761 7.77614 21 7.5 21H3.5ZM16.5 21C16.2239 21 16 20.7761 16 20.5V19.5C16 19.2239 16.2239 19 16.5 19H19V16.5C19 16.2239 19.2239 16 19.5 16H20.5C20.7761 16 21 16.2239 21 16.5V20.5C21 20.7761 20.7761 21 20.5 21H16.5ZM3.5 8C3.22386 8 3 7.77614 3 7.5V3.5C3 3.22386 3.22386 3 3.5 3H7.5C7.77614 3 8 3.22386 8 3.5V4.5C8 4.77614 7.77614 5 7.5 5H5V7.5C5 7.77614 4.77614 8 4.5 8H3.5ZM19.5 8C19.2239 8 19 7.77614 19 7.5V5H16.5C16.2239 5 16 4.77614 16 4.5V3.5C16 3.22386 16.2239 3 16.5 3H20.5C20.7761 3 21 3.22386 21 3.5V7.5C21 7.77614 20.7761 8 20.5 8H19.5Z" fill="white"/>
</g>
</svg>
