<svg width="24" height="24" viewBox="0 0 24 24" fill="none" xmlns="http://www.w3.org/2000/svg">
<mask id="mask0_432_1558" style="mask-type:alpha" maskUnits="userSpaceOnUse" x="0" y="0" width="24" height="24">
<rect width="24" height="24" fill="#D9D9D9"/>
</mask>
<g mask="url(#mask0_432_1558)">
<path d="M6.5 21C6.22386 21 6 20.7761 6 20.5V18H3.5C3.22386 18 3 17.7761 3 17.5V16.5C3 16.2239 3.22386 16 3.5 16H7.5C7.77614 16 8 16.2239 8 16.5V20.5C8 20.7761 7.77614 21 7.5 21H6.5ZM16.5 21C16.2239 21 16 20.7761 16 20.5V16.5C16 16.2239 16.2239 16 16.5 16H20.5C20.7761 16 21 16.2239 21 16.5V17.5C21 17.7761 20.7761 18 20.5 18H18V20.5C18 20.7761 17.7761 21 17.5 21H16.5ZM3.5 8C3.22386 8 3 7.77614 3 7.5V6.5C3 6.22386 3.22386 6 3.5 6H6V3.5C6 3.22386 6.22386 3 6.5 3H7.5C7.77614 3 8 3.22386 8 3.5V7.5C8 7.77614 7.77614 8 7.5 8H3.5ZM16.5 8C16.2239 8 16 7.77614 16 7.5V3.5C16 3.22386 16.2239 3 16.5 3H17.5C17.7761 3 18 3.22386 18 3.5V6H20.5C20.7761 6 21 6.22386 21 6.5V7.5C21 7.77614 20.7761 8 20.5 8H16.5Z" fill="white"/>
</g>
</svg>
