<svg width="205" height="28" viewBox="0 0 205 28" fill="none" xmlns="http://www.w3.org/2000/svg">
<rect width="205" height="28" rx="8" fill="#FFF1C5"/>
<g clip-path="url(#clip0_304_4)">
<path d="M196.993 12.0533C196.993 13.7606 195.855 15.2013 193.828 15.2013C191.805 15.2013 190.666 13.7606 190.666 12.0533C190.666 10.3502 191.805 8.91359 193.828 8.91359C195.855 8.91776 196.993 10.3502 196.993 12.0533ZM193.828 14.5559C195.36 14.5559 196.227 13.4524 196.227 12.0533C196.227 10.6583 195.364 9.55902 193.828 9.55902C192.304 9.55902 191.441 10.6625 191.432 12.0533C191.436 13.4566 192.3 14.5559 193.828 14.5559ZM194.598 12.4947C195.783 12.2324 195.538 10.4501 194.099 10.4501H192.545V13.6523H193.404V12.6613H193.705L194.479 13.6565H195.402V13.4732L194.598 12.4947ZM194.099 11.2122C194.606 11.2122 194.606 11.945 194.099 11.945H193.409V11.2122H194.099ZM115.961 19.8401C115.961 21.31 114.475 22.4551 112.791 22.2219C113.218 22.6175 114.259 22.884 114.814 22.6383C114.496 23.2005 112.977 24 111.538 23.6252C110.192 23.2713 109.604 22.0096 109.57 21.2059C108.935 21.8305 109.109 22.8507 109.562 23.2505C109.037 23.1172 108.245 22.5801 108.114 21.6182C108 20.7937 108.47 19.8484 107.593 19.0906C107.069 18.6367 106.273 17.9913 105.757 17.5915C104.673 16.7587 105.084 16.1466 104.842 15.7052C104.656 15.3637 104.203 15.1763 103.928 14.864C103.653 14.5517 103.666 14.0895 103.818 13.823C103.772 14.1936 104.043 14.4726 104.402 14.5892C104.8 14.7183 105.139 14.61 105.477 14.8057C105.888 15.0389 105.697 15.6677 105.994 15.8884C106.26 16.0841 106.925 15.8218 107.492 16.2715C108.063 16.7212 109.337 17.7664 109.887 18.2119C110.874 19.0114 111.894 18.0995 111.555 17.1834C112.558 17.7664 112.668 19.4029 111.834 19.9733C112.621 20.1482 114.039 19.8026 114.039 18.6825C114.039 17.9954 113.396 17.5124 112.939 17.4374C114.551 17.2875 115.961 18.4035 115.961 19.8401ZM99.0102 11.2996C99.1076 10.9207 98.3415 10.2711 98.058 10.1462C99.1076 10.1045 99.6324 10.3002 99.6324 10.3002C99.3573 9.90048 99.2684 9.29252 99.425 8.80949C100.001 10.1628 102.049 10.3793 102.557 11.5036C102.485 11.0164 102.019 10.4751 101.482 10.1586C101.19 9.42161 101.41 8.06412 101.761 7.68936C101.639 9.6423 104.47 10.7583 105.058 12.1782C104.711 10.9623 103.395 10.1961 102.764 9.46741C102.557 8.98438 102.718 8.16822 102.942 7.88923C102.874 9.19675 104.309 10.2169 105.079 10.9457C105.981 11.8076 106.239 12.5655 106.116 13.1901C106.315 13.2401 106.586 13.4316 106.54 13.7522C106.827 13.6856 107.124 13.3608 107.191 13.1609C107.331 14.1312 106.751 15.1597 106.104 15.4637C106.104 15.4637 106.281 15.0015 105.981 14.6475C105.689 14.2977 104.859 14.2936 104.58 14.3144C104.58 14.3144 104.927 13.8105 104.787 13.5565C104.618 13.2442 102.997 13.3816 102.269 13.6398C102.515 13.6148 103.103 13.6773 103.306 13.7606C103.192 13.9271 102.896 14.6309 103.107 14.8432C103.306 15.0348 103.564 14.7016 103.564 14.7016C103.564 14.7016 103.31 15.472 103.492 15.651C103.674 15.8259 104.064 15.701 104.064 15.701C103.822 16.3048 102.879 16.7212 102.218 16.7212C102.455 16.6463 102.841 16.234 102.9 15.9883C102.726 16.0716 102.278 16.1216 102.1 16.0924C102.316 16.0092 102.743 15.4637 102.608 14.8599C102.413 13.9729 101.156 13.8605 100.525 14.2894C100.729 13.6939 101.342 13.136 101.821 12.9527C101.541 12.857 101.211 12.7737 100.86 12.7112C101.262 12.3864 102.273 12.1241 102.786 12.1491C102.003 11.9492 100.564 12.1949 99.9075 12.9611C100.115 12.9611 100.661 13.061 100.868 13.1276C99.9625 13.29 98.7351 14.1145 98.3754 14.5059C98.4727 13.9938 98.6166 13.5565 98.4939 13.2484C98.3204 12.8153 97.7829 12.6321 96.7121 12.8486C97.4316 12.1283 98.9087 11.6869 99.0102 11.2996ZM105.211 13.1776L105.113 12.8611C105.105 12.8278 104.855 12.0575 104.017 11.7576L103.56 11.5911L103.691 12.0533C103.806 12.4489 104.017 13.1776 104.872 13.1776H105.211ZM72.8966 14.2103C72.8966 17.25 70.4376 19.5403 67.1745 19.5403C63.8902 19.5403 61.5073 17.3292 61.5073 14.2769C61.5073 11.1788 63.8775 8.93441 67.1448 8.93441C70.4207 8.93441 72.8966 11.2038 72.8966 14.2103ZM69.8832 14.2103C69.8832 12.5238 68.7997 11.437 67.1195 11.437C65.5069 11.437 64.5081 12.528 64.5081 14.2811C64.5081 15.9758 65.5662 17.0668 67.2041 17.0668C68.7785 17.0668 69.8832 15.8926 69.8832 14.2103ZM19.4885 14.2061C19.4885 15.4012 19.0907 16.5796 18.3966 17.4333C18.0919 17.8122 17.7152 18.1495 17.275 18.4451C16.2381 19.128 15.2816 19.382 13.7452 19.382H8.27702L8.5098 19.2488C8.5098 19.2446 9.18698 18.8574 9.50017 18.67C9.8049 18.4909 9.92764 18.316 9.92764 17.6789V11.7327C9.92764 11.0789 9.74565 10.8999 9.48748 10.7166C8.13736 9.74641 8.02308 8.6346 8.01885 8.5888L8.00615 8.43889L8.13312 8.52217C8.13736 8.52633 8.58599 8.80949 9.0854 8.92192C9.661 9.05101 10.4525 9.07599 12.1158 9.07599H14.2192V9.08432C15.2689 9.12596 16.0349 9.31334 16.7925 9.70476C18.4812 10.5751 19.4885 12.2573 19.4885 14.2061ZM16.4497 14.2311C16.4497 12.5447 15.5651 11.5744 14.0246 11.5744H12.848V16.8711H14.0246C15.5651 16.8753 16.4497 15.9092 16.4497 14.2311ZM89.0515 12.782L88.6283 12.6821L88.5902 12.6737C87.5956 12.4406 86.9438 12.2573 86.9438 11.8409C86.9438 11.6994 86.9819 11.5869 87.0708 11.5078C87.2443 11.3329 87.6125 11.2371 88.0992 11.2371C88.1796 11.2371 88.2643 11.2413 88.3489 11.2455H88.3786C88.3955 11.2455 88.4124 11.2496 88.4294 11.2496C89.3308 11.3288 90.4016 11.7118 91.5063 12.4322L91.337 9.39246L91.1338 9.32583L91.0957 9.31334C91.0788 9.30501 90.9645 9.26754 90.6175 9.19258C90.4101 9.14678 89.3478 8.92192 88.7087 8.87612C88.5013 8.85946 88.2982 8.85113 88.1035 8.85113C85.7757 8.85113 84.4086 9.93795 84.2647 11.9159C84.1928 12.9028 84.6837 13.8688 85.5217 14.3685C86.2666 14.8141 87.3797 15.1514 88.1923 15.397L88.3786 15.4512C88.8864 15.6052 89.4705 15.9134 89.3901 16.513C89.3478 16.8253 89.225 17.1626 88.2685 17.1626C88.1289 17.1626 87.9765 17.1543 87.8114 17.1418C87.1512 17.0835 86.3809 16.7129 85.526 16.0425C85.4921 16.0133 85.4625 15.9925 85.4455 15.98L84.9165 15.5844L84.3748 15.1805L84.5906 19.0323L84.798 19.0989L84.8319 19.1114C84.8403 19.1114 84.9504 19.1489 85.3059 19.228C85.6572 19.3029 86.8126 19.5028 87.4009 19.5444C87.5914 19.5569 87.786 19.5653 87.9765 19.5653C90.5244 19.5653 92.2004 18.3202 92.2512 16.3923C92.3062 14.5392 91.2269 13.3233 89.0515 12.782ZM58.604 16.8753H56.2296V15.3679H58.4516C58.7436 15.3637 59.0568 15.3596 59.2346 15.447C59.442 15.5469 59.5901 15.7551 59.5901 15.7593L59.6959 15.9175L59.6917 12.6196L59.6028 12.6696C59.5986 12.6696 59.4589 12.757 59.3404 12.807C59.2346 12.8486 59.1626 12.8695 58.6844 12.8695H56.2254V11.5828H58.6886C59.3192 11.5828 59.4589 11.6369 59.8186 11.8867L60.4281 12.3448L60.1064 9.08015H51.7306L51.9549 9.21341C51.9592 9.21757 52.5305 9.55902 52.8733 9.78805C53.1908 9.99625 53.3093 10.1378 53.3093 10.8041V17.6706C53.3093 18.3452 53.2035 18.466 52.8818 18.6617C52.5601 18.8574 51.8999 19.2321 51.8957 19.2363L51.6587 19.3737H60.3434L61.1222 15.9384C61.1222 15.9384 60.4239 16.4339 60.2249 16.5588C59.8398 16.792 59.5393 16.8753 58.604 16.8753ZM42.3179 9.08432H36.3883L36.6126 9.21757C36.6169 9.22173 37.1882 9.56319 37.5311 9.79221C37.8485 10.0004 37.967 10.1378 37.967 10.8082V13.3025L33.5907 9.08432H26.7089C26.5058 9.08432 26.2857 9.20924 26.2772 9.21341L26.2095 9.25505L26.2561 9.32167C26.2561 9.32167 26.4084 9.52571 26.4973 9.66312C26.565 9.76723 26.6031 9.83802 26.6158 10.117V15.3762L26.62 15.4179C26.6031 16.5255 26.1037 17.0876 25.0456 17.0876C23.9706 17.0876 23.4246 16.5047 23.4246 15.3679L23.4204 10.1212C23.4289 9.84634 23.4669 9.77555 23.5347 9.66729C23.6235 9.52987 23.7759 9.32583 23.7801 9.32583L23.8267 9.25921L23.7547 9.21757C23.7463 9.2134 23.5262 9.08848 23.323 9.08848H18.9214L19.1457 9.22173C19.1499 9.2259 19.7171 9.56735 20.0684 9.79637C20.3858 10.0004 20.5043 10.142 20.5043 10.8124V15.0598C20.5043 15.9967 20.6186 16.7462 20.8344 17.2334C20.991 17.579 21.2323 17.9121 21.5751 18.2536C22.4723 19.1239 23.6066 19.5486 25.0371 19.5486C27.0264 19.5486 28.5839 18.6658 29.206 17.1876C29.4473 16.6129 29.5277 16.1008 29.5277 15.143V10.8124C29.5277 10.142 29.6504 10.0046 29.9636 9.79637C30.1541 9.67562 30.4038 9.52155 30.5942 9.40079C30.772 9.51738 31.0005 9.66729 31.1614 9.78388C31.4661 10.0004 31.61 10.2211 31.61 10.8915V17.6789C31.61 18.3452 31.4873 18.4868 31.1825 18.67C30.8482 18.8699 30.1964 19.2405 30.1964 19.2446L29.9594 19.382H35.9058L35.6646 19.2446C35.6561 19.2405 34.9959 18.8657 34.6784 18.67C34.3822 18.4868 34.251 18.3327 34.251 17.6789V13.5857L40.608 19.711V10.8041C40.608 10.142 40.7223 10.0046 41.0439 9.78805C41.3952 9.55486 42.0427 9.22173 42.0512 9.21757L42.3179 9.08432ZM84.726 9.08432H78.7965L79.0166 9.21757C79.0251 9.22173 79.5922 9.56319 79.935 9.79221C80.2524 10.0004 80.371 10.1378 80.371 10.8082V13.3025L75.9947 9.08848H72.5115L72.7189 9.22173C72.7231 9.2259 73.2564 9.56735 73.5653 9.78805C73.8701 10.0046 74.014 10.2253 74.014 10.8957V17.6831C74.014 18.3494 73.8912 18.4909 73.5865 18.6742C73.2521 18.874 72.6046 19.2446 72.5961 19.2488L72.3549 19.3862H78.3056L78.0643 19.2488C78.0559 19.2446 77.3998 18.8699 77.0782 18.6742C76.7777 18.4909 76.6507 18.3369 76.6507 17.6831V13.5898L83.0077 19.7152V10.8041C83.0077 10.142 83.1177 10.0046 83.4436 9.78805C83.7949 9.55486 84.4425 9.22173 84.4509 9.21757L84.726 9.08432ZM51.6756 18.7783C51.6756 18.7741 51.519 18.5701 51.4301 18.4326C51.3497 18.3119 51.3031 18.2078 51.3031 17.783V15.0056C51.3031 14.585 51.3412 14.5059 51.4216 14.381C51.5105 14.2436 51.6629 14.0396 51.6629 14.0354L51.7137 13.9688L51.6375 13.9271C51.629 13.923 51.4343 13.823 51.2143 13.798V13.8022C51.155 13.798 46.7576 13.798 46.7576 13.798L46.9819 13.9313C46.9819 13.9313 47.6379 14.3269 47.93 14.5059C48.2178 14.685 48.3659 14.889 48.3659 15.497V17.0085C48.0358 17.1126 47.6929 17.1584 47.2866 17.1584C45.4921 17.1584 44.5822 16.2049 44.5822 14.3269C44.5822 12.5363 45.581 11.5078 47.3163 11.5078C48.404 11.5078 49.5467 11.7576 50.9434 12.7903L50.9349 12.7154L50.6133 9.73808L50.5921 9.51738L50.372 9.46741L50.1604 9.42161C49.2293 9.20924 48.8653 9.15094 48.3109 9.08432C47.985 9.04684 47.8072 9.02602 47.3967 9.02602H47.2189C43.9431 9.02602 41.5645 11.2829 41.5645 14.3852C41.5645 17.4416 43.9558 19.6652 47.2485 19.6652C47.8241 19.6652 48.933 19.5611 49.6314 19.4195C49.7626 19.3904 49.8387 19.3737 49.9446 19.3487C49.9657 19.3404 49.9911 19.3362 50.0123 19.3321C50.4059 19.2405 50.808 19.1405 51.21 19.0198L51.7221 18.8615L51.6756 18.7783ZM129.568 14.2061C129.568 15.4012 129.17 16.5796 128.476 17.4333C128.171 17.8122 127.794 18.1495 127.354 18.4451C126.317 19.128 125.361 19.382 123.825 19.382H118.356L118.589 19.2488C118.589 19.2446 119.266 18.8574 119.579 18.67C119.884 18.4909 120.007 18.316 120.007 17.6789V11.7327C120.007 11.0789 119.825 10.8999 119.563 10.7166C118.212 9.74641 118.102 8.6346 118.098 8.5888L118.085 8.43889L118.212 8.52217C118.217 8.52633 118.665 8.80949 119.16 8.92192C119.736 9.05101 120.528 9.07599 122.191 9.07599H124.294V9.08432C125.344 9.12596 126.11 9.31334 126.868 9.70476C128.556 10.5751 129.568 12.2573 129.568 14.2061ZM126.525 14.2311C126.525 12.5447 125.64 11.5744 124.1 11.5744H122.923V16.8711H124.1C125.64 16.8753 126.525 15.9092 126.525 14.2311ZM187.255 12.782L186.832 12.6821L186.794 12.6737C185.799 12.4406 185.147 12.2573 185.147 11.8409C185.147 11.6994 185.189 11.5869 185.274 11.5036C185.452 11.3288 185.812 11.233 186.303 11.233C186.383 11.233 186.468 11.2371 186.552 11.2413H186.586C186.603 11.2455 186.62 11.2455 186.637 11.2496C187.538 11.3288 188.613 11.7118 189.714 12.4322L189.54 9.39246L189.337 9.32583L189.299 9.31334C189.282 9.30918 189.168 9.26754 188.825 9.19675C188.618 9.15094 187.555 8.92608 186.916 8.88028C186.709 8.86362 186.506 8.85946 186.311 8.85946C183.979 8.85946 182.616 9.94628 182.472 11.9242C182.4 12.9111 182.895 13.8772 183.725 14.3768C184.47 14.8224 185.583 15.1597 186.396 15.4054L186.582 15.4595C187.09 15.6136 187.678 15.9217 187.598 16.5213C187.555 16.8336 187.433 17.1709 186.476 17.1709C186.336 17.1709 186.188 17.1626 186.019 17.1501C185.359 17.0918 184.588 16.7212 183.734 16.0508C183.7 16.0217 183.67 16.0008 183.653 15.9883L183.124 15.5928L182.578 15.1888L182.794 19.0406L182.997 19.1072L183.035 19.1197C183.044 19.1197 183.158 19.1572 183.509 19.2363C183.86 19.3154 185.016 19.5111 185.608 19.5528C185.799 19.5653 185.994 19.5736 186.184 19.5736C188.728 19.5736 190.408 18.3285 190.459 16.4006C190.51 14.5392 189.426 13.3233 187.255 12.782ZM171.096 14.2186C171.096 17.2584 168.637 19.5486 165.374 19.5486C162.089 19.5486 159.706 17.3333 159.706 14.2852C159.706 11.1872 162.077 8.93858 165.344 8.93858C168.624 8.94274 171.096 11.2122 171.096 14.2186ZM168.086 14.2186C168.086 12.5322 167.003 11.4453 165.319 11.4453C163.706 11.4453 162.703 12.5322 162.703 14.2852C162.703 15.98 163.765 17.0752 165.403 17.0752C166.982 17.0752 168.086 15.9009 168.086 14.2186ZM149.625 18.6908L150.51 19.3737H145.037C145.037 19.3737 145.503 18.9365 145.71 18.72C145.892 18.5326 145.985 18.3452 145.85 18.0287C145.82 17.9496 145.757 17.783 145.68 17.5707H141.888C141.812 17.7747 141.749 17.9413 141.71 18.0287C141.558 18.3993 141.592 18.5034 141.804 18.7033C142.036 18.924 142.608 19.3737 142.608 19.3737H136.869L134.236 16.2507L134.232 16.2423L134.228 16.234C133.94 15.8468 133.724 15.6302 133.525 15.5261C133.473 15.5046 133.419 15.4879 133.364 15.4762V17.6706C133.364 18.316 133.487 18.4326 133.8 18.6658C134.118 18.9032 135.045 19.3737 135.045 19.3737H128.925C128.925 19.3737 129.86 18.8574 130.152 18.6658C130.423 18.4868 130.584 18.3285 130.584 17.6748V10.8207C130.584 10.1836 130.444 9.98792 130.148 9.80887C129.843 9.62148 129.225 9.23839 129.225 9.23839L129.009 9.10098H133.991C134.947 9.11347 135.328 9.14262 135.861 9.30085C137.144 9.66312 137.935 10.7125 137.935 12.0366C137.935 12.6529 137.757 13.2234 137.427 13.6898C137.178 14.052 136.847 14.3519 136.467 14.5642C137.563 16.005 138.426 17.0752 138.959 17.6498C138.993 17.5873 142.129 10.1462 142.129 10.1462C142.138 10.092 142.146 10.0462 142.146 10.0046C142.146 9.95044 142.146 9.88798 141.99 9.75057L141.249 9.08848H145.371C145.371 9.08848 148.804 17.654 148.829 17.7081H148.825C148.922 17.9205 148.948 17.9621 149.045 18.112C149.185 18.3202 149.236 18.391 149.625 18.6908ZM135.07 12.02C135.07 11.4911 134.723 11.1414 133.711 11.1372L133.36 11.1414V13.5399C133.508 13.544 133.652 13.544 133.707 13.544C134.372 13.5399 135.07 13.3941 135.07 12.02ZM144.796 15.1305L143.852 12.5988L142.828 15.1305H144.796ZM182.929 9.08432H177L177.224 9.21757C177.228 9.22173 177.796 9.56319 178.147 9.78805C178.464 9.99625 178.583 10.1378 178.583 10.8041V13.2984L174.206 9.08432H170.723L170.931 9.21757C170.935 9.22173 171.468 9.56319 171.777 9.78388C172.082 10.0004 172.226 10.2211 172.226 10.8915V17.6789C172.226 18.3452 172.103 18.4868 171.802 18.67C171.468 18.8699 170.816 19.2405 170.812 19.2446L170.575 19.382H176.522L176.285 19.2446C176.276 19.2405 175.616 18.8657 175.298 18.67C175.002 18.4868 174.871 18.3327 174.871 17.6789V13.5857L181.228 19.711V10.8041C181.228 10.142 181.342 10.0046 181.664 9.78805C182.015 9.55486 182.663 9.22173 182.671 9.21757L182.929 9.08432ZM158.868 18.341C158.788 18.2203 158.741 18.112 158.741 17.6914V14.914C158.741 14.4934 158.78 14.4143 158.86 14.2894C158.949 14.152 159.101 13.9479 159.101 13.9479L159.152 13.8813L159.076 13.8397C159.067 13.8355 158.873 13.7356 158.653 13.7106V13.7148C158.593 13.7106 154.196 13.7106 154.196 13.7106L154.42 13.848C154.42 13.848 155.076 14.2394 155.373 14.4226C155.66 14.5975 155.804 14.8016 155.804 15.4137V16.9253C155.474 17.0294 155.131 17.0752 154.725 17.0752C152.93 17.0752 152.02 16.1216 152.02 14.2394C152.02 12.4489 153.015 11.4204 154.755 11.4204C155.842 11.4204 156.989 11.666 158.382 12.6987L158.373 12.6238L158.052 9.64647L158.026 9.42577L157.81 9.3758L157.599 9.32583C156.668 9.11347 156.304 9.05933 155.749 8.98855C155.423 8.95107 155.246 8.93025 154.835 8.93025H154.657C151.381 8.93025 149.003 11.183 149.003 14.2894C149.003 17.3458 151.394 19.5694 154.687 19.5694C155.262 19.5694 156.371 19.4653 157.07 19.3196C157.201 19.2904 157.277 19.2738 157.383 19.2488L157.451 19.2363C157.844 19.1447 158.246 19.0448 158.648 18.924L159.16 18.7658L159.101 18.6825C159.11 18.6825 158.957 18.4784 158.868 18.341ZM112.478 12.2698C110.222 12.3781 108.292 14.2561 107.293 15.5886C107.471 15.6469 107.653 15.7302 107.83 15.8676C108.038 16.0341 108.347 16.2798 108.673 16.5463C108.939 15.9634 109.545 14.7891 110.467 13.7481C111.309 12.7987 112.782 12.7071 113.553 13.2859C114.048 12.8445 115.762 12.4281 116.663 12.6821C116.117 12.0949 114.949 11.3079 113.658 11.3079C112.596 11.3079 111.995 11.8201 111.843 11.5911C111.648 11.2954 112.562 10.8582 112.562 10.8582C111.305 10.9082 110.395 12.3614 110.014 12.1824C109.786 12.0741 110.353 11.3704 110.353 11.3704C109.206 12.0283 108.241 13.4149 108.042 14.2644C109.092 12.9902 111.144 12.0783 112.478 12.2698ZM105.621 18.1495C105.041 19.1156 103.831 20.3606 102.595 20.3606C100.322 20.3606 99.1795 17.2001 101.715 14.6059C101.571 14.5601 101.431 14.5559 101.385 14.5559C101.169 14.5559 100.961 14.61 100.822 14.7058L99.7001 15.6552L100.018 14.1103C100.039 14.0562 100.056 14.0062 100.081 13.9521C99.5181 14.2353 98.9721 14.6225 98.7605 14.8474L97.7448 15.9342L97.8463 14.3977L97.9141 14.0604C97.9648 13.823 98.0283 13.5232 97.9902 13.4274C97.9752 13.398 97.9535 13.3724 97.9268 13.3525C97.457 13.7106 96.1746 14.8224 96.0222 16.4755C96.0222 16.4755 96.2719 16.1299 96.4878 16.0466C96.6317 15.9925 96.7544 16.0633 96.619 16.4755C96.5682 16.6379 95.3196 19.9525 97.7702 22.2511C97.7702 22.2511 97.4993 21.5765 97.6644 21.3725C97.7448 21.2725 97.8463 21.2642 97.9902 21.4433C98.0918 21.5807 98.2019 21.7139 98.3204 21.843V21.8472C98.5235 22.0762 98.7436 22.2886 98.9891 22.4718C99.7213 22.9756 100.716 23.3837 101.85 23.3837C104.868 23.3837 106.468 21.3517 107.361 19.6277C107.318 19.5778 107.289 19.5278 107.234 19.482C106.785 19.0864 106.125 18.5451 105.621 18.1495ZM98.8367 9.63398C98.7944 9.30085 98.8155 8.9594 98.9171 8.65126L99.3573 7.29794L99.9117 8.60545C100.073 8.98438 100.411 9.26337 100.817 9.51738C100.784 8.88861 100.898 8.18905 101.126 7.71018C101.08 6.69831 101.791 5.94045 102.642 5.94045C104.098 5.94045 104.487 7.6727 103.81 8.91359C104.123 9.37997 104.601 9.80887 105.024 10.1836C105.177 10.3169 105.316 10.446 105.443 10.5626C105.482 10.6042 105.503 10.6375 105.545 10.675C106.176 9.83385 106.641 8.65542 106.641 7.76847C106.641 5.92796 105.426 4.22069 102.896 4.08328C101.291 4 100.208 4.48719 99.3996 5.29502C99.0356 5.66146 98.223 6.59004 98.3754 8.26816C98.4346 8.90526 98.6505 9.34665 98.8367 9.63398Z" fill="#E26E00"/>
</g>
<defs>
<clipPath id="clip0_304_4">
<rect width="189" height="20" fill="white" transform="translate(8 4)"/>
</clipPath>
</defs>
</svg>
