<svg width="24" height="24" viewBox="0 0 24 24" fill="none" xmlns="http://www.w3.org/2000/svg">
<path d="M19.7198 9.70001L12.7198 3.31001C12.5361 3.14417 12.2973 3.05237 12.0498 3.05237C11.8023 3.05237 11.5636 3.14417 11.3798 3.31001L4.3798 9.70001C4.27621 9.7935 4.19333 9.90764 4.1365 10.0351C4.07967 10.1625 4.05013 10.3005 4.0498 10.44V13.56C4.05013 13.6996 4.07967 13.8375 4.1365 13.9649C4.19333 14.0924 4.27621 14.2065 4.3798 14.3L11.4298 20.69C11.6136 20.8558 11.8523 20.9476 12.0998 20.9476C12.3473 20.9476 12.5861 20.8558 12.7698 20.69L19.7698 14.3C19.8734 14.2065 19.9563 14.0924 20.0131 13.9649C20.0699 13.8375 20.0995 13.6996 20.0998 13.56V10.44C20.0933 10.2966 20.056 10.1563 19.9904 10.0286C19.9248 9.90093 19.8325 9.78885 19.7198 9.70001ZM18.0498 13.11L11.9998 18.6L5.9998 13.11V10.89L11.9998 5.40001L18.0498 10.89V13.11Z" fill="white"/>
<path d="M7.9502 9.87001V10.85L8.9402 10.58V14.8H10.1902V9.20001H9.4702L7.9502 9.87001Z" fill="white"/>
<path d="M11.3795 10.49C10.9985 11.4537 10.9985 12.5263 11.3795 13.49C11.5698 13.8954 11.8671 14.2412 12.2395 14.49C12.6411 14.7316 13.1009 14.8592 13.5695 14.8592C14.0381 14.8592 14.4979 14.7316 14.8995 14.49C15.2665 14.238 15.5599 13.8928 15.7495 13.49C15.9572 13.0142 16.0595 12.4991 16.0495 11.98C16.0595 11.4609 15.9572 10.9458 15.7495 10.47C15.5599 10.0672 15.2665 9.72205 14.8995 9.47C14.4979 9.22841 14.0381 9.10077 13.5695 9.10077C13.1009 9.10077 12.6411 9.22841 12.2395 9.47C11.8643 9.72429 11.5667 10.0773 11.3795 10.49ZM12.4695 11.03C12.5646 10.7912 12.7154 10.5786 12.9095 10.41C13.0999 10.2672 13.3315 10.19 13.5695 10.19C13.8075 10.19 14.0391 10.2672 14.2295 10.41C14.4263 10.5761 14.5777 10.7894 14.6695 11.03C14.7802 11.3514 14.831 11.6903 14.8195 12.03C14.8315 12.3697 14.7806 12.7087 14.6695 13.03C14.5804 13.2749 14.4287 13.4921 14.2295 13.66C14.0419 13.8093 13.8092 13.8905 13.5695 13.8905C13.3297 13.8905 13.0971 13.8093 12.9095 13.66C12.7132 13.4894 12.5621 13.273 12.4695 13.03C12.2569 12.4042 12.2569 11.7258 12.4695 11.1V11.03Z" fill="white"/>
</svg>
