<svg width="24" height="24" viewBox="0 0 24 24" fill="none" xmlns="http://www.w3.org/2000/svg">
<path d="M20.2296 8.67998L17.6996 5.19998C17.4504 4.86072 17.1005 4.60875 16.6996 4.47998L12.6196 3.14998C12.2168 3.01861 11.7825 3.01861 11.3796 3.14998L7.29965 4.47998C6.89885 4.60875 6.5489 4.86072 6.29965 5.19998L3.77965 8.66998C3.52764 9.01192 3.39104 9.42521 3.38965 9.84998V14.15C3.39025 14.5702 3.52321 14.9796 3.76965 15.32L6.29965 18.8C6.5489 19.1392 6.89885 19.3912 7.29965 19.52L11.3796 20.85C11.7825 20.9813 12.2168 20.9813 12.6196 20.85L16.6996 19.52C17.1005 19.3912 17.4504 19.1392 17.6996 18.8L20.2196 15.33C20.4717 14.988 20.6083 14.5747 20.6096 14.15V9.84998C20.609 9.42974 20.4761 9.02037 20.2296 8.67998ZM18.6096 14.15L16.0796 17.62L11.9996 19L7.91965 17.62L5.38965 14.15V9.84998L7.91965 6.37998L11.9996 5.04998L16.0796 6.37998L18.6096 9.84998V14.15Z" fill="white"/>
<path d="M8.43945 9.91997V10.9L9.42945 10.63V14.85H10.6795V9.24997H9.95945L8.43945 9.91997Z" fill="white"/>
<path d="M13.8596 13.36C14.066 13.1838 14.2629 12.9969 14.4496 12.8C14.6358 12.6144 14.8064 12.4137 14.9596 12.2C15.1068 11.996 15.2277 11.7742 15.3196 11.54C15.4022 11.3157 15.4462 11.079 15.4496 10.84C15.4554 10.5419 15.3793 10.2479 15.2296 9.98999C15.0855 9.72806 14.866 9.51552 14.5996 9.37999C14.2896 9.22411 13.9465 9.14522 13.5996 9.14999C13.2558 9.14487 12.9149 9.21305 12.5996 9.34999C12.3046 9.48334 12.0571 9.703 11.8896 9.97999C11.7037 10.2886 11.6004 10.6399 11.5896 11H12.7496C12.7464 10.8452 12.7771 10.6916 12.8396 10.55C12.8911 10.4216 12.9821 10.313 13.0996 10.24C13.2299 10.164 13.3788 10.1259 13.5296 10.13C13.6699 10.1224 13.8093 10.1573 13.9296 10.23C14.0342 10.2946 14.1176 10.3885 14.1696 10.5C14.2219 10.6164 14.2491 10.7424 14.2496 10.87C14.2399 11.1264 14.1603 11.3754 14.0196 11.59C13.848 11.8672 13.6431 12.1225 13.4096 12.35C13.1402 12.6248 12.8564 12.8851 12.5596 13.13L11.5596 13.92V14.81H15.5596V13.81H13.2396L13.8596 13.36Z" fill="white"/>
</svg>
