<svg width="24" height="24" viewBox="0 0 24 24" fill="none" xmlns="http://www.w3.org/2000/svg">
<path d="M19.05 6.77L13 3.28C12.696 3.10447 12.3511 3.01205 12 3.01205C11.6489 3.01205 11.3041 3.10447 11 3.28L5.00002 6.77C4.69481 6.94621 4.44158 7.19994 4.26597 7.5055C4.09037 7.81105 3.99862 8.15758 4.00002 8.51V15.51C3.99862 15.8624 4.09037 16.209 4.26597 16.5145C4.44158 16.8201 4.69481 17.0738 5.00002 17.25L11 20.72C11.3041 20.8955 11.6489 20.988 12 20.988C12.3511 20.988 12.696 20.8955 13 20.72L19.05 17.23C19.3552 17.0538 19.6085 16.8001 19.7841 16.4945C19.9597 16.189 20.0514 15.8424 20.05 15.49V8.49C20.0479 8.14098 19.9545 7.79858 19.7791 7.49683C19.6036 7.19509 19.3523 6.94451 19.05 6.77ZM18.05 15.49L12 19L6.00002 15.5V8.5L12 5L18.05 8.5V15.49Z" fill="white"/>
<path d="M9.51973 13.32C9.72973 13.14 9.92973 12.95 10.1197 12.76C10.3037 12.5688 10.4742 12.365 10.6297 12.15C10.7772 11.9478 10.8951 11.7256 10.9797 11.49C11.0712 11.2679 11.1187 11.0302 11.1197 10.79C11.1207 10.4925 11.0449 10.1997 10.8997 9.94002C10.7502 9.68231 10.5321 9.47114 10.2697 9.33002C9.95931 9.17524 9.61657 9.09641 9.26973 9.10002C8.92586 9.09365 8.58469 9.16188 8.26973 9.30002C7.97679 9.43643 7.73003 9.65539 7.55973 9.93002C7.36066 10.2512 7.25664 10.6222 7.25973 11H8.41973C8.41851 10.8464 8.44563 10.6938 8.49973 10.55C8.55801 10.4259 8.64762 10.319 8.75973 10.24C8.89409 10.1651 9.04591 10.1271 9.19973 10.13C9.34008 10.1224 9.47946 10.1573 9.59973 10.23C9.69975 10.3 9.78196 10.3925 9.83973 10.5C9.88971 10.6171 9.91686 10.7427 9.91973 10.87C9.91001 11.1265 9.83049 11.3754 9.68973 11.59C9.51509 11.8651 9.31051 12.12 9.07973 12.35C8.80914 12.6272 8.52195 12.8877 8.21973 13.13L7.21973 13.92V14.81H11.2197V13.81H8.90973L9.51973 13.32Z" fill="white"/>
<path d="M12.08 13.51C12.2635 13.9167 12.5582 14.2633 12.93 14.51C13.3308 14.7617 13.7967 14.8904 14.27 14.88C14.7367 14.8888 15.1958 14.7601 15.59 14.51C15.9593 14.2605 16.2533 13.9147 16.44 13.51C16.6477 13.0342 16.75 12.5191 16.74 12C16.75 11.4809 16.6477 10.9658 16.44 10.49C16.2533 10.0853 15.9593 9.73944 15.59 9.49C15.1958 9.23987 14.7367 9.1112 14.27 9.12C13.7967 9.10962 13.3308 9.23827 12.93 9.49C12.5582 9.73667 12.2635 10.0833 12.08 10.49C11.8723 10.9658 11.7699 11.4809 11.78 12C11.7699 12.5191 11.8723 13.0342 12.08 13.51ZM13.16 11C13.255 10.7612 13.4059 10.5486 13.6 10.38C13.7904 10.2372 14.022 10.16 14.26 10.16C14.498 10.16 14.7296 10.2372 14.92 10.38C15.1199 10.5432 15.2719 10.7574 15.36 11C15.5726 11.6258 15.5726 12.3042 15.36 12.93C15.2745 13.1767 15.1221 13.3948 14.92 13.56C14.7324 13.7093 14.4997 13.7905 14.26 13.7905C14.0202 13.7905 13.7876 13.7093 13.6 13.56C13.4037 13.3894 13.2526 13.173 13.16 12.93C12.9474 12.3042 12.9474 11.6258 13.16 11Z" fill="white"/>
</svg>
