<svg width="24" height="24" viewBox="0 0 24 24" fill="none" xmlns="http://www.w3.org/2000/svg">
<path d="M20.8798 18.44L16.8798 11.5L12.8798 4.55999C12.7926 4.40609 12.6661 4.27808 12.5133 4.18902C12.3605 4.09996 12.1867 4.05304 12.0098 4.05304C11.833 4.05304 11.6592 4.09996 11.5064 4.18902C11.3535 4.27808 11.2271 4.40609 11.1398 4.55999L7.13984 11.5L3.13984 18.44C3.05233 18.5916 3.00613 18.7635 3.00586 18.9385C3.00559 19.1135 3.05127 19.2855 3.13833 19.4374C3.22539 19.5892 3.35077 19.7156 3.50195 19.8038C3.65314 19.892 3.82482 19.9389 3.99984 19.94H19.9998C20.1766 19.9425 20.3508 19.8981 20.5048 19.8113C20.6587 19.7246 20.787 19.5985 20.8764 19.4461C20.9658 19.2937 21.0133 19.1202 21.0139 18.9435C21.0145 18.7668 20.9682 18.593 20.8798 18.44ZM11.9998 17.94H5.71984L8.85984 12.5L11.9998 7.05999L15.1398 12.5L18.2798 17.94H11.9998Z" fill="white"/>
<path d="M13.2003 10.9H11.8603L9.28027 14.58V15.58H12.0003V16.58H13.2003V15.58H13.9103V14.58H13.2003V10.9ZM12.0903 14.5H10.5603L12.0903 12.22V14.5Z" fill="white"/>
</svg>
