<svg width="24" height="24" viewBox="0 0 24 24" fill="none" xmlns="http://www.w3.org/2000/svg">
<path d="M18 3H6C5.20435 3 4.44129 3.31607 3.87868 3.87868C3.31607 4.44129 3 5.20435 3 6V18C3 18.7956 3.31607 19.5587 3.87868 20.1213C4.44129 20.6839 5.20435 21 6 21H18C18.7956 21 19.5587 20.6839 20.1213 20.1213C20.6839 19.5587 21 18.7956 21 18V6C21 5.20435 20.6839 4.44129 20.1213 3.87868C19.5587 3.31607 18.7956 3 18 3ZM19 18C19 18.2652 18.8946 18.5196 18.7071 18.7071C18.5196 18.8946 18.2652 19 18 19H6C5.73478 19 5.48043 18.8946 5.29289 18.7071C5.10536 18.5196 5 18.2652 5 18V6C5 5.73478 5.10536 5.48043 5.29289 5.29289C5.48043 5.10536 5.73478 5 6 5H18C18.2652 5 18.5196 5.10536 18.7071 5.29289C18.8946 5.48043 19 5.73478 19 6V18Z" fill="white"/>
<path d="M13.2403 11.39C12.9778 11.2427 12.6812 11.1668 12.3803 11.17C12.2007 11.1713 12.0222 11.1983 11.8503 11.25C11.6831 11.3049 11.5273 11.3896 11.3903 11.5C11.2553 11.5945 11.1427 11.7174 11.0603 11.86C11.0582 11.5216 11.1054 11.1848 11.2003 10.86C11.2669 10.6382 11.3911 10.4381 11.5603 10.28C11.7132 10.1488 11.9087 10.0777 12.1103 10.08C12.3077 10.0718 12.5019 10.1318 12.6603 10.25C12.8043 10.3786 12.9026 10.5506 12.9403 10.74H14.0503C14.028 10.4565 13.9389 10.1824 13.7903 9.93999C13.6326 9.68423 13.4078 9.47668 13.1403 9.33999C12.8336 9.1742 12.4888 9.09146 12.1403 9.09999C11.7064 9.09204 11.2817 9.22541 10.9303 9.47999C10.5795 9.75433 10.3127 10.1216 10.1603 10.54C9.97771 11.0636 9.88968 11.6155 9.90027 12.17C9.89797 12.5071 9.93829 12.843 10.0203 13.17C10.0865 13.4859 10.2157 13.7852 10.4003 14.05C10.5783 14.3143 10.8187 14.5307 11.1003 14.68C11.4377 14.8503 11.8125 14.9328 12.1903 14.92C12.5406 14.9224 12.8855 14.8328 13.1903 14.66C13.4807 14.4996 13.7199 14.2604 13.8803 13.97C14.0561 13.6669 14.1428 13.3202 14.1303 12.97C14.1432 12.621 14.0602 12.2751 13.8903 11.97C13.726 11.725 13.5024 11.5254 13.2403 11.39ZM12.8703 13.46C12.7949 13.5889 12.6838 13.6931 12.5503 13.76C12.4135 13.8381 12.2576 13.8762 12.1003 13.87C11.9364 13.8779 11.7736 13.8398 11.6303 13.76C11.4941 13.6933 11.3796 13.5893 11.3003 13.46C11.22 13.3274 11.1784 13.175 11.1803 13.02C11.1771 12.8617 11.2187 12.7057 11.3003 12.57C11.3815 12.4485 11.4914 12.3489 11.6203 12.28C11.7665 12.209 11.9278 12.1746 12.0903 12.18C12.2494 12.1762 12.4071 12.2105 12.5503 12.28C12.6796 12.3527 12.7893 12.4557 12.8703 12.58C12.9501 12.706 12.995 12.8509 13.0003 13C13.0055 13.1631 12.9601 13.3238 12.8703 13.46Z" fill="white"/>
</svg>
