<svg width="24" height="24" viewBox="0 0 24 24" fill="none" xmlns="http://www.w3.org/2000/svg">
<path d="M19.0998 8.23001C19.0669 7.94036 18.9711 7.66139 18.8191 7.41265C18.6671 7.1639 18.4625 6.9514 18.2198 6.79001L13.1098 3.39001C12.7811 3.17073 12.3949 3.05371 11.9998 3.05371C11.6047 3.05371 11.2184 3.17073 10.8898 3.39001L5.77977 6.79001C5.53701 6.9514 5.33246 7.1639 5.18045 7.41265C5.02844 7.66139 4.93264 7.94036 4.89977 8.23001L4.09977 15.3C4.0483 15.6951 4.11599 16.0965 4.29416 16.4528C4.47232 16.8091 4.75285 17.1042 5.09977 17.3L10.9998 20.67C11.3038 20.8455 11.6487 20.938 11.9998 20.938C12.3508 20.938 12.6957 20.8455 12.9998 20.67L18.9198 17.26C19.2667 17.0642 19.5472 16.7692 19.7254 16.4128C19.9036 16.0565 19.9712 15.6551 19.9198 15.26L19.0998 8.23001ZM11.9998 18.94L6.07977 15.53L6.87977 8.46001L11.9998 5.06001L17.1198 8.46001L17.9198 15.53L11.9998 18.94Z" fill="white"/>
<path d="M13.6694 12.07C13.5271 11.929 13.3613 11.814 13.1794 11.73C13.4033 11.6236 13.5936 11.4575 13.7294 11.25C13.8673 11.0465 13.9405 10.8059 13.9394 10.56C13.9396 10.3018 13.8668 10.0487 13.7294 9.83003C13.5689 9.58663 13.3438 9.39273 13.0794 9.27003C12.7403 9.11804 12.3707 9.04618 11.9994 9.06003C11.628 9.04618 11.2585 9.11804 10.9194 9.27003C10.6531 9.38992 10.4273 9.58444 10.2694 9.83003C10.1247 10.0459 10.0481 10.3002 10.0494 10.56C10.045 10.8064 10.1185 11.0479 10.2594 11.25C10.4007 11.4526 10.5895 11.6174 10.8094 11.73C10.6292 11.8063 10.4663 11.9183 10.3305 12.0592C10.1947 12.2002 10.0889 12.3671 10.0194 12.55C9.94552 12.7483 9.90825 12.9584 9.90937 13.17C9.90415 13.4877 10.0063 13.7977 10.1994 14.05C10.3928 14.3096 10.6516 14.5132 10.9494 14.64C11.2803 14.7844 11.6384 14.8561 11.9994 14.85C12.3602 14.8539 12.7178 14.7824 13.0494 14.64C13.3515 14.516 13.6143 14.312 13.8094 14.05C13.9948 13.7944 14.093 13.4858 14.0894 13.17C14.0905 12.9584 14.0532 12.7483 13.9794 12.55C13.9073 12.3719 13.8021 12.209 13.6694 12.07ZM11.4294 10.21C11.5968 10.0939 11.7956 10.0317 11.9994 10.0317C12.2031 10.0317 12.402 10.0939 12.5694 10.21C12.6394 10.2725 12.6946 10.3498 12.7309 10.4363C12.7673 10.5228 12.7838 10.6163 12.7794 10.71C12.7816 10.802 12.7641 10.8934 12.7278 10.9779C12.6916 11.0625 12.6375 11.1382 12.5694 11.2C12.4919 11.2683 12.4016 11.3203 12.3037 11.3529C12.2057 11.3856 12.1023 11.3982 11.9994 11.39C11.7906 11.4026 11.5844 11.3386 11.4194 11.21C11.354 11.1466 11.3025 11.0703 11.2681 10.986C11.2337 10.9016 11.2171 10.8111 11.2194 10.72C11.2141 10.6247 11.2303 10.5295 11.2666 10.4412C11.3029 10.353 11.3586 10.274 11.4294 10.21ZM12.6794 13.63C12.489 13.7882 12.2467 13.8702 11.9994 13.86C11.7487 13.8727 11.5023 13.7906 11.3094 13.63C11.2323 13.5554 11.1709 13.4661 11.129 13.3673C11.0872 13.2685 11.0656 13.1623 11.0656 13.055C11.0656 12.9477 11.0872 12.8415 11.129 12.7428C11.1709 12.644 11.2323 12.5546 11.3094 12.48C11.5012 12.3254 11.7433 12.2471 11.9894 12.26C12.2329 12.2426 12.4736 12.3216 12.6594 12.48C12.7397 12.5552 12.8027 12.6468 12.8442 12.7487C12.8856 12.8505 12.9044 12.9602 12.8994 13.07C12.9022 13.1734 12.8841 13.2762 12.8463 13.3724C12.8085 13.4686 12.7518 13.5562 12.6794 13.63Z" fill="white"/>
</svg>
