<svg width="136" height="136" viewBox="0 0 136 136" fill="none" xmlns="http://www.w3.org/2000/svg">
<g clip-path="url(#clip0_2142_431)">
<path d="M100.939 33.2996H35.0542C34.0853 33.2996 33.2998 34.085 33.2998 35.054V97.0836C33.2998 98.0525 34.0853 98.838 35.0542 98.838H100.939C101.908 98.838 102.694 98.0525 102.694 97.0836V35.054C102.694 34.085 101.908 33.2996 100.939 33.2996Z" fill="white"/>
<path d="M68.0001 68C76.0557 68 82.5861 61.4696 82.5861 53.414C82.5861 45.3584 76.0557 38.828 68.0001 38.828C59.9444 38.828 53.4141 45.3584 53.4141 53.414C53.4141 61.4696 59.9444 68 68.0001 68Z" fill="#F89100"/>
<path d="M95.309 102.68H40.6914C38.9574 102.68 37.7266 100.402 38.2774 98.2056L43.9622 75.48C44.5062 73.3176 46.0022 71.8624 47.7226 71.8624H88.2778C89.9846 71.8624 91.4942 73.3176 92.0382 75.48L97.723 98.2328C98.2738 100.422 97.043 102.68 95.309 102.68Z" fill="#F89100"/>
<path d="M69.2378 45.1792H66.7626C66.0378 45.1792 65.4502 45.7668 65.4502 46.4916V60.3432C65.4502 61.068 66.0378 61.6556 66.7626 61.6556H69.2378C69.9626 61.6556 70.5502 61.068 70.5502 60.3432V46.4916C70.5502 45.7668 69.9626 45.1792 69.2378 45.1792Z" fill="white"/>
<path d="M76.2344 54.6516V52.1764C76.2344 51.4516 75.6468 50.864 74.922 50.864H61.0704C60.3456 50.864 59.758 51.4516 59.758 52.1764V54.6516C59.758 55.3764 60.3456 55.964 61.0704 55.964H74.922C75.6468 55.964 76.2344 55.3764 76.2344 54.6516Z" fill="white"/>
</g>
<defs>
<clipPath id="clip0_2142_431">
<rect width="136" height="136" rx="8" fill="white"/>
</clipPath>
</defs>
</svg>
