<svg width="136" height="136" viewBox="0 0 136 136" fill="none" xmlns="http://www.w3.org/2000/svg">
<g clip-path="url(#clip0_2142_282)">
<path d="M103.21 47.7429V85.0341C103.209 86.018 102.949 86.9844 102.455 87.8357C101.969 88.6852 101.265 89.3895 100.415 89.8756L70.8966 106.923C70.2 107.329 69.4219 107.576 68.6186 107.644C68.2753 107.685 67.9283 107.685 67.585 107.644C66.9032 107.59 66.2383 107.406 65.6266 107.1L35.829 89.8756C34.9806 89.3827 34.2758 88.6766 33.7844 87.8274C33.293 86.9781 33.032 86.0152 33.0274 85.0341V51.0001C33.0247 50.1939 33.2012 49.3972 33.5442 48.6677C33.682 48.3477 33.8627 48.048 34.0814 47.7769C34.5307 47.1093 35.129 46.5553 35.829 46.1585L65.647 28.9137C66.4728 28.5096 67.3852 28.3144 68.304 28.3452C69.2229 28.376 70.1201 28.6319 70.917 29.0905L97.3078 44.3361L103.21 47.7429Z" fill="#DBDBDB"/>
<path d="M68.1227 47.7428L50.6807 78.3156H85.5579L68.1227 47.7428Z" fill="#F89100"/>
<path d="M102.456 87.8356C101.97 88.6852 101.266 89.3894 100.416 89.8756L70.8971 106.923C70.2006 107.329 69.4225 107.576 68.6191 107.644L85.5443 78.3224L102.456 87.8356Z" fill="white"/>
<path d="M68.1228 28.3424V47.7428H34.082C34.5314 47.0753 35.1296 46.5213 35.8296 46.1244L65.6476 28.9136C66.4177 28.5351 67.2648 28.3396 68.1228 28.3424Z" fill="white"/>
<path d="M67.6055 107.63C66.9237 107.577 66.2588 107.392 65.6471 107.086L35.8291 89.8756C34.9809 89.3876 34.277 88.6837 33.7891 87.8356L50.6871 78.3156L67.6055 107.63Z" fill="white"/>
<path d="M68.1219 47.7428L50.6867 78.3428L33.5439 48.6336C33.6817 48.3136 33.8625 48.014 34.0811 47.7428H68.1219Z" fill="white"/>
<path d="M103.21 47.7428H68.1221L85.5573 78.3156L103.21 47.7428Z" fill="white"/>
<path d="M122.604 47.7428L112.88 49.5516C110.926 49.9151 109.128 50.8621 107.722 52.2677C106.316 53.6733 105.37 55.4717 105.006 57.426L103.197 67.1364L101.388 57.4192C101.024 55.4661 100.076 53.6692 98.6707 52.2649C97.2652 50.8606 95.4675 49.9147 93.5141 49.5516L83.7969 47.7428L93.5073 45.9272C95.4615 45.5707 97.2617 44.6297 98.67 43.2287C100.078 41.8277 101.029 40.0324 101.395 38.08L103.211 28.3696L105.02 38.08C105.385 40.0287 106.331 41.8213 107.734 43.2219C109.137 44.6226 110.931 45.5657 112.88 45.9272L122.604 47.7428Z" fill="#F89100"/>
</g>
<defs>
<clipPath id="clip0_2142_282">
<rect width="136" height="136" rx="8" fill="white"/>
</clipPath>
</defs>
</svg>
