<svg width="112" height="137" viewBox="0 0 112 137" fill="none" xmlns="http://www.w3.org/2000/svg">
<path d="M4.47651 45.4543C7.24948 37.8772 11.6681 31.0789 17.3082 25.4933C22.8216 20.0213 29.5067 15.7109 36.9574 12.9515C36.9574 13.8942 37.029 14.8382 37.1776 15.7881C30.3986 18.4177 24.3073 22.4055 19.2501 27.4236C14.2541 32.3776 10.2648 38.3296 7.61285 44.9525C6.88077 45.0889 6.15474 45.2144 5.42266 45.3237C5.12549 45.3669 4.80109 45.4107 4.47651 45.4543ZM34.1784 114.073C27.8395 111.323 22.1281 107.428 17.3082 102.644C7.34878 92.7747 1.19141 79.1365 1.19141 64.068C1.19141 60.4569 1.54339 56.927 2.22031 53.5175C3.04563 54.0029 3.94836 54.4229 4.78436 54.745C4.22863 57.7676 3.94267 60.8877 3.94267 64.068C3.94267 78.3778 9.79165 91.3345 19.2501 100.718C23.7074 105.137 28.9734 108.765 34.8005 111.361C34.8057 111.863 34.7726 112.442 34.6464 112.846L34.1784 114.073ZM110.795 57.1236C111.087 59.3987 111.24 61.717 111.24 64.068C111.24 79.1365 105.078 92.7747 95.1233 102.644C90.2978 107.428 84.5866 111.323 78.2477 114.073L77.7799 112.846C77.6535 112.442 77.6201 111.863 77.6258 111.361C83.4584 108.765 88.7189 105.137 93.1756 100.718C102.635 91.3345 108.489 78.3778 108.489 64.068C108.489 61.559 108.307 59.093 107.961 56.6818L110.795 57.1236ZM56.2157 9.51367C71.4081 9.51367 85.1642 15.6189 95.1233 25.4933C101.766 32.0829 106.722 40.3477 109.282 49.6007C108.093 48.8805 106.981 48.2915 105.859 47.8003C103.267 40.0309 98.8764 33.0765 93.1756 27.4236C83.7171 18.0411 70.6486 12.2423 56.2157 12.2423C54.8071 12.2423 53.415 12.2964 52.0338 12.4059C51.9624 12.324 51.8909 12.2423 51.8138 12.1592C51.1648 11.4339 50.7246 10.6431 50.471 9.80853C52.3587 9.61154 54.2732 9.51367 56.2157 9.51367Z" fill="white"/>
<path fill-rule="evenodd" clip-rule="evenodd" d="M11.9157 81.3349C11.7894 81.0292 11.6682 80.7183 11.547 80.4076C11.9926 80.56 12.3506 80.7402 12.1082 81.0347C12.0145 81.144 11.9541 81.2476 11.9157 81.3349ZM95.3991 83.1295C95.189 83.0753 94.9806 83.0422 94.7881 83.0315C93.6709 82.9824 92.6641 82.8843 92.1632 82.0932C91.6571 81.3075 94.7382 81.6513 94.3094 81.1821C93.9186 80.7621 95.3554 80.6964 96.0092 80.1619C96.1245 80.2927 96.8686 80.151 96.6482 80.6367C96.3782 81.2039 95.5363 80.5818 95.767 81.0621C95.993 81.5421 95.8282 81.1876 95.3438 81.5583C94.8651 81.9351 96.1141 81.4711 95.8602 82.0551C95.8223 82.1368 96.1024 82.5024 96.3723 82.4475C96.8131 82.3603 96.9007 82.9112 95.691 82.966C95.3991 82.9824 95.3991 83.037 95.3991 83.1295ZM100.209 82.0713C100.109 82.2951 100.016 82.5186 99.911 82.7477C99.7781 82.666 99.6687 82.5622 99.5811 82.4206C99.4324 82.1804 99.8235 82.1094 100.209 82.0713ZM75.1388 28.0892C75.0289 27.7242 74.5995 26.6926 73.2903 26.3497C71.6886 25.9353 70.9296 27.021 70.9296 27.021C70.9296 27.021 69.2954 26.6006 68.1451 27.1902C67.397 27.5653 67.1548 27.8979 67.0776 28.0892H75.1388ZM26.4368 33.0984C27.031 32.1208 28.8576 31.74 29.7162 32.7322C29.7437 31.6684 31.5541 31.0351 32.5828 31.7225C32.8303 29.8358 37.7551 29.061 37.9037 33.0984H26.4368ZM12.8841 43.7301C13.9132 41.5369 15.1017 39.443 16.4388 37.4454H35.3835C35.1029 37.0208 34.5415 36.3976 33.5514 36.2241C31.9999 35.9511 31.4384 36.5567 31.4384 36.5567C31.4384 36.5567 31.1633 35.7104 30.0681 35.4331C28.9735 35.1545 28.4339 35.8694 28.4339 35.8694C28.3898 33.4574 24.8134 33.2444 24.0157 34.1782C23.6801 32.5689 22.8709 31.4496 21.8639 30.7623C26.2329 26.2782 31.4877 22.6449 37.3479 20.1468C37.9366 21.9795 38.8005 23.7583 39.9342 25.4173C40.2257 25.8477 40.5229 26.2723 40.7926 26.7101C41.1998 27.3697 41.684 27.9636 42.2285 28.5093C42.157 28.7122 42.0967 28.9134 42.047 29.1266C41.0841 29.8197 40.2147 30.8339 39.4388 32.0071C37.893 33.9551 36.6934 36.491 35.8181 38.6346C33.2213 38.9293 30.5578 39.7918 28.2966 40.7855C26.1067 41.7398 24.6485 41.941 22.3319 42.0886C19.2614 42.2856 16.6755 42.6722 13.6877 43.5068C13.4235 43.5826 13.1537 43.66 12.8841 43.7301ZM30.7946 85.492C30.7834 85.421 30.7064 85.3446 30.5087 85.2462C29.6061 84.7989 30.2389 84.2479 29.166 84.0736C28.4121 83.9481 30.349 83.1025 29.7876 83.0096C29.2208 82.9224 30.1232 82.382 29.4796 82.3494C27.2728 82.2241 28.2692 80.0638 27.8672 79.5891C27.5536 79.2127 27.7079 77.0031 27.4492 77.4012C27.1573 77.8486 27.1136 76.3378 26.9869 75.5959C26.673 73.7408 26.7669 77.6688 26.5523 77.3743C26.2715 76.9812 26.5523 79.1853 26.2608 79.562C25.9688 79.9384 26.2553 80.4564 25.9966 80.9038C25.738 81.3511 25.7048 82.4039 25.0613 82.437C24.4173 82.475 24.8629 83.2281 24.1203 83.5933C23.3829 83.9588 25.6332 83.7404 24.9842 84.0954C24.3345 84.4556 24.6155 85.0282 23.79 85.3117C22.9647 85.6011 24.4283 85.9993 24.2029 86.3593C23.9772 86.714 25.3745 86.3593 25.0334 87.0359C24.6977 87.7178 23.5918 86.9759 23.8945 87.5542C24.142 88.0123 24.0432 87.832 23.6745 87.9742C23.0581 87.4339 22.4638 86.6428 23.0143 86.5504C23.6962 86.4299 21.5283 85.3279 21.1156 84.4387C20.7033 83.5495 22.7665 85.001 22.6017 84.368C22.4364 83.7354 23.3774 84.4606 24.1203 84.4606C24.8629 84.4606 23.7404 83.7136 23.1791 83.195C22.6179 82.6822 23.9717 82.6603 22.7446 82.3332C21.5176 82.0001 20.3012 80.5984 21.7926 81.0673C23.2836 81.5365 21.5947 79.7798 22.9206 79.6108C24.2468 79.4472 22.6401 78.5799 21.5283 78.5361C20.417 78.487 19.421 78.3945 18.9201 77.6469C18.4197 76.8939 21.4847 77.2215 21.0551 76.7796C20.6263 76.3323 22.4252 76.3106 22.9206 75.6283C23.4215 74.9521 20.8352 75.6066 21.2037 74.859C21.5667 74.1065 19.531 75.6776 19.0525 74.7884C18.5681 73.8992 20.8352 74.1339 20.5161 73.6646C20.1967 73.1954 22.0734 72.6332 20.9838 72.2569C19.8885 71.8805 20.5492 71.5095 19.6741 71.0403C18.8046 70.5714 20.9178 69.7037 20.1857 69.5837C19.4484 69.4695 20.637 68.7655 19.7896 68.7164C18.9481 68.6726 18.3204 68.2253 17.9574 67.6418C17.5944 67.0578 18.1444 65.6013 17.7373 65.1103C17.3301 64.6193 17.572 61.7389 17.2257 62.2517C16.8292 62.8352 16.8018 60.8659 16.6532 59.9005C16.2735 57.4726 16.3231 62.601 16.0534 62.2192C15.6903 61.7006 16.0261 64.5868 15.6352 65.0777C15.2448 65.5687 15.7234 66.4362 15.3764 67.0197C15.0359 67.6089 14.865 68.7874 14.0233 68.8364C13.1811 68.88 13.748 69.8727 12.7741 70.3475C11.8 70.8274 14.7494 70.5384 13.8911 71.0022C13.0382 71.4712 13.3957 72.2188 12.312 72.5896C11.2333 72.9664 13.1371 73.4899 12.8348 73.9591C12.5321 74.4227 14.3641 73.9591 13.9132 74.8484C13.4621 75.7376 12.0257 74.7665 12.4166 75.5192C12.8015 76.2668 12.5156 75.7158 11.6956 76.2993C10.8813 76.8832 13.0051 76.1575 12.5757 77.0741C12.5156 77.2053 12.9886 77.7724 13.4454 77.6905C14.1936 77.5542 14.3477 78.4164 12.2899 78.5032C11.25 78.5468 12.3558 78.8582 11.2002 79.4529C9.4287 74.5102 8.46582 69.1912 8.46582 63.6426C8.46582 61.5915 8.59768 59.5729 8.85072 57.5929C11.624 57.9529 14.4522 57.7071 17.1873 56.9546C17.6384 56.8346 18.0948 56.7037 18.5571 56.6001C20.7419 58.5476 23.5421 58.3185 26.3155 57.7781C28.1095 57.4293 29.7218 57.4507 31.4493 57.6091C31.3722 57.7238 31.2955 57.8381 31.2185 57.9418C29.045 60.8059 28.0268 63.7574 28.5825 67.3361C29.1331 70.8931 30.9928 74.1008 31.4493 77.7014C31.8016 80.4345 31.3888 82.895 30.7946 85.492ZM29.9417 89.1469C29.9362 89.1307 29.9252 89.1143 29.9033 89.0869C29.3308 88.5034 28.9678 87.8651 29.9145 87.985C30.4919 88.0616 29.7105 87.0795 29.7273 87.3797C29.7381 87.6523 29.2153 87.0739 28.9678 86.9921C28.3898 86.8067 30.3266 86.4903 30.0793 86.1303C29.9033 85.8739 30.6622 85.7648 30.7779 85.5519C30.6846 85.9557 30.5909 86.3648 30.4919 86.7737C30.3047 87.5377 30.1177 88.3288 29.9417 89.1469ZM29.8095 89.7471C29.4301 89.6542 29.1052 89.4907 28.8964 89.1798C28.5496 88.6726 29.8591 89.2506 29.9362 89.1581C29.8978 89.3543 29.8536 89.5506 29.8095 89.7471ZM103.614 57.9148C103.845 59.7912 103.96 61.7063 103.96 63.6426C103.96 69.5894 102.854 75.274 100.84 80.5164C100.566 80.5818 99.8673 81.0128 99.6585 80.5929C99.3768 80.0256 100.703 80.1781 100.517 79.8784C100.334 79.5782 101.43 79.2182 100.791 78.978C100.153 78.7379 100.538 78.5032 100.026 78.2036C99.514 77.9035 100.753 77.3524 100.324 77.2759C99.8948 77.1996 100.588 76.7522 100.092 76.7197C99.5973 76.6922 99.2281 76.4084 99.0193 76.0321C98.8049 75.6609 99.1304 74.7336 98.8866 74.4172C98.6517 74.1065 98.7889 72.2624 98.5905 72.5952C98.3584 72.9664 98.3424 71.706 98.249 71.0894C98.0287 69.5401 98.0621 72.8192 97.9031 72.5734C97.6872 72.2407 97.8856 74.0848 97.655 74.3955C97.4231 74.7119 97.7105 75.2628 97.5062 75.6395C97.3034 76.0102 97.2043 76.7686 96.7081 76.7958C96.2191 76.8232 96.549 77.4562 95.9769 77.7612C95.405 78.0669 97.137 77.8817 96.6366 78.1819C96.1302 78.4815 96.3403 78.9563 95.707 79.1965C95.3933 79.3108 95.5086 79.4579 95.691 79.6053C95.0854 79.5782 94.2379 79.6327 94.4578 79.1634C94.8208 78.3726 92.774 80.0256 92.2955 79.0873C91.8113 78.1488 94.0893 78.3945 93.77 77.9035C93.4453 77.4124 95.3321 76.8177 94.2323 76.4248C93.1371 76.0321 93.7978 75.634 92.9226 75.1428C92.0425 74.6519 94.172 73.7353 93.4342 73.6153C92.697 73.4899 93.8853 72.7478 93.0381 72.6987C92.1909 72.65 91.5583 72.1859 91.1948 71.5698C90.826 70.9532 91.382 69.4202 90.9746 68.9017C90.562 68.3837 90.8043 65.356 90.4575 65.8959C90.0614 66.5123 90.034 64.4337 89.8799 63.4193C89.5003 60.8659 89.55 66.2671 89.28 65.8579C88.9115 65.3174 89.2528 68.3507 88.8563 68.8691C88.4659 69.3871 88.9499 70.2982 88.6033 70.9148C88.2565 71.5312 88.0805 72.7754 87.2388 72.8242C86.3912 72.8735 86.9637 73.9155 85.9786 74.4172C84.9993 74.919 87.9705 74.6138 87.1066 75.1048C86.2426 75.6011 86.6056 76.3814 85.5166 76.7796C84.4325 77.1722 86.3471 77.7176 86.0392 78.2142C85.7365 78.7054 87.5797 78.2142 87.1285 79.1527C86.672 80.0856 85.2301 79.0654 85.6211 79.8565C86.0115 80.6473 85.7198 80.0638 84.9 80.6803C84.0747 81.2912 86.2097 80.5329 85.7807 81.4929C85.7198 81.6294 86.1985 82.2297 86.6553 82.1423C87.4093 81.9951 87.5634 82.9062 85.4942 82.9986C84.3772 83.0479 85.7198 83.4191 84.1299 84.1335C82.5344 84.848 85.9456 84.8699 85.3127 85.661C84.6801 86.4467 85.6155 86.6485 84.3941 86.9921C83.1777 87.3359 84.537 87.3633 83.987 87.9032C83.4364 88.4486 84.2617 88.4705 85.0212 88.5958C85.7858 88.7162 84.724 89.3108 84.5756 89.9761C84.4325 90.6418 85.9456 89.2123 85.5606 90.1453C85.1753 91.0836 83.4474 90.5434 84.2674 91.4274C85.0486 92.2786 84.0032 92.7692 83.31 93.2221C82.9799 90.773 82.369 88.4705 81.7914 86.01C81.6647 85.4701 81.5435 84.9354 81.4334 84.3955C81.0761 82.6334 80.7734 80.211 80.8997 78.4326C81.1862 74.5207 83.2549 71.1443 83.8439 67.3361C84.361 64.0195 83.519 61.2371 81.6647 58.5638C84.146 58.7549 86.6443 58.7223 89.1094 58.2799C92.9116 57.5929 96.8905 57.511 100.741 57.7126C101.699 57.7619 102.657 57.8276 103.614 57.9148ZM56.2158 16.3062C66.5934 16.3062 76.1955 19.5893 84.0254 25.165C83.0954 25.9179 82.3634 27.053 82.0334 28.6129C81.1693 27.5988 77.2845 27.8337 77.2408 30.4515C77.2408 30.4515 76.6574 29.6781 75.4689 29.9772C74.2804 30.278 73.9777 31.1942 73.9777 31.1942C73.9777 31.1942 73.3668 30.5333 71.6886 30.8339C70.6102 31.025 69.9997 31.7007 69.6968 32.1587H91.866C95.5524 36.262 98.5291 41.0029 100.61 46.1962C99.3389 45.9397 97.9513 45.7381 96.3563 45.5634C95.405 45.4598 94.4361 45.3505 93.4839 45.1925C93.3739 45.176 93.2472 45.1544 93.1152 45.1327C92.5815 44.3633 91.8441 43.8615 90.8373 43.5009C89.632 43.0764 88.2677 43.1084 87.0021 43.1143C83.8875 43.1362 81.2024 42.9669 78.4017 41.4172C76.8886 40.5724 75.6727 39.3058 74.616 37.9255C74.3575 37.5548 74.1099 37.1841 73.8733 36.8179C73.5102 36.2721 73.1524 35.728 72.7563 35.2361C71.9584 34.041 71.078 32.8796 69.587 32.5148C69.1469 32.4112 68.7231 32.3719 68.3213 32.4053C68.0298 31.7663 67.7657 31.1184 67.5233 30.4733C66.742 28.4116 66.1533 26.7743 64.8219 25.1605C64.4422 24.5608 63.9909 23.9814 63.4129 23.3921C62.9068 22.8797 62.4723 22.3779 62.0319 21.8044C60.7444 20.1191 59.3304 18.9853 57.6684 17.7027C57.0634 17.2327 56.4854 16.7702 55.9298 16.3062C56.0231 16.3062 56.1169 16.3062 56.2158 16.3062Z" fill="white"/>
<path fill-rule="evenodd" clip-rule="evenodd" d="M94.0233 108.138C94.0233 112.535 92.9282 115.153 90.6172 116.097C92.9282 117.041 94.0233 119.66 94.0233 124.057C94.0233 119.66 95.1234 117.041 97.4347 116.097C95.1234 115.153 94.0233 112.535 94.0233 108.138Z" fill="white"/>
<path fill-rule="evenodd" clip-rule="evenodd" d="M101.236 101.411C101.236 103.981 100.564 105.514 99.1504 106.065C100.564 106.621 101.236 108.148 101.236 110.724C101.236 108.148 101.907 106.621 103.315 106.065C101.907 105.514 101.236 103.981 101.236 101.411Z" fill="white"/>
<path fill-rule="evenodd" clip-rule="evenodd" d="M83.8618 115.92C83.8618 117.649 83.4109 118.68 82.4639 119.052C83.4109 119.422 83.8618 120.453 83.8618 122.183C83.8618 120.453 84.3128 119.422 85.2596 119.052C84.3128 118.68 83.8618 117.649 83.8618 115.92Z" fill="white"/>
<path d="M29.3695 43.6047C33.7771 41.6743 36.8254 41.5268 38.1239 41.5867C38.8722 39.4533 41.4586 32.3939 44.232 31.3141C45.3267 30.8837 45.789 31.2922 45.789 31.2922C45.789 31.2922 45.8109 30.9157 45.7506 30.5829C45.6568 29.9672 45.4479 29.3499 45.5691 28.7881C45.7009 28.1506 46.0146 27.6806 46.6419 27.5274C46.5538 27.3699 46.5045 27.1948 46.5045 27.0094C46.5045 26.6885 46.62 26.4156 46.9005 26.2186C45.8331 25.6466 44.6555 24.806 43.8963 23.573C43.6211 23.131 43.291 22.645 42.9441 22.143C37.9039 14.7685 39.3346 4.77293 47.5884 1.04776L49.8717 0L48.6285 2.15958C48.6171 2.18147 44.7325 8.8266 49.5087 14.1846C52.2546 17.2665 54.3344 18.8702 56.0346 20.1849C57.5368 21.3522 58.7582 22.2962 59.9138 23.8123C60.6564 24.7784 61.1351 25.2642 61.5093 25.6466C62.4119 26.557 62.7697 26.922 64.1175 30.4897C65.0863 33.0593 66.2196 35.1327 67.1439 36.1687C67.3092 36.3556 67.4633 36.4971 67.5895 36.5891L67.6062 36.5189C67.8318 35.6244 68.2776 35.318 68.9543 35.4815C69.5706 35.6347 70.0877 36.4154 70.8255 37.5389C72.0631 39.4154 74.0495 42.4331 77.1088 44.1227C80.8507 46.202 84.5261 46.1744 87.0186 46.1582C88.2625 46.1527 89.2365 46.1475 89.9407 46.3929C90.8649 46.7204 91.0078 47.1074 91.1619 47.5167C91.2671 47.7893 91.3822 48.0895 96.0707 48.5913C102.755 49.317 105.38 50.5443 110.394 53.965L106.911 53.4304C106.883 53.4247 97.2045 51.8972 88.4607 53.474C84.5814 54.1723 80.5151 53.6869 76.4873 53.0048C75.1062 52.7758 73.7636 52.5742 72.4371 52.3937C69.62 52.0177 66.7592 51.5921 63.9196 51.7992C61.9499 51.9408 59.9081 52.274 56.6343 52.3665C54.5546 52.4213 52.4249 52.0882 50.1525 51.9408C45.5194 51.6357 43.0488 53.0103 38.856 53.2231C36.8423 53.3267 35.1087 53.1251 33.3864 52.9286C31.015 52.661 28.6654 52.3882 25.6116 52.9886C21.6496 53.763 21.0392 52.885 20.4613 52.0613C20.1586 51.6301 19.8783 51.2264 16.219 52.2247C7.7011 54.5597 2.56177 50.0315 2.54523 50.0153L0.955078 48.6404L3.07337 48.6187C3.08441 48.6187 6.71634 48.608 14.4085 46.4527C18.1613 45.4057 20.4831 45.2583 22.5025 45.1274C24.6596 44.9909 26.4533 44.8765 29.3695 43.6047ZM38.5422 43.218C38.5365 43.218 35.5436 42.6446 30.0246 45.0619C26.8443 46.4472 24.9237 46.5732 22.6126 46.7204C20.6703 46.8403 18.4307 46.9819 14.8489 47.9859C10.5403 49.1915 7.44254 49.748 5.51109 49.9991C7.5196 50.9699 11.0464 51.9958 15.7841 50.6916C20.5552 49.388 21.1544 50.2443 21.7928 51.1552C22.0792 51.5645 22.3762 51.9901 25.2977 51.4228C28.5994 50.7733 31.0752 51.0571 33.5734 51.3412C36.5558 51.6846 39.5822 52.0282 44.1382 50.6591C45.3322 50.2991 46.5319 50.0046 47.737 49.7587C46.8894 47.9315 48.0449 42.1163 51.1321 43.5406C53.3436 44.5601 53.8944 43.1464 50.6256 41.6844C47.3518 40.2165 50.7027 40.539 55.1212 41.3735C59.5451 42.2039 57.4816 38.1883 53.195 35.4931C48.9088 32.8039 55.4347 29.5572 53.1678 26.2725C51.3024 23.5673 51.5777 19.9893 48.2653 17.4299C45.6184 15.3842 42.6527 15.6673 41.6788 11.5713C40.2591 17.4299 45.6404 25.7721 51.8583 26.5732C51.341 27.0152 50.1966 27.6589 48.5842 27.7084C48.9472 28.0075 50.4055 28.7444 50.4055 28.7444C48.8485 29.7542 47.5607 28.6525 47.1702 28.9414C46.9501 29.1049 47.66 32.0174 46.6364 33.5613C46.1081 32.6507 45.0463 32.28 44.1711 32.9395C42.1243 34.4834 39.4665 42.6505 39.4558 42.6781L39.241 43.3436L38.5422 43.218Z" fill="white"/>
<path fill-rule="evenodd" clip-rule="evenodd" d="M55.573 69.1314H56.8547C67.1224 69.3437 62.7534 78.9346 71.0016 79.4532C65.7468 75.9394 68.4153 71.1446 65.4883 67.6256C63.9586 65.7819 61.6421 64.9851 60.1286 64.9851C57.7406 64.9851 56.2164 66.3435 56.2164 66.3435C56.2164 66.3435 54.6868 64.9851 52.2987 64.9851C50.7746 64.9851 48.436 65.7926 46.9064 67.6582C44.0229 71.177 46.6695 75.9506 41.4261 79.4532C49.6742 78.9346 45.3052 69.3437 55.573 69.1314ZM56.2164 74.8973C54.3732 74.8431 52.3042 75.1705 51.0716 75.7268C51.0716 75.7268 52.3868 73.4684 56.2164 73.4684C60.0407 73.4684 61.3559 75.7268 61.3559 75.7268C60.1235 75.1705 58.0543 74.8431 56.2164 74.8973ZM54.3677 79.9605C54.3677 79.9605 51.3743 84.1775 54.0047 89.9495C56.6401 95.7159 54.4834 102.257 54.4834 102.257C54.4834 102.257 55.7819 101.04 56.486 98.3397C58.5056 90.5821 52.1501 87.6742 54.3677 79.9605ZM77.3019 53.2339C77.0433 53.7469 76.1298 55.9944 78.3034 58.8587C80.7796 62.121 80.95 67.1398 78.3034 71.9188C75.6511 76.6982 78.2593 83.7026 78.2593 83.7026C78.2593 83.7026 75.0512 79.8838 74.457 75.4214C73.8572 70.9643 74.6279 69.6059 74.6279 69.6059C74.6279 69.6059 69.0704 75.978 74.6279 82.4315C80.1799 88.88 73.2575 94.4553 73.2575 94.4553C73.2575 94.4553 74.3691 94.4553 75.7392 93.3808C77.1037 92.3058 77.8464 90.642 77.8464 90.642C77.8464 90.642 81.1209 97.4069 77.1919 103.539C73.263 109.67 74.8864 113.893 74.8864 113.893C74.8864 113.893 72.4928 112.933 72.0635 109.349C71.6399 105.765 73.9454 102.186 73.9454 102.186C73.9454 102.186 69.758 105.077 70.1651 110.178C70.5722 115.273 71.0403 116.839 68.3054 119.065C65.571 121.296 66.765 124.64 66.765 124.64C66.765 124.64 63.0562 122.414 65.2681 118.607C67.4799 114.799 65.0866 112.518 64.7176 109.327C64.2172 104.99 67.7112 102.169 67.2435 96.3536C67.051 93.9754 66.121 91.5476 64.9655 90.3094C62.2473 87.4018 63.265 82.8627 63.265 82.8627C63.265 82.8627 60.6406 87.0085 63.265 90.5547C64.85 92.6932 65.6755 94.848 65.5157 97.4338C65.213 102.262 61.1138 106.921 63.7604 112.262C66.0714 116.926 61.8403 121.902 61.8403 121.902C63.1991 116.561 60.6568 110.827 57.2731 108.634C57.2731 108.634 57.7354 109.054 58.4504 110.609C64.2446 123.189 56.9925 122.998 56.3816 131.896C56.189 134.755 57.0802 136.457 57.0802 136.457C57.0802 136.457 51.3195 129.763 54.0099 123.647C54.8848 121.656 55.0608 119.43 54.5108 117.396C54.1478 116.053 53.4709 114.799 52.4639 113.74C53.0911 115.508 53.5093 117.085 53.5864 118.655C53.7406 121.853 52.2934 125.121 50.1915 127.51C50.1915 127.51 51.2147 122.333 49.5916 120.499C47.9682 118.672 46.7747 116.517 50.1915 111.978C51.1599 110.685 51.4296 108.803 51.1599 107.041C50.2244 100.92 45.7013 99.9546 48.2819 90.1947C41.7176 100.554 52.7057 104.406 47.8196 112.24C46.4992 114.362 45.0523 116.015 46.6864 118.432C49.1622 122.093 45.6627 124.64 45.6627 124.64C45.6627 124.64 46.8567 121.296 44.1224 119.065C41.3875 116.839 42.4162 115.246 42.587 110.145C42.7573 105.05 38.4823 102.186 38.4823 102.186C38.4823 102.186 40.7933 105.765 40.3639 109.349C39.9349 112.933 37.5468 113.893 37.5468 113.893C37.5468 113.893 39.1699 109.67 35.2358 103.539C31.3069 97.4069 34.5808 90.642 34.5808 90.642C34.5808 90.642 35.3239 92.3058 36.6884 93.3808C38.0584 94.4553 39.1699 94.4553 39.1699 94.4553C39.1699 94.4553 32.2478 88.88 37.7998 82.4315C43.3572 75.978 37.7998 69.6059 37.7998 69.6059C37.7998 69.6059 38.57 70.9643 37.9707 75.4214C37.3763 79.8838 34.1684 83.7026 34.1684 83.7026C34.1684 83.7026 36.7766 76.6982 34.13 71.9188C31.4777 67.1398 31.648 62.121 34.13 58.8587C36.2974 55.9944 35.3842 53.7469 35.1256 53.2339C36.738 54.4781 37.9153 56.4311 36.4298 59.3551C33.3538 65.405 39.335 67.5982 39.335 67.5982C39.335 67.5982 35.7474 63.654 38.4768 60.5881C41.2115 57.5221 39.335 55.0945 39.335 55.0945C39.335 55.0945 42.7134 57.2493 41.8112 59.5132C40.7821 62.0991 43.5828 65.7326 45.828 66.1745C45.828 66.1745 47.3633 63.9049 50.9509 63.5666C54.5382 63.2284 56.2164 66.3435 56.2164 66.3435C56.2164 66.3435 57.8891 63.2284 61.4768 63.5666C65.0644 63.9049 66.5997 66.1745 66.5997 66.1745C68.8447 65.7326 71.6455 62.0991 70.6164 59.5132C69.7138 57.2493 73.0925 55.0945 73.0925 55.0945C73.0925 55.0945 71.2161 57.5221 73.951 60.5881C76.6858 63.654 73.0925 67.5982 73.0925 67.5982C73.0925 67.5982 79.0734 65.405 75.9979 59.3551C74.5177 56.4311 75.6897 54.4781 77.3019 53.2339Z" fill="white"/>
</svg>
