<svg width="136" height="136" viewBox="0 0 136 136" fill="none" xmlns="http://www.w3.org/2000/svg">
<g clip-path="url(#clip0_2142_923)">
<path d="M43.316 25.16L38.8484 91.9836C38.6704 92.0165 38.5054 92.099 38.3724 92.2216L20.0124 109.317C19.8507 109.468 19.6483 109.568 19.4303 109.606C19.2122 109.644 18.9879 109.617 18.7849 109.529C18.5819 109.441 18.4091 109.295 18.2877 109.11C18.1663 108.925 18.1016 108.709 18.1016 108.487L20.3116 44.5672C20.3114 44.1727 20.3949 43.7826 20.5567 43.4227C20.7184 43.0628 20.9547 42.7414 21.25 42.4796L42.3164 25.6768C42.5945 25.4143 42.9409 25.2352 43.316 25.16Z" fill="#DBDBDB"/>
<path d="M86.0264 43.2072L81.5996 110.84C81.3002 110.837 81.0044 110.774 80.7292 110.656L39.5892 92.038C39.375 91.9422 39.1333 91.9277 38.9092 91.9971L43.3156 25.16C43.7321 25.0724 44.1656 25.12 44.5532 25.296L85.6252 43.0916C85.7494 43.1575 85.8861 43.1969 86.0264 43.2072Z" fill="white"/>
<path d="M117.878 26.4248L116.783 59.568L116.694 62.1316L115.722 90.1884C115.722 90.5984 115.631 91.0034 115.458 91.3746C115.284 91.7459 115.03 92.0745 114.716 92.3372L112.138 93.8332L111.962 93.9352L82.7216 110.52C82.3867 110.734 81.9967 110.845 81.5996 110.84L86.0536 43.1936C86.2616 43.1984 86.4667 43.1442 86.6452 43.0372L116.232 25.772C116.379 25.6855 116.544 25.6337 116.714 25.6206C116.885 25.6075 117.056 25.6334 117.214 25.6964C117.373 25.7593 117.515 25.8577 117.63 25.9839C117.745 26.1101 117.83 26.261 117.878 26.4248Z" fill="#F89100"/>
</g>
<defs>
<clipPath id="clip0_2142_923">
<rect width="136" height="136" rx="8" fill="white"/>
</clipPath>
</defs>
</svg>
