<svg width="136" height="136" viewBox="0 0 136 136" fill="none" xmlns="http://www.w3.org/2000/svg">
<g clip-path="url(#clip0_2142_385)">
<path d="M124.651 85.4421C131.043 95.6829 112.261 106.474 80.7975 106.474C49.3339 106.474 30.5591 95.6829 36.9443 85.4421C41.8947 77.5201 61.1115 72.2841 80.7975 72.2841C100.483 72.2841 119.68 77.5201 124.651 85.4421Z" fill="#DBDBDB"/>
<path d="M91.0449 84.6737L75.9625 81.6001C74.4597 81.2941 72.5013 81.6817 72.4197 82.2801L71.5969 88.8897C71.5017 89.6581 73.6029 90.1477 75.3641 89.7601L91.2761 86.2173C92.8605 85.8773 92.7109 85.0001 91.0449 84.6737Z" fill="#0A358A"/>
<path d="M98.376 65.9192C104.768 76.16 85.9932 86.9448 54.5228 86.9448C23.0524 86.9448 4.2844 76.16 10.6764 65.9192C15.6404 57.9904 34.8436 52.7612 54.5228 52.7612C74.202 52.7612 93.4256 57.9904 98.376 65.9192Z" fill="#F89100"/>
<path d="M64.7704 65.1508L49.688 62.0636C48.1852 61.7576 46.2268 62.1452 46.1452 62.7436L45.3224 69.36C45.2272 70.1284 47.3624 70.618 49.0964 70.2236L65.0016 66.6876C66.586 66.3544 66.4364 65.4908 64.7704 65.1508Z" fill="#0A358A"/>
<path d="M125.324 42.6836C131.716 52.9244 112.941 63.716 81.4772 63.716C50.0136 63.716 31.232 52.9244 37.624 42.6836C42.5744 34.7548 61.7912 29.5256 81.4772 29.5256C101.163 29.5256 120.36 34.7548 125.324 42.6836Z" fill="white"/>
<path d="M91.7255 41.9152L76.6431 38.828C75.1335 38.522 73.1751 38.9096 73.1003 39.508L72.2707 46.1176C72.1755 46.886 74.3107 47.3756 76.0447 46.988L91.9499 43.4452C93.5343 43.1188 93.3847 42.2552 91.7255 41.9152Z" fill="#0A358A"/>
</g>
<defs>
<clipPath id="clip0_2142_385">
<rect width="136" height="136" rx="8" fill="white"/>
</clipPath>
</defs>
</svg>
