<svg width="24" height="24" viewBox="0 0 24 24" fill="none" xmlns="http://www.w3.org/2000/svg">
<path d="M17 21H7C6.20435 21 5.44129 20.6839 4.87868 20.1213C4.31607 19.5587 4 18.7956 4 18V6C4 5.20435 4.31607 4.44129 4.87868 3.87868C5.44129 3.31607 6.20435 3 7 3H17C17.7956 3 18.5587 3.31607 19.1213 3.87868C19.6839 4.44129 20 5.20435 20 6V18C20 18.7956 19.6839 19.5587 19.1213 20.1213C18.5587 20.6839 17.7956 21 17 21ZM7 5C6.73478 5 6.48043 5.10536 6.29289 5.29289C6.10536 5.48043 6 5.73478 6 6V18C6 18.2652 6.10536 18.5196 6.29289 18.7071C6.48043 18.8946 6.73478 19 7 19H17C17.2652 19 17.5196 18.8946 17.7071 18.7071C17.8946 18.5196 18 18.2652 18 18V6C18 5.73478 17.8946 5.48043 17.7071 5.29289C17.5196 5.10536 17.2652 5 17 5H7Z" fill="white"/>
<path d="M15.5 7H13.5C13.2239 7 13 7.22386 13 7.5V8.5C13 8.77614 13.2239 9 13.5 9H15.5C15.7761 9 16 8.77614 16 8.5V7.5C16 7.22386 15.7761 7 15.5 7Z" fill="white"/>
<path d="M15.5 12H8.5C8.22386 12 8 12.2239 8 12.5V13.5C8 13.7761 8.22386 14 8.5 14H15.5C15.7761 14 16 13.7761 16 13.5V12.5C16 12.2239 15.7761 12 15.5 12Z" fill="white"/>
<path d="M11.5 15H8.5C8.22386 15 8 15.2239 8 15.5V16.5C8 16.7761 8.22386 17 8.5 17H11.5C11.7761 17 12 16.7761 12 16.5V15.5C12 15.2239 11.7761 15 11.5 15Z" fill="white"/>
<path d="M11.5 7H8.5C8.22386 7 8 7.22386 8 7.5V10.5C8 10.7761 8.22386 11 8.5 11H11.5C11.7761 11 12 10.7761 12 10.5V7.5C12 7.22386 11.7761 7 11.5 7Z" fill="white"/>
</svg>
