<svg width="24" height="24" viewBox="0 0 24 24" fill="none" xmlns="http://www.w3.org/2000/svg">
<path d="M15.9 5H9L4.68 5.7C4.21187 5.77588 3.78594 6.01563 3.47822 6.37647C3.17049 6.73731 3.001 7.19576 3 7.67V19.59C3.00012 19.7478 3.03759 19.9034 3.10936 20.044C3.18113 20.1845 3.28516 20.3061 3.41293 20.3988C3.5407 20.4915 3.6886 20.5526 3.84451 20.5771C4.00043 20.6016 4.15994 20.5889 4.31 20.54L8.92 19H9.08H16.08L19.42 18.33C19.8786 18.2365 20.2898 17.9852 20.5821 17.6197C20.8745 17.2543 21.0294 16.7979 21.02 16.33V4.46C21.0202 4.29662 20.9803 4.1357 20.9039 3.9913C20.8275 3.84689 20.7168 3.72341 20.5816 3.63165C20.4465 3.5399 20.2909 3.48265 20.1285 3.46493C19.9661 3.44721 19.8018 3.46955 19.65 3.53L16.09 4.94C16.0326 4.97532 15.9673 4.99593 15.9 5ZM10 7H15V17H10V7ZM5 7.67L8 7.17V17.17L5 18.17V7.67ZM19 16.34L17 16.74V6.74L19 5.94V16.34Z" fill="white"/>
</svg>
