<svg width="24" height="24" viewBox="0 0 24 24" fill="none" xmlns="http://www.w3.org/2000/svg">
<path d="M21 17.43L20.13 5.78C20.0743 5.02308 19.7339 4.31538 19.1772 3.79952C18.6205 3.28365 17.889 2.99795 17.13 3H10.13C9.71682 2.99888 9.30786 3.08313 8.92876 3.24746C8.54967 3.41179 8.2086 3.65266 7.92694 3.95497C7.64529 4.25728 7.42912 4.61451 7.29198 5.00428C7.15485 5.39404 7.0997 5.80792 7.13 6.22L7.73 14.22C7.33612 14.0749 6.91975 14.0004 6.5 14C5.80777 14 5.13108 14.2053 4.55551 14.5899C3.97993 14.9744 3.53133 15.5211 3.26642 16.1606C3.00152 16.8001 2.9322 17.5039 3.06725 18.1828C3.2023 18.8617 3.53564 19.4854 4.02513 19.9749C4.51461 20.4644 5.13825 20.7977 5.81719 20.9327C6.49612 21.0678 7.19985 20.9985 7.83939 20.7336C8.47894 20.4687 9.02556 20.0201 9.41015 19.4445C9.79473 18.8689 10 18.1922 10 17.5C10 17.5 10 17.45 10 17.43L9.16 6.07C9.14985 5.93386 9.16768 5.79708 9.2124 5.66809C9.25711 5.53911 9.32776 5.42064 9.42 5.32C9.51324 5.21946 9.62616 5.13917 9.75174 5.08412C9.87732 5.02907 10.0129 5.00044 10.15 5H17.15C17.4035 4.99937 17.6478 5.09507 17.8335 5.26772C18.0191 5.44037 18.1323 5.67709 18.15 5.93L18.77 14.24C18.3648 14.0834 17.9344 14.0021 17.5 14C16.8078 14 16.1311 14.2053 15.5555 14.5899C14.9799 14.9744 14.5313 15.5211 14.2664 16.1606C14.0015 16.8001 13.9322 17.5039 14.0673 18.1828C14.2023 18.8617 14.5356 19.4854 15.0251 19.9749C15.5146 20.4644 16.1383 20.7977 16.8172 20.9327C17.4961 21.0678 18.1999 20.9985 18.8394 20.7336C19.4789 20.4687 20.0256 20.0201 20.4101 19.4445C20.7947 18.8689 21 18.1922 21 17.5C21 17.5 21 17.45 21 17.43ZM6.5 19C6.20773 18.9993 5.92202 18.9133 5.67797 18.7525C5.43393 18.5917 5.24218 18.3631 5.12629 18.0948C5.0104 17.8264 4.97543 17.5301 5.02566 17.2422C5.07589 16.9543 5.20914 16.6873 5.40903 16.4741C5.60893 16.2609 5.86676 16.1107 6.15085 16.042C6.43493 15.9733 6.73289 15.9891 7.00812 16.0875C7.28334 16.1858 7.52383 16.3625 7.70005 16.5956C7.87626 16.8288 7.98052 17.1084 8 17.4V17.51C7.99736 17.9061 7.83816 18.2851 7.55714 18.5642C7.27612 18.8433 6.8961 19 6.5 19ZM17.5 19C17.2077 18.9993 16.922 18.9133 16.678 18.7525C16.4339 18.5917 16.2422 18.3631 16.1263 18.0948C16.0104 17.8264 15.9754 17.5301 16.0257 17.2422C16.0759 16.9543 16.2091 16.6873 16.409 16.4741C16.6089 16.2609 16.8668 16.1107 17.1508 16.042C17.4349 15.9733 17.7329 15.9891 18.0081 16.0875C18.2833 16.1858 18.5238 16.3625 18.7 16.5956C18.8763 16.8288 18.9805 17.1084 19 17.4V17.51C18.9948 17.9053 18.8347 18.2827 18.5543 18.5613C18.2738 18.8399 17.8953 18.9974 17.5 19Z" fill="white"/>
</svg>
