<svg width="24" height="24" viewBox="0 0 24 24" fill="none" xmlns="http://www.w3.org/2000/svg">
<path d="M18 3H6C5.20435 3 4.44129 3.31607 3.87868 3.87868C3.31607 4.44129 3 5.20435 3 6V18C3 18.7956 3.31607 19.5587 3.87868 20.1213C4.44129 20.6839 5.20435 21 6 21H18C18.7956 21 19.5587 20.6839 20.1213 20.1213C20.6839 19.5587 21 18.7956 21 18V6C21 5.20435 20.6839 4.44129 20.1213 3.87868C19.5587 3.31607 18.7956 3 18 3ZM6 5H18C18.2652 5 18.5196 5.10536 18.7071 5.29289C18.8946 5.48043 19 5.73478 19 6V16.5L18.69 15.8C18.4565 15.2649 18.0719 14.8096 17.5834 14.4899C17.095 14.1702 16.5238 13.9999 15.94 14H8.06C7.47619 13.9999 6.90504 14.1702 6.41657 14.4899C5.92809 14.8096 5.54352 15.2649 5.31 15.8L5 16.51V6C5 5.73478 5.10536 5.48043 5.29289 5.29289C5.48043 5.10536 5.73478 5 6 5ZM17.91 19H6.09L7.09 16.6C7.16807 16.4211 7.29677 16.269 7.46025 16.1624C7.62373 16.0558 7.81483 15.9993 8.01 16H15.89C16.0852 15.9993 16.2763 16.0558 16.4398 16.1624C16.6032 16.269 16.7319 16.4211 16.81 16.6L17.91 19Z" fill="white"/>
<path d="M9 13H15C15.7956 13 16.5587 12.6839 17.1213 12.1213C17.6839 11.5587 18 10.7956 18 10V9C18 8.20435 17.6839 7.44129 17.1213 6.87868C16.5587 6.31607 15.7956 6 15 6H9C8.20435 6 7.44129 6.31607 6.87868 6.87868C6.31607 7.44129 6 8.20435 6 9V10C6 10.7956 6.31607 11.5587 6.87868 12.1213C7.44129 12.6839 8.20435 13 9 13ZM8 9C8 8.73478 8.10536 8.48043 8.29289 8.29289C8.48043 8.10536 8.73478 8 9 8V10H11V8H13V10H15V8C15.2652 8 15.5196 8.10536 15.7071 8.29289C15.8946 8.48043 16 8.73478 16 9V10C16 10.2652 15.8946 10.5196 15.7071 10.7071C15.5196 10.8946 15.2652 11 15 11H9C8.73478 11 8.48043 10.8946 8.29289 10.7071C8.10536 10.5196 8 10.2652 8 10V9Z" fill="white"/>
</svg>
