<svg width="24" height="24" viewBox="0 0 24 24" fill="none" xmlns="http://www.w3.org/2000/svg">
<path d="M12 9C12.5933 9 13.1734 8.82405 13.6667 8.49441C14.1601 8.16477 14.5446 7.69623 14.7716 7.14805C14.9987 6.59987 15.0581 5.99667 14.9424 5.41473C14.8266 4.83279 14.5409 4.29824 14.1213 3.87868C13.7018 3.45912 13.1672 3.1734 12.5853 3.05765C12.0033 2.94189 11.4001 3.0013 10.8519 3.22836C10.3038 3.45543 9.83524 3.83994 9.50559 4.33329C9.17595 4.82664 9 5.40666 9 6C9 6.79565 9.31607 7.55871 9.87868 8.12132C10.4413 8.68393 11.2044 9 12 9ZM12 5C12.1978 5 12.3911 5.05865 12.5556 5.16853C12.72 5.27841 12.8482 5.43459 12.9239 5.61732C12.9996 5.80004 13.0194 6.00111 12.9808 6.19509C12.9422 6.38907 12.847 6.56726 12.7071 6.70711C12.5673 6.84696 12.3891 6.9422 12.1951 6.98079C12.0011 7.01937 11.8 6.99957 11.6173 6.92388C11.4346 6.84819 11.2784 6.72002 11.1685 6.55557C11.0586 6.39112 11 6.19778 11 6C11 5.73478 11.1054 5.48043 11.2929 5.29289C11.4804 5.10536 11.7348 5 12 5Z" fill="white"/>
<path d="M15.68 19L15.41 18.34C14.6098 16.3162 14.1502 14.1739 14.05 12H14.5C14.6326 12 14.7598 11.9473 14.8536 11.8536C14.9473 11.7598 15 11.6326 15 11.5V10.5C15 10.3674 14.9473 10.2402 14.8536 10.1464C14.7598 10.0527 14.6326 10 14.5 10H9.5C9.36739 10 9.24021 10.0527 9.14645 10.1464C9.05268 10.2402 9 10.3674 9 10.5V11.5C9 11.6326 9.05268 11.7598 9.14645 11.8536C9.24021 11.9473 9.36739 12 9.5 12H10C9.89978 14.1739 9.44023 16.3162 8.64 18.34L8.32 19H7.5C7.36739 19 7.24021 19.0527 7.14645 19.1464C7.05268 19.2402 7 19.3674 7 19.5V20.5C7 20.6326 7.05268 20.7598 7.14645 20.8536C7.24021 20.9473 7.36739 21 7.5 21H16.5C16.6326 21 16.7598 20.9473 16.8536 20.8536C16.9473 20.7598 17 20.6326 17 20.5V19.5C17 19.3674 16.9473 19.2402 16.8536 19.1464C16.7598 19.0527 16.6326 19 16.5 19H15.68ZM12 12H12.1C12.2015 14.3993 12.7017 16.7649 13.58 19H10.47C11.3654 16.7679 11.8825 14.4021 12 12Z" fill="white"/>
</svg>
