<svg width="24" height="24" viewBox="0 0 24 24" fill="none" xmlns="http://www.w3.org/2000/svg">
<path d="M12 2.60001C10.0117 2.60265 8.10557 3.39368 6.69962 4.79963C5.29367 6.20558 4.50265 8.1117 4.5 10.1C4.5 13.99 10.6 20.22 11.29 20.92L11.61 21.24C11.7145 21.3414 11.8544 21.3981 12 21.3981C12.1456 21.3981 12.2855 21.3414 12.39 21.24L12.71 20.92C13.4 20.22 19.5 13.99 19.5 10.1C19.4974 8.1117 18.7063 6.20558 17.3004 4.79963C15.8944 3.39368 13.9883 2.60265 12 2.60001ZM12 18.77C9.63 16.24 6.5 12.2 6.5 10.1C6.5 8.64132 7.07946 7.24237 8.11091 6.21092C9.14236 5.17947 10.5413 4.60001 12 4.60001C13.4587 4.60001 14.8576 5.17947 15.8891 6.21092C16.9205 7.24237 17.5 8.64132 17.5 10.1C17.5 12.2 14.37 16.24 12 18.77Z" fill="white"/>
<path d="M12 6.60001C11.4067 6.60001 10.8266 6.77595 10.3333 7.1056C9.83994 7.43524 9.45543 7.90378 9.22836 8.45196C9.0013 9.00013 8.94189 9.60333 9.05765 10.1853C9.1734 10.7672 9.45912 11.3018 9.87868 11.7213C10.2982 12.1409 10.8328 12.4266 11.4147 12.5424C11.9967 12.6581 12.5999 12.5987 13.1481 12.3716C13.6962 12.1446 14.1648 11.7601 14.4944 11.2667C14.8241 10.7734 15 10.1934 15 9.60001C15 8.80436 14.6839 8.04129 14.1213 7.47869C13.5587 6.91608 12.7957 6.60001 12 6.60001ZM12 10.6C11.8022 10.6 11.6089 10.5414 11.4444 10.4315C11.28 10.3216 11.1518 10.1654 11.0761 9.98269C11.0004 9.79996 10.9806 9.5989 11.0192 9.40492C11.0578 9.21094 11.153 9.03275 11.2929 8.8929C11.4327 8.75305 11.6109 8.65781 11.8049 8.61922C11.9989 8.58064 12.2 8.60044 12.3827 8.67613C12.5654 8.75181 12.7216 8.87999 12.8315 9.04444C12.9414 9.20889 13 9.40223 13 9.60001C13 9.86522 12.8946 10.1196 12.7071 10.3071C12.5196 10.4946 12.2652 10.6 12 10.6Z" fill="white"/>
</svg>
