<svg width="24" height="24" viewBox="0 0 24 24" fill="none" xmlns="http://www.w3.org/2000/svg">
<path d="M10 6H14C14.5304 6 15.0391 5.78929 15.4142 5.41421C15.7893 5.03914 16 4.53043 16 4V3.5C16 3.36739 15.9473 3.24021 15.8536 3.14645C15.7598 3.05268 15.6326 3 15.5 3H14.5C14.3674 3 14.2402 3.05268 14.1464 3.14645C14.0527 3.24021 14 3.36739 14 3.5V4H13V3.5C13 3.36739 12.9473 3.24021 12.8536 3.14645C12.7598 3.05268 12.6326 3 12.5 3H11.5C11.3674 3 11.2402 3.05268 11.1464 3.14645C11.0527 3.24021 11 3.36739 11 3.5V4H10V3.5C10 3.36739 9.94732 3.24021 9.85355 3.14645C9.75979 3.05268 9.63261 3 9.5 3H8.5C8.36739 3 8.24021 3.05268 8.14645 3.14645C8.05268 3.24021 8 3.36739 8 3.5V4C8 4.53043 8.21071 5.03914 8.58579 5.41421C8.96086 5.78929 9.46957 6 10 6Z" fill="white"/>
<path d="M15.75 19L15.43 17.88C14.5201 14.6914 14.0392 11.3957 14 8.08C13.9851 7.88695 13.9851 7.69305 14 7.5C14 7.36739 13.9473 7.24021 13.8536 7.14645C13.7598 7.05268 13.6326 7 13.5 7H10.5C10.3674 7 10.2402 7.05268 10.1464 7.14645C10.0527 7.24021 10 7.36739 10 7.5C10 8.37 10 7.68 10 8.07C9.96401 11.3885 9.48649 14.6875 8.58 17.88L8.25 19H7.5C7.36739 19 7.24021 19.0527 7.14645 19.1464C7.05268 19.2402 7 19.3674 7 19.5V20.5C7 20.6326 7.05268 20.7598 7.14645 20.8536C7.24021 20.9473 7.36739 21 7.5 21H16.5C16.6326 21 16.7598 20.9473 16.8536 20.8536C16.9473 20.7598 17 20.6326 17 20.5V19.5C17 19.3674 16.9473 19.2402 16.8536 19.1464C16.7598 19.0527 16.6326 19 16.5 19H15.75ZM10.33 19V18.87C11.4037 15.1571 11.9656 11.3149 12 7.45C12.0214 11.3131 12.5698 15.1552 13.63 18.87V19H10.33Z" fill="white"/>
</svg>
